<mxfile host="app.diagrams.net" modified="2023-07-18T02:30:43.242Z" agent="Mozilla/5.0 (Windows NT 10.0; Win64; x64) AppleWebKit/537.36 (KHTML, like Gecko) Chrome/114.0.0.0 Safari/537.36" etag="aSVQ1ny9tQTg4J8k01G1" version="21.6.2" type="google" pages="3">
  <diagram id="uf-N_GeoBRnZr--a8zMa" name="Arquitectura de servicios">
    <mxGraphModel grid="0" page="0" gridSize="10" guides="1" tooltips="1" connect="1" arrows="1" fold="1" pageScale="1" pageWidth="827" pageHeight="1169" background="none" math="0" shadow="1">
      <root>
        <mxCell id="0" />
        <mxCell id="1" parent="0" />
        <mxCell id="V0f5HaSLWoZ5ij-S17De-1" value="Control de versiones" style="swimlane;whiteSpace=wrap;html=1;portConstraintRotation=0;movableLabel=1;" vertex="1" parent="1">
          <mxGeometry x="230" y="263" width="262" height="185.69" as="geometry" />
        </mxCell>
        <mxCell id="V0f5HaSLWoZ5ij-S17De-4" value="&lt;b&gt;Diseñado por:&amp;nbsp;&lt;/b&gt;Chinchay Epiquin Rodrigo Francisco, Sifuentes Marcelo Roberto, Rodriguez,&amp;nbsp;&amp;nbsp;Aybas Jean, Coronel Flores Elvis , Jhon Aurelio Huerta Muñoz (Estudiantes del DSM-UNMSM)&lt;br&gt;&lt;br style=&quot;border-color: var(--border-color);&quot;&gt;&lt;b&gt;Elaborado por:&lt;/b&gt; Bruno Palacios&lt;br style=&quot;border-color: var(--border-color);&quot;&gt;&amp;nbsp; &amp;nbsp; &amp;nbsp; &amp;nbsp; &amp;nbsp; &amp;nbsp; &amp;nbsp; &amp;nbsp; &amp;nbsp; &amp;nbsp; &amp;nbsp; &amp;nbsp; &amp;nbsp; (Arquitecto de Soluciones)&lt;br&gt;&lt;br style=&quot;border-color: var(--border-color);&quot;&gt;&lt;b&gt;Versión:&lt;/b&gt; 1.0.0" style="text;html=1;strokeColor=none;fillColor=none;align=left;verticalAlign=middle;whiteSpace=wrap;rounded=0;" vertex="1" parent="V0f5HaSLWoZ5ij-S17De-1">
          <mxGeometry x="5" y="37" width="260" height="140" as="geometry" />
        </mxCell>
        <mxCell id="O6xlAhihPvjD9R0icvd0-1" value="Aplicación" style="rounded=1;whiteSpace=wrap;html=1;" vertex="1" parent="1">
          <mxGeometry x="-164" y="409" width="120" height="60" as="geometry" />
        </mxCell>
        <mxCell id="OrDrinTZvI2OHBBJCQQ1-14" style="edgeStyle=orthogonalEdgeStyle;rounded=0;orthogonalLoop=1;jettySize=auto;html=1;exitX=0.5;exitY=0;exitDx=0;exitDy=0;" edge="1" parent="1" source="O6xlAhihPvjD9R0icvd0-2" target="vesP3zaRMJrgmn3Ny6aU-8">
          <mxGeometry relative="1" as="geometry">
            <mxPoint x="506" y="999" as="targetPoint" />
            <Array as="points">
              <mxPoint x="-509" y="1070" />
              <mxPoint x="19" y="1070" />
              <mxPoint x="19" y="1019" />
              <mxPoint x="495" y="1019" />
              <mxPoint x="495" y="1017" />
              <mxPoint x="506" y="1017" />
              <mxPoint x="506" y="1037" />
            </Array>
          </mxGeometry>
        </mxCell>
        <mxCell id="OrDrinTZvI2OHBBJCQQ1-15" style="edgeStyle=orthogonalEdgeStyle;rounded=0;orthogonalLoop=1;jettySize=auto;html=1;exitX=0.5;exitY=0;exitDx=0;exitDy=0;entryX=0.004;entryY=0.451;entryDx=0;entryDy=0;entryPerimeter=0;" edge="1" parent="1" source="O6xlAhihPvjD9R0icvd0-2" target="vesP3zaRMJrgmn3Ny6aU-7">
          <mxGeometry relative="1" as="geometry">
            <mxPoint x="472" y="840.345" as="targetPoint" />
          </mxGeometry>
        </mxCell>
        <mxCell id="OrDrinTZvI2OHBBJCQQ1-29" style="edgeStyle=orthogonalEdgeStyle;rounded=0;orthogonalLoop=1;jettySize=auto;html=1;exitX=1;exitY=0.5;exitDx=0;exitDy=0;entryX=0;entryY=0.5;entryDx=0;entryDy=0;" edge="1" parent="1" source="O6xlAhihPvjD9R0icvd0-2">
          <mxGeometry relative="1" as="geometry">
            <Array as="points">
              <mxPoint x="-424" y="1214" />
            </Array>
            <mxPoint x="460.9999999999998" y="1213.9950000000001" as="targetPoint" />
          </mxGeometry>
        </mxCell>
        <mxCell id="gfD2nibtzyW-AY_Npl1U-2" style="edgeStyle=orthogonalEdgeStyle;rounded=0;orthogonalLoop=1;jettySize=auto;html=1;exitX=0.5;exitY=1;exitDx=0;exitDy=0;" edge="1" parent="1" source="O6xlAhihPvjD9R0icvd0-2" target="vesP3zaRMJrgmn3Ny6aU-10">
          <mxGeometry relative="1" as="geometry">
            <mxPoint x="425" y="1385" as="targetPoint" />
            <Array as="points">
              <mxPoint x="-509" y="1441" />
            </Array>
          </mxGeometry>
        </mxCell>
        <mxCell id="vesP3zaRMJrgmn3Ny6aU-17" style="edgeStyle=orthogonalEdgeStyle;rounded=0;orthogonalLoop=1;jettySize=auto;html=1;entryX=0.033;entryY=0.469;entryDx=0;entryDy=0;entryPerimeter=0;" edge="1" parent="1" source="O6xlAhihPvjD9R0icvd0-2" target="vesP3zaRMJrgmn3Ny6aU-16">
          <mxGeometry relative="1" as="geometry">
            <mxPoint x="476" y="1651" as="targetPoint" />
            <Array as="points">
              <mxPoint x="-509" y="1651" />
            </Array>
          </mxGeometry>
        </mxCell>
        <mxCell id="O6xlAhihPvjD9R0icvd0-2" value="APP Canal Consumidor" style="swimlane;strokeColor=#97D077;strokeWidth=2;fontColor=#FFFFFF;" vertex="1" parent="1">
          <mxGeometry x="-594" y="1089.6599999999999" width="170" height="210.68" as="geometry">
            <mxRectangle x="-143" y="2530.16" width="170" height="30" as="alternateBounds" />
          </mxGeometry>
        </mxCell>
        <mxCell id="O6xlAhihPvjD9R0icvd0-3" value="" style="sketch=0;aspect=fixed;html=1;points=[];align=center;image;fontSize=12;image=img/lib/mscae/Managed_Desktop.svg;fontColor=#000000;" vertex="1" parent="O6xlAhihPvjD9R0icvd0-2">
          <mxGeometry x="60" y="50.67999999999995" width="50" height="36" as="geometry" />
        </mxCell>
        <mxCell id="O6xlAhihPvjD9R0icvd0-4" value="" style="sketch=0;aspect=fixed;html=1;points=[];align=center;image;fontSize=12;image=img/lib/mscae/Devices_Groups.svg;fontColor=#000000;" vertex="1" parent="O6xlAhihPvjD9R0icvd0-2">
          <mxGeometry x="60" y="134.65999999999997" width="50" height="50" as="geometry" />
        </mxCell>
        <mxCell id="O6xlAhihPvjD9R0icvd0-5" value="- Ocp-Apim-Subscription-Key&lt;br style=&quot;border-color: var(--border-color);&quot;&gt;- Authorization bearer (token que se envia en la cabecera)" style="verticalLabelPosition=bottom;aspect=fixed;html=1;verticalAlign=top;strokeColor=none;align=center;outlineConnect=0;shape=mxgraph.citrix.role_security;fillColor=#CCCCCC;gradientColor=#000000;gradientDirection=south;whiteSpace=wrap;fontColor=#000000;" vertex="1" parent="1">
          <mxGeometry x="-315" y="619.66" width="38" height="38" as="geometry" />
        </mxCell>
        <mxCell id="O6xlAhihPvjD9R0icvd0-8" value="API CANAL&lt;br&gt;&lt;i&gt;&lt;font color=&quot;#3333ff&quot;&gt;SM-HEALTH&lt;/font&gt;&lt;/i&gt;" style="rounded=1;whiteSpace=wrap;html=1;" vertex="1" parent="1">
          <mxGeometry x="778" y="409" width="120" height="60" as="geometry" />
        </mxCell>
        <mxCell id="O6xlAhihPvjD9R0icvd0-9" value="ALMACENAMIENTO" style="rounded=1;whiteSpace=wrap;html=1;" vertex="1" parent="1">
          <mxGeometry x="1649" y="409" width="120" height="60" as="geometry" />
        </mxCell>
        <mxCell id="O6xlAhihPvjD9R0icvd0-12" style="edgeStyle=orthogonalEdgeStyle;rounded=0;orthogonalLoop=1;jettySize=auto;html=1;fontColor=#000000;strokeColor=#000000;" edge="1" parent="1" source="O6xlAhihPvjD9R0icvd0-14">
          <mxGeometry relative="1" as="geometry">
            <mxPoint x="1889.0344827586205" y="1177" as="targetPoint" />
          </mxGeometry>
        </mxCell>
        <mxCell id="O6xlAhihPvjD9R0icvd0-13" value="Lista de médicos" style="edgeLabel;html=1;align=center;verticalAlign=middle;resizable=0;points=[];labelBackgroundColor=none;fontColor=#000000;" connectable="0" vertex="1" parent="O6xlAhihPvjD9R0icvd0-12">
          <mxGeometry x="-0.1233" y="2" relative="1" as="geometry">
            <mxPoint x="-349" y="-3" as="offset" />
          </mxGeometry>
        </mxCell>
        <mxCell id="O6xlAhihPvjD9R0icvd0-14" value="API NE Gestión Médicos" style="shape=image;verticalLabelPosition=bottom;labelBackgroundColor=none;verticalAlign=top;aspect=fixed;imageAspect=0;image=data:image/png,iVBORw0KGgoAAAANSUhEUgAAAEcAAABTCAYAAADN9xqSAAAWgUlEQVR4Ae2cC1hUVdfHEczXt7yVClaKpGmUKZSZVBaaSVmiZKWYlrz1ipj3VDAtvN/iYmqppEmmiKaFIlcBUUAQERCQO4LIHYHhMswwXOb/PWuP58hhZpjh+lTvx/OsZ885M3POPj/+a+111t5ndPD/f2oJ6Kh95y/0hpeXFxw3ber2Hv2l4RAUExMTTJ9hiVGjn0N8fHy3AvpLwlFAMcUHljMREn4dBRVibNqxGytXrvrfhcNBsZw5E1cjo1FWLUVJpYTBiU3JguHw4ZBKpd0G6C+hHAbF1BSWM2fhWnQMqiQyVIjrBHDuldVg1uyP4enp+b8Bh6CYmppi5qxZiI6JRa2sATXSerVwPL188dZb5v9sOByUWbOsEBMbC1lDI6T1jRrh5JRWY5jhcOTk5HQLoG51Kw6KlZUVYmPj0NDYhPrGpjbBWbtxMxwc1v+z4Lz33nsgKHFx8WiSy9HYJG8XnMiEdBgadk9g7hblUBC1trZm/225HB2Ck1lUCYvpM0Aq7Oq/LodDQ6+RkRGKioo6Dc6BX06wke1vD2fVqlXYu3ev4Do64laknJSCCujrG/DABQfvxI0uVQ6l+2ZmZkqJW2fAWbLaocvvt7oUzssTJiM0NFTpfynvQEDmlBMQGc8Cs9LBO3FHl8FZt/UULK0UQVhVf9s7WnFwEu+V480p78Df31/V4TtlX5fAKS2XYpDBwyCsqqedAcfF7XiXBuYugTNlxko4u7iqYsLvoyG9PUlgc+VEpeVjqKFhlwVmreFIa2vheegQNi1fziwnNZW/0OYvzvvHY4TxRKUg3Pwz3OuOwonNuY9Pv1gMV9fW/xHc+draagUnPiICxsOGYc6kSdjw4YfMjAwMYGNpiZaQhowwh7XjaYRmlkAkkbH+pGek4SOHLMjqhOUGcq223j40Vw7BORMYwQphbb1wbT6vEc4xJydMNDbGLWcXVJw+g4o//mRt+YkTOGxrCwZpxgwGyWH7KRiafIwtfkm8FVVJYbPpFmy+i4Z3YLigTzRqdRROdFYJJrw2SeWoKDhZOzZahZMaFwfTkSNRfNIDlf4BqImMhPjGDdZWXw2D6OJFlP1yDAcX2mC4vgH+3W84VrpHYKv/bd6cf/WFy48/4ubFybDdFqPUxc6As2H3Pnz2+UKlY3d0h1o4FGNMn30WMT/8AAIhjouHNCMDddnZzCQpqQwSB2j7lnTM2XoD2wNu87brQhhm26dDFt0buKkDyzW5KCjKE/SZXKstJYuWbkXKuZyUi8H6BhCJRIJjd3RDLZxDO3Zg0fTpqAoOQW1SEupyc1FfWoqGigo0lJVBVlTEYJGakk4G4wP7Wmz3S8HOwGTebDZFM8UQGDI3t61w8wgR9JlGrY7Cicgoxlwb204PzGrhkGoiXFyZG5FaCEijWAy5TIYmqRSNlZWQ5eczcIscK7Dyt1zsCkzmbcex8/jO5SSDwsEpCDWC5Zp7Aji0Qa6lbbFLlXIIzhGvILw4dpzSsTuyQyWcotxcDHn8cRZTyJ1INQRDXl8PyOWQNzYyUKSkoHN38MmWKuy5lMyb08UozLbPQPW1AQI4BMl2SzhutphiIdfqKJzQ1EKMe/kVREVFdYSH4Lsq4UQFBbERiuKJAI5MBnlTE+QNDQyOuKAUFqvrsP1iBpyDUnhbsiMMIec+UgJDcLw9bLD5R+H9lhzoFDgrHHdhke1iwQV2ZKNVODRsU0yhQEwqaayuZi7VJJGw2LP/cCFs99+Ha3AKb07HL8BhzzmVYAgOBefJyyuVch5yLU0Fdqohq3MrUo5P7B30699fqwRUG2gq4dBINaBPHxS6/cyGcKae7GwWhCn2EKi7sXcxfa0UrpfSsC8kVWEBscydysKHqIVDgDa7nlTKeaiM0VE4l27nw9L6cxw6dEiba9f4GZVw6Fvrv/gCW62tWcJHIxblNzR8k4rIlm0rx7oT+TgQmsbbGudAXPD4olUwBEddziOpb31qRpNyCI7LifMYP+FVjReuzQfUwqEvL5wxA++OH4+EffuYgijfIQv8LRHW26px8Eo6b85nQrB0a5BGMASH7CP7dOTcyxf0kVyrtXkrbeD4JtzD6Bde7JR59VbhUM/9T59m91UbP/kERe7uKPX8AzPWSuDkn43DYekKC03Ch/YZoKGau3hNrfsvG3Dg+FUBHHKtzoDz33WbsGzFSsGx27OhEQ4dlGLQpqVLGaSv7dyx5EAFjoZn8Ga/9xLOHv9KazAEjuKSxaoSpT5LZA1qZzy1VY7H1SQM0jfocGDWCg53BQF+V9n905GrWTgWkcns0IUQLPzuRpvAcKpavi0Y12ISuMOzllxL3Vy5tnDOx+XCfPqsDs+rtwnOiHGzMGeNO45HZjFzu5KCWfNvIfMb43bBCTxjjW9+iBDAoduJzoCz+bAnXp/0luDYbd3QGo7LYX88OdoCHtfv8Gb+rTeWWmxGk14PyJ/SBfYrgi2nDE0t5TwWK4tRXVMn6De5lqpVFm1RztmYHAwfOQqpaopyghOq2dAKTlW1FAOGmMLxl1CcvpHNbP3pMIyxi4GZVW9U/UsX0NGBvK8e5KP1gFPaQ9q57yjO+UYKutfQ1NQpcOYttcc6ewfBsduyoRWcOV/uxHiLr3HuZg5v45ak4FFbU+jY6qDwsR4MDgFikProQv6KHuCtGVKirxkrhrXsdGWtTGl9jirlpCVk4F70LeRExSP8VjZoKKeYQ8o56BeNp4cZtjswa4STklGEf/c3wqlrGfgz7i4ziy0XMdzOmYEhOI4TdFHfU08AiIF6tAeaZvcEAluHxHKeu3cEfOhGtPnKLlq81BxO2p1C1PkHQPrHnxD/ehy1pzxR7+ePwtAIhEanMzinorNh9va77Z5X1wjH+JW5mLf6CLxv5TJz9onDGLtE6Nr25uEMWaADSU+Fajj1cK1cTxfo3wPyhXpApGpIipwnWACHch51cHIy70Hm44syJyeUurii7OgvqDh9GiIvL0j8/FAXeAklIWG4dC0Za/cew9vvWAiOre1Gq3DcToRC/xlz+Cbm8Way7Ab62k7mwZByyKKHqFDOAzdjrtZLD+jXA/KVukojG+U8VCWU1Qu7XVUr49cEcsq5m1uCeh8flGzZitJ9+1H263EGpTLwEqrDw1ETHQ3xzZuQXruGuuAQlAeFYtCgwe2avlELh4LwoGFm2HokBIG385l9/L0fRiw5qgSG4FhP1YH4X60DYpB69wQG9ACchSpas8sHodfiBHTq6huV4EiCQlC+53teMaQWuvcjKLWJiZCkPrj/y8pi94B18fHYv3I1zF54AV7u7oLja9pQC2fBEle8PHUpgpPzmbmH3cbYxRnQsx2gEk7vL3VQ84hq1+JcrHkr76MHuZEu4KaAFHrOCmuchKMW1XlKH6wmJeWUZORAevoMSnbuwn03N1ScPQdSDIGR3E5mtW1ZXh6rHtSXlLCWtqVZWQh0c8OsSZNYXdzzp580cWHvq4RDQbjPQGOcDU8H1UnIXlp+Df1s31MJhnOtE8aaldMcEHvdVw+Y0BOyk71hueYuyiqqBB2vltSzpbYERxwWAZGzq0I15E7eF5krkWKolEt1bVbOraxCY2UVGkQiRb27oIABos9F/vwz5pibsykldw2TgSrhmLyxEPOWHUR4ehGzL38KwKgl51oFQ4DMrHT4nEcJQrP4o/K9PrpwmbMXx09cEcCh2wlapJ1fLEKjnx9KNm9hsYYCMKmGxZeMDMgKClgBrrGmBlSMozo3tVSgYxMCeXnM5UhllX5+SNi3H59NmcIqD4ITNttQgnPyXBQGDpuIyMxiZp6RKRhrl4RHbIdohEOAWuY8KkGoAZU6+GXM+Ex5pWhJlQSFBWVovOiD4q3bcP+ng8ylqq9cYXGGVNO8UkllXKpzU82bAaqsYqoi9yKYFKMILgX0PdbWWLVgQTMkD18qwaFM2OX4Fdy4U8JswtchGLx4vlZgCA7LeR5ph3vp6CBP1xBj5zQhMOxhB+kVlTEYHJ8HcNzc2AjFw8nNVbhTTQ2bHUFTEz8R0FRXx9RDMYggiuPjFXDOnmOQM77ZgAGP9QH7jvC0EMCxWeqK8e8sB81Bkzl4XMXzdkFagyE4reU8ramoWncAzHSiMMQEmPmVsJdNTXJQzGn0D0Dprt18MG4OhymHXKqujqmGzZI0NCimkaqrQXCYcjg4p08zOMWOm1j8aTnnTz3g4VAQJtV4haXhVm4ZrqUXwmRxrtbuRGA4u6Eh52kJqVG3J870nM92P/IoYDIfSjlPaZUEldGxLBPm3IqVb+Pj2UXTxVMQbqqtZephLkWqEYtZYOYmIcmtKFZxblW0YSObhipSsfCbh/Pq23aYa7cPSXnlzN78JhBPL97CXzB34dq0lPPUUj6jJra03F/R4wn01pHyu40/AHYfFqqntq6B3T7cj0tCg58/xM2H8dRU0JDN1EMjVU0Ng0ItjVjMpXJz2XBPsykUkCl5pOz6nr0Devfqpd6taE0NqSa1oII3+9+uYJxdBp6xO6A2t1EHSpHzCG9G+StvAaxKrz/e0/EXvD3ACJj4qRAO1Xly79ewqZnMnCJURkShITAQ0uBgFkeo6M8AlZSw+NN82pomJSk55IMxxRs3N5Yv7bSciVXz5glP9mCLKYfAHPKMQHqhSGCx2SWwdglk7jXMbpvgfkodGG7/SS1yHnKnCz2tBGA4diafASmZwj6X1UgF81aJmYUoiYxBw6Ug1IVHQJqsSAQJBoGiluIMB4ZiFOVGnGrIpUxGjACtP1L1p0O3CSZv2LBbBddjl5FZXKlk4al5sNwewCAZLP5KK1cz/UhzzlOiOwRDdIpUwjF6A/hig7DLsoYmARwaNGiVxY2UPORGxaGeg5SQyFyIsmYanSi34cCUn/RQBOKt27B79mysmj9feJJmW3zMofxmsKEZnhs/F8HRmcgprVKy4KQ7ePvbyxi3+C4G2FpphHS3n6IIpurqq3sOwEK946reYvt6DwBMVfSbRi1apE2rSTk4tJCAsvjLibnIirgJWeAlSEIuoyYsjA3bFIDpHowDQ7cfAYtsYW5iwiYPmvEQvOThcHu/2e7Jbh1mLNiO5NxS5JZVK5l3bDomrKZKoOo7dM617F/TRV0v1YE5Ws9MLRjOtcZ8BPwRwPVM0YrEdWrh0KQeFbu84+4iIewm6gICUevjC9EpT1bWoKSPwFTu/QH7V6zCgvmfCQ/eYksJDr1fUirCtA/Xo+9AY9jv/B355TUq7UhQIl5aHsNyIa4qyIGhlnKe6l7Kgbm8x0C17sSBodZgDPCurbDHtCIjtVCkUjkcHK4SeCb6Dq5djYPELwBirwsQ//En6rwvIs03BM4+sXhisH6rC55UwuG6cz0uByNNrDBkpDlO+cSjUCRWtgox9njFYNxXyRi15CR62RoJ3O3qUGG2XNuzL1bq7teoGoKj1wsw/RyoquZ6pGjzymu0gkOVwN+isvBLRCYuhibg/OUEuIckwSU4Bd8HpWDyxwuVnstofqZW4XAfpKJXv0HGmGixAvHpRSiprOWtSFTLbgzJ/ZYfCVca/q0sdFDT+yGgBD1TrcBwChr9HrDpB64nirZaWt9mOG5hGfjpSjr2XU7l4aw4+Aeef1H9giet4HBds1m2F4/2N8KcRc64XyUBZa3FlQ/hZJdUITmvEnObDf+PftkbFb0VrlWh+wSMdVLbBKffMGBCizSEVqGmFIiUAnJLt2quHFVwaCWa0XNj1M6rtwkOQcorFOHN91eh7yBj7DkUpAQno0iE5PwKXEkpxvtb/dnwv3rKEjTo6mF7T8c2geHUoyrnKRTVdgqcD1c44stFLQLbAzW0GQ6nouDwVDz97GQ8M3YWzl9OZSMaKYeDk/BgqD0TlYr3l/nhnfl5oMyXu+C2tMNfBz5bx51Z0dLsRMuhvD3K+fZcFAvMqp5Xbzccrqu79nkxFZnPXIfIxDwlONezShCRUYTDF8rwyrxGvPAR0PeptkHq1RcwVVFySSsUsSSQy3PaA4eWBptNnw13FfXlDsMhSET9Y5udbOj/fKUbcytOORwcStKo845HymE6rwnGlnI8OlB7SC98CPzW4rHO+9XSToGzaK8HXnpFecFTp8DhVERlj5ffssETQ82w43AIk31LOL4JebgQn4uvnCow1lqOkdPkIGVocrOBo4GpX3JnUrSU88TcKUVHlUMr7p82Gqk0r96pcLiunzkfBf3hZhj50hx4X4qD1M8fSbGpTDkcnLM378IzOhvWG6sw1howehOgWo46SLp6wEv/Uc55soqrOgXO+4sdlBY8dQkcDtJ3uz3R/3FDuNkthfjkKVQHBOF6TBpTDgfnt8g7oPU+0+zEGDsPGPoqQCBUQRo1DbDfwx1d0dKcemcoZ61HKJ4cOkwwr96lcKj7wV7eePP5MShyWA+Ruzuk/oEovxyGoOtpTDkEhxZCUR6y0+sOJi2UYNx8wMBErgSIAvnLLXIeOseNO6XsxrO9AZncarNfEkzenCaYV+9yOKHe3jAfMwYlTs6oOHsWNVHXIYuPhyz0CgpCr+HPiDQeDmWw+y+nYaNHNiZ8Wodxn0Jp+KcSavQtoXru3q/pFDifbj2EyVOn8QfvHjgvvoj7hw+j0t8fkpQUVrakEqacilIhoUgLvY4TV1NYek9w9oakwikoBSuO5sBkbgPGfPJw+B86AZjb4jeGaLETNxo2X4KiTYZMQzmnHEffJOg/NYz/IZFug1N2zJ3VVqicSSVM/jkKKoLT+uagEMQGR8EtJJmHs/tSMnYEJsNuXwFzpxdmKpSkKueJzy17EPAfrs9pD5zJ85fgO0fF74N1GxxSDs0WMDhlZfwUCk2lEKy6zExWoBL7BiAsMIoph4OzLeA2ysUN2PcrYDIPGG8LHD3Dq5+9KKqUdAqcVScvY+BgfXbMLodD9Vmq01KhidyqNiERsoJCfuq2saqKbZO7EbzyI0cgOfM7LgVGozmcPJGEp0F36d5B/CZ7Qet5gpMLBCu72qOcRQd+x+OD9FnO0+VwqOf0eFLyt9+i3MMD1WFhLO7U3bvHoFBLYGg/BWwK3B5r1+Pg7xE8nANX04Uk1Gzdzq9oNxwayl+3nAfjF8fyz4t2Cxw/Dw/MnDgRWd87MQCkEBq1xDdjWUvbBCbP2QVrZszAVLMpeOwJY0yat4fFnJD0YjU4hLsl9Y1MPVwlUBvlbPaOxfT/fs1Wnv508KDggN0Ch85IgOhJ4kXTLOC78VvccHVlQMJ27cKxpcsYFOOhQ7Fz9WrWwczsIkx8ZzH66pvA9VdfQadb2xDVykBZOC2Y1ATnPzvcMOyZZ/H1OnuV5dJug0MXJCotBT07am5qyh4V0NHRYU8fz506lUFRNV/tGxyPoaPMYWk1V+ula7QiLDyjWC0cB3cfjHvNHFOmTuOHbVXAuxWOqg5ou2+LkycG6hvBYcMmQYrf2vfTiqr4GjJl4M4+MXhnjg1GPDtaqx8I+dvAIQg0AWm1wBGDDYxw6pR2vxfol5TPCuxzV2zEk0MN4aJhNVdz2H8rOFzHqTRCvwFGP1zU2gOvVNL4Zr87DEc8i2XLV6iMK9wxVbV/SzjchRAYAkSguN8E496jZx7emDwVb0+zUKrTcJ/R1P6t4XAXR78mZ2xsjJ27dqGgsBArVq9lz5h39IeH/hFwCBL9VMP69euhb2CA7Tt2ah20OcCq2n8MHFUX19F9/wcLk2Tm1rw+BAAAAABJRU5ErkJggg==;imageBorder=#00CC00;strokeWidth=2;fontColor=#000000;opacity=0;" vertex="1" parent="1">
          <mxGeometry x="1318" y="628" width="52.45" height="61.31" as="geometry" />
        </mxCell>
        <mxCell id="O6xlAhihPvjD9R0icvd0-33" value="- Ocp-Apim-Subscription-Key&lt;br style=&quot;border-color: var(--border-color);&quot;&gt;- Authorization bearer (token que se envia en la cabecera)" style="verticalLabelPosition=bottom;aspect=fixed;html=1;verticalAlign=top;strokeColor=none;align=center;outlineConnect=0;shape=mxgraph.citrix.role_security;fillColor=#CCCCCC;gradientColor=#000000;gradientDirection=south;whiteSpace=wrap;fontColor=#000000;" vertex="1" parent="1">
          <mxGeometry x="-315" y="798" width="38" height="38" as="geometry" />
        </mxCell>
        <mxCell id="U8brVzi0TDkuM6EAinhS-18" value="Servicios Externos" style="rounded=1;whiteSpace=wrap;html=1;strokeColor=#000000;strokeWidth=1;" vertex="1" parent="1">
          <mxGeometry x="2230" y="613.0000000000001" width="120" height="60" as="geometry" />
        </mxCell>
        <mxCell id="U8brVzi0TDkuM6EAinhS-19" value="" style="endArrow=none;dashed=1;html=1;rounded=0;fontColor=#000000;" edge="1" parent="1">
          <mxGeometry width="50" height="50" relative="1" as="geometry">
            <mxPoint x="2033" y="1726" as="sourcePoint" />
            <mxPoint x="2033" y="530" as="targetPoint" />
          </mxGeometry>
        </mxCell>
        <mxCell id="bhD-8CI2sUDDv10Agr4R-4" style="edgeStyle=orthogonalEdgeStyle;rounded=0;orthogonalLoop=1;jettySize=auto;html=1;exitX=1;exitY=0.5;exitDx=0;exitDy=0;strokeColor=#000000;" edge="1" parent="1" source="bhD-8CI2sUDDv10Agr4R-2">
          <mxGeometry relative="1" as="geometry">
            <Array as="points">
              <mxPoint x="1655" y="842" />
              <mxPoint x="1891" y="842" />
            </Array>
            <mxPoint x="1891.034482758621" y="1177" as="targetPoint" />
          </mxGeometry>
        </mxCell>
        <mxCell id="bhD-8CI2sUDDv10Agr4R-2" value="API NE Gestión Especialidades" style="shape=image;verticalLabelPosition=bottom;labelBackgroundColor=none;verticalAlign=top;aspect=fixed;imageAspect=0;image=data:image/png,iVBORw0KGgoAAAANSUhEUgAAAEcAAABTCAYAAADN9xqSAAAWgUlEQVR4Ae2cC1hUVdfHEczXt7yVClaKpGmUKZSZVBaaSVmiZKWYlrz1ipj3VDAtvN/iYmqppEmmiKaFIlcBUUAQERCQO4LIHYHhMswwXOb/PWuP58hhZpjh+lTvx/OsZ885M3POPj/+a+111t5ndPD/f2oJ6Kh95y/0hpeXFxw3ber2Hv2l4RAUExMTTJ9hiVGjn0N8fHy3AvpLwlFAMcUHljMREn4dBRVibNqxGytXrvrfhcNBsZw5E1cjo1FWLUVJpYTBiU3JguHw4ZBKpd0G6C+hHAbF1BSWM2fhWnQMqiQyVIjrBHDuldVg1uyP4enp+b8Bh6CYmppi5qxZiI6JRa2sATXSerVwPL188dZb5v9sOByUWbOsEBMbC1lDI6T1jRrh5JRWY5jhcOTk5HQLoG51Kw6KlZUVYmPj0NDYhPrGpjbBWbtxMxwc1v+z4Lz33nsgKHFx8WiSy9HYJG8XnMiEdBgadk9g7hblUBC1trZm/225HB2Ck1lUCYvpM0Aq7Oq/LodDQ6+RkRGKioo6Dc6BX06wke1vD2fVqlXYu3ev4Do64laknJSCCujrG/DABQfvxI0uVQ6l+2ZmZkqJW2fAWbLaocvvt7oUzssTJiM0NFTpfynvQEDmlBMQGc8Cs9LBO3FHl8FZt/UULK0UQVhVf9s7WnFwEu+V480p78Df31/V4TtlX5fAKS2XYpDBwyCsqqedAcfF7XiXBuYugTNlxko4u7iqYsLvoyG9PUlgc+VEpeVjqKFhlwVmreFIa2vheegQNi1fziwnNZW/0OYvzvvHY4TxRKUg3Pwz3OuOwonNuY9Pv1gMV9fW/xHc+draagUnPiICxsOGYc6kSdjw4YfMjAwMYGNpiZaQhowwh7XjaYRmlkAkkbH+pGek4SOHLMjqhOUGcq223j40Vw7BORMYwQphbb1wbT6vEc4xJydMNDbGLWcXVJw+g4o//mRt+YkTOGxrCwZpxgwGyWH7KRiafIwtfkm8FVVJYbPpFmy+i4Z3YLigTzRqdRROdFYJJrw2SeWoKDhZOzZahZMaFwfTkSNRfNIDlf4BqImMhPjGDdZWXw2D6OJFlP1yDAcX2mC4vgH+3W84VrpHYKv/bd6cf/WFy48/4ubFybDdFqPUxc6As2H3Pnz2+UKlY3d0h1o4FGNMn30WMT/8AAIhjouHNCMDddnZzCQpqQwSB2j7lnTM2XoD2wNu87brQhhm26dDFt0buKkDyzW5KCjKE/SZXKstJYuWbkXKuZyUi8H6BhCJRIJjd3RDLZxDO3Zg0fTpqAoOQW1SEupyc1FfWoqGigo0lJVBVlTEYJGakk4G4wP7Wmz3S8HOwGTebDZFM8UQGDI3t61w8wgR9JlGrY7Cicgoxlwb204PzGrhkGoiXFyZG5FaCEijWAy5TIYmqRSNlZWQ5eczcIscK7Dyt1zsCkzmbcex8/jO5SSDwsEpCDWC5Zp7Aji0Qa6lbbFLlXIIzhGvILw4dpzSsTuyQyWcotxcDHn8cRZTyJ1INQRDXl8PyOWQNzYyUKSkoHN38MmWKuy5lMyb08UozLbPQPW1AQI4BMl2SzhutphiIdfqKJzQ1EKMe/kVREVFdYSH4Lsq4UQFBbERiuKJAI5MBnlTE+QNDQyOuKAUFqvrsP1iBpyDUnhbsiMMIec+UgJDcLw9bLD5R+H9lhzoFDgrHHdhke1iwQV2ZKNVODRsU0yhQEwqaayuZi7VJJGw2LP/cCFs99+Ha3AKb07HL8BhzzmVYAgOBefJyyuVch5yLU0Fdqohq3MrUo5P7B30699fqwRUG2gq4dBINaBPHxS6/cyGcKae7GwWhCn2EKi7sXcxfa0UrpfSsC8kVWEBscydysKHqIVDgDa7nlTKeaiM0VE4l27nw9L6cxw6dEiba9f4GZVw6Fvrv/gCW62tWcJHIxblNzR8k4rIlm0rx7oT+TgQmsbbGudAXPD4olUwBEddziOpb31qRpNyCI7LifMYP+FVjReuzQfUwqEvL5wxA++OH4+EffuYgijfIQv8LRHW26px8Eo6b85nQrB0a5BGMASH7CP7dOTcyxf0kVyrtXkrbeD4JtzD6Bde7JR59VbhUM/9T59m91UbP/kERe7uKPX8AzPWSuDkn43DYekKC03Ch/YZoKGau3hNrfsvG3Dg+FUBHHKtzoDz33WbsGzFSsGx27OhEQ4dlGLQpqVLGaSv7dyx5EAFjoZn8Ga/9xLOHv9KazAEjuKSxaoSpT5LZA1qZzy1VY7H1SQM0jfocGDWCg53BQF+V9n905GrWTgWkcns0IUQLPzuRpvAcKpavi0Y12ISuMOzllxL3Vy5tnDOx+XCfPqsDs+rtwnOiHGzMGeNO45HZjFzu5KCWfNvIfMb43bBCTxjjW9+iBDAoduJzoCz+bAnXp/0luDYbd3QGo7LYX88OdoCHtfv8Gb+rTeWWmxGk14PyJ/SBfYrgi2nDE0t5TwWK4tRXVMn6De5lqpVFm1RztmYHAwfOQqpaopyghOq2dAKTlW1FAOGmMLxl1CcvpHNbP3pMIyxi4GZVW9U/UsX0NGBvK8e5KP1gFPaQ9q57yjO+UYKutfQ1NQpcOYttcc6ewfBsduyoRWcOV/uxHiLr3HuZg5v45ak4FFbU+jY6qDwsR4MDgFikProQv6KHuCtGVKirxkrhrXsdGWtTGl9jirlpCVk4F70LeRExSP8VjZoKKeYQ8o56BeNp4cZtjswa4STklGEf/c3wqlrGfgz7i4ziy0XMdzOmYEhOI4TdFHfU08AiIF6tAeaZvcEAluHxHKeu3cEfOhGtPnKLlq81BxO2p1C1PkHQPrHnxD/ehy1pzxR7+ePwtAIhEanMzinorNh9va77Z5X1wjH+JW5mLf6CLxv5TJz9onDGLtE6Nr25uEMWaADSU+Fajj1cK1cTxfo3wPyhXpApGpIipwnWACHch51cHIy70Hm44syJyeUurii7OgvqDh9GiIvL0j8/FAXeAklIWG4dC0Za/cew9vvWAiOre1Gq3DcToRC/xlz+Cbm8Way7Ab62k7mwZByyKKHqFDOAzdjrtZLD+jXA/KVukojG+U8VCWU1Qu7XVUr49cEcsq5m1uCeh8flGzZitJ9+1H263EGpTLwEqrDw1ETHQ3xzZuQXruGuuAQlAeFYtCgwe2avlELh4LwoGFm2HokBIG385l9/L0fRiw5qgSG4FhP1YH4X60DYpB69wQG9ACchSpas8sHodfiBHTq6huV4EiCQlC+53teMaQWuvcjKLWJiZCkPrj/y8pi94B18fHYv3I1zF54AV7u7oLja9pQC2fBEle8PHUpgpPzmbmH3cbYxRnQsx2gEk7vL3VQ84hq1+JcrHkr76MHuZEu4KaAFHrOCmuchKMW1XlKH6wmJeWUZORAevoMSnbuwn03N1ScPQdSDIGR3E5mtW1ZXh6rHtSXlLCWtqVZWQh0c8OsSZNYXdzzp580cWHvq4RDQbjPQGOcDU8H1UnIXlp+Df1s31MJhnOtE8aaldMcEHvdVw+Y0BOyk71hueYuyiqqBB2vltSzpbYERxwWAZGzq0I15E7eF5krkWKolEt1bVbOraxCY2UVGkQiRb27oIABos9F/vwz5pibsykldw2TgSrhmLyxEPOWHUR4ehGzL38KwKgl51oFQ4DMrHT4nEcJQrP4o/K9PrpwmbMXx09cEcCh2wlapJ1fLEKjnx9KNm9hsYYCMKmGxZeMDMgKClgBrrGmBlSMozo3tVSgYxMCeXnM5UhllX5+SNi3H59NmcIqD4ITNttQgnPyXBQGDpuIyMxiZp6RKRhrl4RHbIdohEOAWuY8KkGoAZU6+GXM+Ex5pWhJlQSFBWVovOiD4q3bcP+ng8ylqq9cYXGGVNO8UkllXKpzU82bAaqsYqoi9yKYFKMILgX0PdbWWLVgQTMkD18qwaFM2OX4Fdy4U8JswtchGLx4vlZgCA7LeR5ph3vp6CBP1xBj5zQhMOxhB+kVlTEYHJ8HcNzc2AjFw8nNVbhTTQ2bHUFTEz8R0FRXx9RDMYggiuPjFXDOnmOQM77ZgAGP9QH7jvC0EMCxWeqK8e8sB81Bkzl4XMXzdkFagyE4reU8ramoWncAzHSiMMQEmPmVsJdNTXJQzGn0D0Dprt18MG4OhymHXKqujqmGzZI0NCimkaqrQXCYcjg4p08zOMWOm1j8aTnnTz3g4VAQJtV4haXhVm4ZrqUXwmRxrtbuRGA4u6Eh52kJqVG3J870nM92P/IoYDIfSjlPaZUEldGxLBPm3IqVb+Pj2UXTxVMQbqqtZephLkWqEYtZYOYmIcmtKFZxblW0YSObhipSsfCbh/Pq23aYa7cPSXnlzN78JhBPL97CXzB34dq0lPPUUj6jJra03F/R4wn01pHyu40/AHYfFqqntq6B3T7cj0tCg58/xM2H8dRU0JDN1EMjVU0Ng0ItjVjMpXJz2XBPsykUkCl5pOz6nr0Devfqpd6taE0NqSa1oII3+9+uYJxdBp6xO6A2t1EHSpHzCG9G+StvAaxKrz/e0/EXvD3ACJj4qRAO1Xly79ewqZnMnCJURkShITAQ0uBgFkeo6M8AlZSw+NN82pomJSk55IMxxRs3N5Yv7bSciVXz5glP9mCLKYfAHPKMQHqhSGCx2SWwdglk7jXMbpvgfkodGG7/SS1yHnKnCz2tBGA4diafASmZwj6X1UgF81aJmYUoiYxBw6Ug1IVHQJqsSAQJBoGiluIMB4ZiFOVGnGrIpUxGjACtP1L1p0O3CSZv2LBbBddjl5FZXKlk4al5sNwewCAZLP5KK1cz/UhzzlOiOwRDdIpUwjF6A/hig7DLsoYmARwaNGiVxY2UPORGxaGeg5SQyFyIsmYanSi34cCUn/RQBOKt27B79mysmj9feJJmW3zMofxmsKEZnhs/F8HRmcgprVKy4KQ7ePvbyxi3+C4G2FpphHS3n6IIpurqq3sOwEK946reYvt6DwBMVfSbRi1apE2rSTk4tJCAsvjLibnIirgJWeAlSEIuoyYsjA3bFIDpHowDQ7cfAYtsYW5iwiYPmvEQvOThcHu/2e7Jbh1mLNiO5NxS5JZVK5l3bDomrKZKoOo7dM617F/TRV0v1YE5Ws9MLRjOtcZ8BPwRwPVM0YrEdWrh0KQeFbu84+4iIewm6gICUevjC9EpT1bWoKSPwFTu/QH7V6zCgvmfCQ/eYksJDr1fUirCtA/Xo+9AY9jv/B355TUq7UhQIl5aHsNyIa4qyIGhlnKe6l7Kgbm8x0C17sSBodZgDPCurbDHtCIjtVCkUjkcHK4SeCb6Dq5djYPELwBirwsQ//En6rwvIs03BM4+sXhisH6rC55UwuG6cz0uByNNrDBkpDlO+cSjUCRWtgox9njFYNxXyRi15CR62RoJ3O3qUGG2XNuzL1bq7teoGoKj1wsw/RyoquZ6pGjzymu0gkOVwN+isvBLRCYuhibg/OUEuIckwSU4Bd8HpWDyxwuVnstofqZW4XAfpKJXv0HGmGixAvHpRSiprOWtSFTLbgzJ/ZYfCVca/q0sdFDT+yGgBD1TrcBwChr9HrDpB64nirZaWt9mOG5hGfjpSjr2XU7l4aw4+Aeef1H9giet4HBds1m2F4/2N8KcRc64XyUBZa3FlQ/hZJdUITmvEnObDf+PftkbFb0VrlWh+wSMdVLbBKffMGBCizSEVqGmFIiUAnJLt2quHFVwaCWa0XNj1M6rtwkOQcorFOHN91eh7yBj7DkUpAQno0iE5PwKXEkpxvtb/dnwv3rKEjTo6mF7T8c2geHUoyrnKRTVdgqcD1c44stFLQLbAzW0GQ6nouDwVDz97GQ8M3YWzl9OZSMaKYeDk/BgqD0TlYr3l/nhnfl5oMyXu+C2tMNfBz5bx51Z0dLsRMuhvD3K+fZcFAvMqp5Xbzccrqu79nkxFZnPXIfIxDwlONezShCRUYTDF8rwyrxGvPAR0PeptkHq1RcwVVFySSsUsSSQy3PaA4eWBptNnw13FfXlDsMhSET9Y5udbOj/fKUbcytOORwcStKo845HymE6rwnGlnI8OlB7SC98CPzW4rHO+9XSToGzaK8HXnpFecFTp8DhVERlj5ffssETQ82w43AIk31LOL4JebgQn4uvnCow1lqOkdPkIGVocrOBo4GpX3JnUrSU88TcKUVHlUMr7p82Gqk0r96pcLiunzkfBf3hZhj50hx4X4qD1M8fSbGpTDkcnLM378IzOhvWG6sw1howehOgWo46SLp6wEv/Uc55soqrOgXO+4sdlBY8dQkcDtJ3uz3R/3FDuNkthfjkKVQHBOF6TBpTDgfnt8g7oPU+0+zEGDsPGPoqQCBUQRo1DbDfwx1d0dKcemcoZ61HKJ4cOkwwr96lcKj7wV7eePP5MShyWA+Ruzuk/oEovxyGoOtpTDkEhxZCUR6y0+sOJi2UYNx8wMBErgSIAvnLLXIeOseNO6XsxrO9AZncarNfEkzenCaYV+9yOKHe3jAfMwYlTs6oOHsWNVHXIYuPhyz0CgpCr+HPiDQeDmWw+y+nYaNHNiZ8Wodxn0Jp+KcSavQtoXru3q/pFDifbj2EyVOn8QfvHjgvvoj7hw+j0t8fkpQUVrakEqacilIhoUgLvY4TV1NYek9w9oakwikoBSuO5sBkbgPGfPJw+B86AZjb4jeGaLETNxo2X4KiTYZMQzmnHEffJOg/NYz/IZFug1N2zJ3VVqicSSVM/jkKKoLT+uagEMQGR8EtJJmHs/tSMnYEJsNuXwFzpxdmKpSkKueJzy17EPAfrs9pD5zJ85fgO0fF74N1GxxSDs0WMDhlZfwUCk2lEKy6zExWoBL7BiAsMIoph4OzLeA2ysUN2PcrYDIPGG8LHD3Dq5+9KKqUdAqcVScvY+BgfXbMLodD9Vmq01KhidyqNiERsoJCfuq2saqKbZO7EbzyI0cgOfM7LgVGozmcPJGEp0F36d5B/CZ7Qet5gpMLBCu72qOcRQd+x+OD9FnO0+VwqOf0eFLyt9+i3MMD1WFhLO7U3bvHoFBLYGg/BWwK3B5r1+Pg7xE8nANX04Uk1Gzdzq9oNxwayl+3nAfjF8fyz4t2Cxw/Dw/MnDgRWd87MQCkEBq1xDdjWUvbBCbP2QVrZszAVLMpeOwJY0yat4fFnJD0YjU4hLsl9Y1MPVwlUBvlbPaOxfT/fs1Wnv508KDggN0Ch85IgOhJ4kXTLOC78VvccHVlQMJ27cKxpcsYFOOhQ7Fz9WrWwczsIkx8ZzH66pvA9VdfQadb2xDVykBZOC2Y1ATnPzvcMOyZZ/H1OnuV5dJug0MXJCotBT07am5qyh4V0NHRYU8fz506lUFRNV/tGxyPoaPMYWk1V+ula7QiLDyjWC0cB3cfjHvNHFOmTuOHbVXAuxWOqg5ou2+LkycG6hvBYcMmQYrf2vfTiqr4GjJl4M4+MXhnjg1GPDtaqx8I+dvAIQg0AWm1wBGDDYxw6pR2vxfol5TPCuxzV2zEk0MN4aJhNVdz2H8rOFzHqTRCvwFGP1zU2gOvVNL4Zr87DEc8i2XLV6iMK9wxVbV/SzjchRAYAkSguN8E496jZx7emDwVb0+zUKrTcJ/R1P6t4XAXR78mZ2xsjJ27dqGgsBArVq9lz5h39IeH/hFwCBL9VMP69euhb2CA7Tt2ah20OcCq2n8MHFUX19F9/wcLk2Tm1rw+BAAAAABJRU5ErkJggg==;imageBorder=#00CC00;strokeWidth=2;fontColor=#000000;opacity=0;" vertex="1" parent="1">
          <mxGeometry x="1314" y="809.69" width="52.45" height="61.31" as="geometry" />
        </mxCell>
        <mxCell id="bhD-8CI2sUDDv10Agr4R-5" value="Lista de especialidades" style="edgeLabel;html=1;align=center;verticalAlign=middle;resizable=0;points=[];labelBackgroundColor=none;fontColor=#000000;" connectable="0" vertex="1" parent="1">
          <mxGeometry x="1497.9999999999998" y="835.9966666666666" as="geometry" />
        </mxCell>
        <mxCell id="bhD-8CI2sUDDv10Agr4R-8" value="- Ocp-Apim-Subscription-Key&lt;br style=&quot;border-color: var(--border-color);&quot;&gt;- Authorization bearer (token que se envia en la cabecera)" style="verticalLabelPosition=bottom;aspect=fixed;html=1;verticalAlign=top;strokeColor=none;align=center;outlineConnect=0;shape=mxgraph.citrix.role_security;fillColor=#CCCCCC;gradientColor=#000000;gradientDirection=south;whiteSpace=wrap;fontColor=#000000;" vertex="1" parent="1">
          <mxGeometry x="-319" y="978" width="38" height="38" as="geometry" />
        </mxCell>
        <mxCell id="CrO_3HtuC5xtgaqPoHJ8-10" style="edgeStyle=orthogonalEdgeStyle;rounded=0;orthogonalLoop=1;jettySize=auto;html=1;exitX=1;exitY=0.5;exitDx=0;exitDy=0;entryX=0.551;entryY=-0.033;entryDx=0;entryDy=0;entryPerimeter=0;" edge="1" parent="1">
          <mxGeometry relative="1" as="geometry">
            <mxPoint x="1891.4479999999994" y="1174.8880000000001" as="targetPoint" />
            <mxPoint x="1366.4500000000003" y="1021.9950000000001" as="sourcePoint" />
          </mxGeometry>
        </mxCell>
        <mxCell id="CrO_3HtuC5xtgaqPoHJ8-11" style="edgeStyle=orthogonalEdgeStyle;rounded=0;orthogonalLoop=1;jettySize=auto;html=1;exitX=1;exitY=0.5;exitDx=0;exitDy=0;entryX=0.027;entryY=0.569;entryDx=0;entryDy=0;entryPerimeter=0;" edge="1" parent="1" source="bhD-8CI2sUDDv10Agr4R-15">
          <mxGeometry relative="1" as="geometry">
            <Array as="points">
              <mxPoint x="1616" y="1215" />
              <mxPoint x="1866" y="1215" />
            </Array>
            <mxPoint x="1866.2959999999998" y="1213.4159999999997" as="targetPoint" />
          </mxGeometry>
        </mxCell>
        <mxCell id="bhD-8CI2sUDDv10Agr4R-15" value="API NE Gestión Reservas" style="shape=image;verticalLabelPosition=bottom;labelBackgroundColor=none;verticalAlign=top;aspect=fixed;imageAspect=0;image=data:image/png,iVBORw0KGgoAAAANSUhEUgAAAEcAAABTCAYAAADN9xqSAAAWgUlEQVR4Ae2cC1hUVdfHEczXt7yVClaKpGmUKZSZVBaaSVmiZKWYlrz1ipj3VDAtvN/iYmqppEmmiKaFIlcBUUAQERCQO4LIHYHhMswwXOb/PWuP58hhZpjh+lTvx/OsZ885M3POPj/+a+111t5ndPD/f2oJ6Kh95y/0hpeXFxw3ber2Hv2l4RAUExMTTJ9hiVGjn0N8fHy3AvpLwlFAMcUHljMREn4dBRVibNqxGytXrvrfhcNBsZw5E1cjo1FWLUVJpYTBiU3JguHw4ZBKpd0G6C+hHAbF1BSWM2fhWnQMqiQyVIjrBHDuldVg1uyP4enp+b8Bh6CYmppi5qxZiI6JRa2sATXSerVwPL188dZb5v9sOByUWbOsEBMbC1lDI6T1jRrh5JRWY5jhcOTk5HQLoG51Kw6KlZUVYmPj0NDYhPrGpjbBWbtxMxwc1v+z4Lz33nsgKHFx8WiSy9HYJG8XnMiEdBgadk9g7hblUBC1trZm/225HB2Ck1lUCYvpM0Aq7Oq/LodDQ6+RkRGKioo6Dc6BX06wke1vD2fVqlXYu3ev4Do64laknJSCCujrG/DABQfvxI0uVQ6l+2ZmZkqJW2fAWbLaocvvt7oUzssTJiM0NFTpfynvQEDmlBMQGc8Cs9LBO3FHl8FZt/UULK0UQVhVf9s7WnFwEu+V480p78Df31/V4TtlX5fAKS2XYpDBwyCsqqedAcfF7XiXBuYugTNlxko4u7iqYsLvoyG9PUlgc+VEpeVjqKFhlwVmreFIa2vheegQNi1fziwnNZW/0OYvzvvHY4TxRKUg3Pwz3OuOwonNuY9Pv1gMV9fW/xHc+draagUnPiICxsOGYc6kSdjw4YfMjAwMYGNpiZaQhowwh7XjaYRmlkAkkbH+pGek4SOHLMjqhOUGcq223j40Vw7BORMYwQphbb1wbT6vEc4xJydMNDbGLWcXVJw+g4o//mRt+YkTOGxrCwZpxgwGyWH7KRiafIwtfkm8FVVJYbPpFmy+i4Z3YLigTzRqdRROdFYJJrw2SeWoKDhZOzZahZMaFwfTkSNRfNIDlf4BqImMhPjGDdZWXw2D6OJFlP1yDAcX2mC4vgH+3W84VrpHYKv/bd6cf/WFy48/4ubFybDdFqPUxc6As2H3Pnz2+UKlY3d0h1o4FGNMn30WMT/8AAIhjouHNCMDddnZzCQpqQwSB2j7lnTM2XoD2wNu87brQhhm26dDFt0buKkDyzW5KCjKE/SZXKstJYuWbkXKuZyUi8H6BhCJRIJjd3RDLZxDO3Zg0fTpqAoOQW1SEupyc1FfWoqGigo0lJVBVlTEYJGakk4G4wP7Wmz3S8HOwGTebDZFM8UQGDI3t61w8wgR9JlGrY7Cicgoxlwb204PzGrhkGoiXFyZG5FaCEijWAy5TIYmqRSNlZWQ5eczcIscK7Dyt1zsCkzmbcex8/jO5SSDwsEpCDWC5Zp7Aji0Qa6lbbFLlXIIzhGvILw4dpzSsTuyQyWcotxcDHn8cRZTyJ1INQRDXl8PyOWQNzYyUKSkoHN38MmWKuy5lMyb08UozLbPQPW1AQI4BMl2SzhutphiIdfqKJzQ1EKMe/kVREVFdYSH4Lsq4UQFBbERiuKJAI5MBnlTE+QNDQyOuKAUFqvrsP1iBpyDUnhbsiMMIec+UgJDcLw9bLD5R+H9lhzoFDgrHHdhke1iwQV2ZKNVODRsU0yhQEwqaayuZi7VJJGw2LP/cCFs99+Ha3AKb07HL8BhzzmVYAgOBefJyyuVch5yLU0Fdqohq3MrUo5P7B30699fqwRUG2gq4dBINaBPHxS6/cyGcKae7GwWhCn2EKi7sXcxfa0UrpfSsC8kVWEBscydysKHqIVDgDa7nlTKeaiM0VE4l27nw9L6cxw6dEiba9f4GZVw6Fvrv/gCW62tWcJHIxblNzR8k4rIlm0rx7oT+TgQmsbbGudAXPD4olUwBEddziOpb31qRpNyCI7LifMYP+FVjReuzQfUwqEvL5wxA++OH4+EffuYgijfIQv8LRHW26px8Eo6b85nQrB0a5BGMASH7CP7dOTcyxf0kVyrtXkrbeD4JtzD6Bde7JR59VbhUM/9T59m91UbP/kERe7uKPX8AzPWSuDkn43DYekKC03Ch/YZoKGau3hNrfsvG3Dg+FUBHHKtzoDz33WbsGzFSsGx27OhEQ4dlGLQpqVLGaSv7dyx5EAFjoZn8Ga/9xLOHv9KazAEjuKSxaoSpT5LZA1qZzy1VY7H1SQM0jfocGDWCg53BQF+V9n905GrWTgWkcns0IUQLPzuRpvAcKpavi0Y12ISuMOzllxL3Vy5tnDOx+XCfPqsDs+rtwnOiHGzMGeNO45HZjFzu5KCWfNvIfMb43bBCTxjjW9+iBDAoduJzoCz+bAnXp/0luDYbd3QGo7LYX88OdoCHtfv8Gb+rTeWWmxGk14PyJ/SBfYrgi2nDE0t5TwWK4tRXVMn6De5lqpVFm1RztmYHAwfOQqpaopyghOq2dAKTlW1FAOGmMLxl1CcvpHNbP3pMIyxi4GZVW9U/UsX0NGBvK8e5KP1gFPaQ9q57yjO+UYKutfQ1NQpcOYttcc6ewfBsduyoRWcOV/uxHiLr3HuZg5v45ak4FFbU+jY6qDwsR4MDgFikProQv6KHuCtGVKirxkrhrXsdGWtTGl9jirlpCVk4F70LeRExSP8VjZoKKeYQ8o56BeNp4cZtjswa4STklGEf/c3wqlrGfgz7i4ziy0XMdzOmYEhOI4TdFHfU08AiIF6tAeaZvcEAluHxHKeu3cEfOhGtPnKLlq81BxO2p1C1PkHQPrHnxD/ehy1pzxR7+ePwtAIhEanMzinorNh9va77Z5X1wjH+JW5mLf6CLxv5TJz9onDGLtE6Nr25uEMWaADSU+Fajj1cK1cTxfo3wPyhXpApGpIipwnWACHch51cHIy70Hm44syJyeUurii7OgvqDh9GiIvL0j8/FAXeAklIWG4dC0Za/cew9vvWAiOre1Gq3DcToRC/xlz+Cbm8Way7Ab62k7mwZByyKKHqFDOAzdjrtZLD+jXA/KVukojG+U8VCWU1Qu7XVUr49cEcsq5m1uCeh8flGzZitJ9+1H263EGpTLwEqrDw1ETHQ3xzZuQXruGuuAQlAeFYtCgwe2avlELh4LwoGFm2HokBIG385l9/L0fRiw5qgSG4FhP1YH4X60DYpB69wQG9ACchSpas8sHodfiBHTq6huV4EiCQlC+53teMaQWuvcjKLWJiZCkPrj/y8pi94B18fHYv3I1zF54AV7u7oLja9pQC2fBEle8PHUpgpPzmbmH3cbYxRnQsx2gEk7vL3VQ84hq1+JcrHkr76MHuZEu4KaAFHrOCmuchKMW1XlKH6wmJeWUZORAevoMSnbuwn03N1ScPQdSDIGR3E5mtW1ZXh6rHtSXlLCWtqVZWQh0c8OsSZNYXdzzp580cWHvq4RDQbjPQGOcDU8H1UnIXlp+Df1s31MJhnOtE8aaldMcEHvdVw+Y0BOyk71hueYuyiqqBB2vltSzpbYERxwWAZGzq0I15E7eF5krkWKolEt1bVbOraxCY2UVGkQiRb27oIABos9F/vwz5pibsykldw2TgSrhmLyxEPOWHUR4ehGzL38KwKgl51oFQ4DMrHT4nEcJQrP4o/K9PrpwmbMXx09cEcCh2wlapJ1fLEKjnx9KNm9hsYYCMKmGxZeMDMgKClgBrrGmBlSMozo3tVSgYxMCeXnM5UhllX5+SNi3H59NmcIqD4ITNttQgnPyXBQGDpuIyMxiZp6RKRhrl4RHbIdohEOAWuY8KkGoAZU6+GXM+Ex5pWhJlQSFBWVovOiD4q3bcP+ng8ylqq9cYXGGVNO8UkllXKpzU82bAaqsYqoi9yKYFKMILgX0PdbWWLVgQTMkD18qwaFM2OX4Fdy4U8JswtchGLx4vlZgCA7LeR5ph3vp6CBP1xBj5zQhMOxhB+kVlTEYHJ8HcNzc2AjFw8nNVbhTTQ2bHUFTEz8R0FRXx9RDMYggiuPjFXDOnmOQM77ZgAGP9QH7jvC0EMCxWeqK8e8sB81Bkzl4XMXzdkFagyE4reU8ramoWncAzHSiMMQEmPmVsJdNTXJQzGn0D0Dprt18MG4OhymHXKqujqmGzZI0NCimkaqrQXCYcjg4p08zOMWOm1j8aTnnTz3g4VAQJtV4haXhVm4ZrqUXwmRxrtbuRGA4u6Eh52kJqVG3J870nM92P/IoYDIfSjlPaZUEldGxLBPm3IqVb+Pj2UXTxVMQbqqtZephLkWqEYtZYOYmIcmtKFZxblW0YSObhipSsfCbh/Pq23aYa7cPSXnlzN78JhBPL97CXzB34dq0lPPUUj6jJra03F/R4wn01pHyu40/AHYfFqqntq6B3T7cj0tCg58/xM2H8dRU0JDN1EMjVU0Ng0ItjVjMpXJz2XBPsykUkCl5pOz6nr0Devfqpd6taE0NqSa1oII3+9+uYJxdBp6xO6A2t1EHSpHzCG9G+StvAaxKrz/e0/EXvD3ACJj4qRAO1Xly79ewqZnMnCJURkShITAQ0uBgFkeo6M8AlZSw+NN82pomJSk55IMxxRs3N5Yv7bSciVXz5glP9mCLKYfAHPKMQHqhSGCx2SWwdglk7jXMbpvgfkodGG7/SS1yHnKnCz2tBGA4diafASmZwj6X1UgF81aJmYUoiYxBw6Ug1IVHQJqsSAQJBoGiluIMB4ZiFOVGnGrIpUxGjACtP1L1p0O3CSZv2LBbBddjl5FZXKlk4al5sNwewCAZLP5KK1cz/UhzzlOiOwRDdIpUwjF6A/hig7DLsoYmARwaNGiVxY2UPORGxaGeg5SQyFyIsmYanSi34cCUn/RQBOKt27B79mysmj9feJJmW3zMofxmsKEZnhs/F8HRmcgprVKy4KQ7ePvbyxi3+C4G2FpphHS3n6IIpurqq3sOwEK946reYvt6DwBMVfSbRi1apE2rSTk4tJCAsvjLibnIirgJWeAlSEIuoyYsjA3bFIDpHowDQ7cfAYtsYW5iwiYPmvEQvOThcHu/2e7Jbh1mLNiO5NxS5JZVK5l3bDomrKZKoOo7dM617F/TRV0v1YE5Ws9MLRjOtcZ8BPwRwPVM0YrEdWrh0KQeFbu84+4iIewm6gICUevjC9EpT1bWoKSPwFTu/QH7V6zCgvmfCQ/eYksJDr1fUirCtA/Xo+9AY9jv/B355TUq7UhQIl5aHsNyIa4qyIGhlnKe6l7Kgbm8x0C17sSBodZgDPCurbDHtCIjtVCkUjkcHK4SeCb6Dq5djYPELwBirwsQ//En6rwvIs03BM4+sXhisH6rC55UwuG6cz0uByNNrDBkpDlO+cSjUCRWtgox9njFYNxXyRi15CR62RoJ3O3qUGG2XNuzL1bq7teoGoKj1wsw/RyoquZ6pGjzymu0gkOVwN+isvBLRCYuhibg/OUEuIckwSU4Bd8HpWDyxwuVnstofqZW4XAfpKJXv0HGmGixAvHpRSiprOWtSFTLbgzJ/ZYfCVca/q0sdFDT+yGgBD1TrcBwChr9HrDpB64nirZaWt9mOG5hGfjpSjr2XU7l4aw4+Aeef1H9giet4HBds1m2F4/2N8KcRc64XyUBZa3FlQ/hZJdUITmvEnObDf+PftkbFb0VrlWh+wSMdVLbBKffMGBCizSEVqGmFIiUAnJLt2quHFVwaCWa0XNj1M6rtwkOQcorFOHN91eh7yBj7DkUpAQno0iE5PwKXEkpxvtb/dnwv3rKEjTo6mF7T8c2geHUoyrnKRTVdgqcD1c44stFLQLbAzW0GQ6nouDwVDz97GQ8M3YWzl9OZSMaKYeDk/BgqD0TlYr3l/nhnfl5oMyXu+C2tMNfBz5bx51Z0dLsRMuhvD3K+fZcFAvMqp5Xbzccrqu79nkxFZnPXIfIxDwlONezShCRUYTDF8rwyrxGvPAR0PeptkHq1RcwVVFySSsUsSSQy3PaA4eWBptNnw13FfXlDsMhSET9Y5udbOj/fKUbcytOORwcStKo845HymE6rwnGlnI8OlB7SC98CPzW4rHO+9XSToGzaK8HXnpFecFTp8DhVERlj5ffssETQ82w43AIk31LOL4JebgQn4uvnCow1lqOkdPkIGVocrOBo4GpX3JnUrSU88TcKUVHlUMr7p82Gqk0r96pcLiunzkfBf3hZhj50hx4X4qD1M8fSbGpTDkcnLM378IzOhvWG6sw1howehOgWo46SLp6wEv/Uc55soqrOgXO+4sdlBY8dQkcDtJ3uz3R/3FDuNkthfjkKVQHBOF6TBpTDgfnt8g7oPU+0+zEGDsPGPoqQCBUQRo1DbDfwx1d0dKcemcoZ61HKJ4cOkwwr96lcKj7wV7eePP5MShyWA+Ruzuk/oEovxyGoOtpTDkEhxZCUR6y0+sOJi2UYNx8wMBErgSIAvnLLXIeOseNO6XsxrO9AZncarNfEkzenCaYV+9yOKHe3jAfMwYlTs6oOHsWNVHXIYuPhyz0CgpCr+HPiDQeDmWw+y+nYaNHNiZ8Wodxn0Jp+KcSavQtoXru3q/pFDifbj2EyVOn8QfvHjgvvoj7hw+j0t8fkpQUVrakEqacilIhoUgLvY4TV1NYek9w9oakwikoBSuO5sBkbgPGfPJw+B86AZjb4jeGaLETNxo2X4KiTYZMQzmnHEffJOg/NYz/IZFug1N2zJ3VVqicSSVM/jkKKoLT+uagEMQGR8EtJJmHs/tSMnYEJsNuXwFzpxdmKpSkKueJzy17EPAfrs9pD5zJ85fgO0fF74N1GxxSDs0WMDhlZfwUCk2lEKy6zExWoBL7BiAsMIoph4OzLeA2ysUN2PcrYDIPGG8LHD3Dq5+9KKqUdAqcVScvY+BgfXbMLodD9Vmq01KhidyqNiERsoJCfuq2saqKbZO7EbzyI0cgOfM7LgVGozmcPJGEp0F36d5B/CZ7Qet5gpMLBCu72qOcRQd+x+OD9FnO0+VwqOf0eFLyt9+i3MMD1WFhLO7U3bvHoFBLYGg/BWwK3B5r1+Pg7xE8nANX04Uk1Gzdzq9oNxwayl+3nAfjF8fyz4t2Cxw/Dw/MnDgRWd87MQCkEBq1xDdjWUvbBCbP2QVrZszAVLMpeOwJY0yat4fFnJD0YjU4hLsl9Y1MPVwlUBvlbPaOxfT/fs1Wnv508KDggN0Ch85IgOhJ4kXTLOC78VvccHVlQMJ27cKxpcsYFOOhQ7Fz9WrWwczsIkx8ZzH66pvA9VdfQadb2xDVykBZOC2Y1ATnPzvcMOyZZ/H1OnuV5dJug0MXJCotBT07am5qyh4V0NHRYU8fz506lUFRNV/tGxyPoaPMYWk1V+ula7QiLDyjWC0cB3cfjHvNHFOmTuOHbVXAuxWOqg5ou2+LkycG6hvBYcMmQYrf2vfTiqr4GjJl4M4+MXhnjg1GPDtaqx8I+dvAIQg0AWm1wBGDDYxw6pR2vxfol5TPCuxzV2zEk0MN4aJhNVdz2H8rOFzHqTRCvwFGP1zU2gOvVNL4Zr87DEc8i2XLV6iMK9wxVbV/SzjchRAYAkSguN8E496jZx7emDwVb0+zUKrTcJ/R1P6t4XAXR78mZ2xsjJ27dqGgsBArVq9lz5h39IeH/hFwCBL9VMP69euhb2CA7Tt2ah20OcCq2n8MHFUX19F9/wcLk2Tm1rw+BAAAAABJRU5ErkJggg==;imageBorder=#00CC00;strokeWidth=2;fontColor=#000000;opacity=0;" vertex="1" parent="1">
          <mxGeometry x="1314" y="1184" width="52.45" height="61.31" as="geometry" />
        </mxCell>
        <mxCell id="bhD-8CI2sUDDv10Agr4R-18" value="- Ocp-Apim-Subscription-Key&lt;br style=&quot;border-color: var(--border-color);&quot;&gt;- Authorization bearer (token que se envia en la cabecera)" style="verticalLabelPosition=bottom;aspect=fixed;html=1;verticalAlign=top;strokeColor=none;align=center;outlineConnect=0;shape=mxgraph.citrix.role_security;fillColor=#CCCCCC;gradientColor=#000000;gradientDirection=south;whiteSpace=wrap;fontColor=#000000;" vertex="1" parent="1">
          <mxGeometry x="-331" y="1395" width="38" height="38" as="geometry" />
        </mxCell>
        <mxCell id="bhD-8CI2sUDDv10Agr4R-26" value="Lista de horarios" style="edgeLabel;html=1;align=center;verticalAlign=middle;resizable=0;points=[];labelBackgroundColor=none;fontColor=#000000;" connectable="0" vertex="1" parent="1">
          <mxGeometry x="1489.9999999999998" y="1013.9966666666664" as="geometry">
            <mxPoint x="10" y="-3" as="offset" />
          </mxGeometry>
        </mxCell>
        <mxCell id="bhD-8CI2sUDDv10Agr4R-27" value="Lista de reservas" style="edgeLabel;html=1;align=center;verticalAlign=middle;resizable=0;points=[];labelBackgroundColor=none;fontColor=#000000;" connectable="0" vertex="1" parent="1">
          <mxGeometry x="1497.9999999999998" y="1213.9966666666664" as="geometry">
            <mxPoint x="1" y="-11" as="offset" />
          </mxGeometry>
        </mxCell>
        <mxCell id="OrDrinTZvI2OHBBJCQQ1-9" style="edgeStyle=orthogonalEdgeStyle;rounded=0;orthogonalLoop=1;jettySize=auto;html=1;" edge="1" parent="1" source="vesP3zaRMJrgmn3Ny6aU-7" target="bhD-8CI2sUDDv10Agr4R-2">
          <mxGeometry relative="1" as="geometry">
            <mxPoint x="524.4500000000003" y="840.345" as="sourcePoint" />
          </mxGeometry>
        </mxCell>
        <mxCell id="OrDrinTZvI2OHBBJCQQ1-3" value="- GET: /sm_health/&lt;font color=&quot;#ff0000&quot;&gt;ux&lt;/font&gt;-gestion-especialidades/&lt;font color=&quot;#ff0000&quot;&gt;servicio-al-cliente/v1&lt;/font&gt;/consultar-especialidades" style="edgeLabel;html=1;align=center;verticalAlign=middle;resizable=0;points=[];fontColor=#000000;labelBackgroundColor=none;" connectable="0" vertex="1" parent="1">
          <mxGeometry x="55.9979124315073" y="809.6888310545601" as="geometry" />
        </mxCell>
        <mxCell id="OrDrinTZvI2OHBBJCQQ1-4" value="- GET: /sm_health/&lt;font color=&quot;#ff0000&quot;&gt;ux&lt;/font&gt;-gestion-especialidades/&lt;font color=&quot;#ff0000&quot;&gt;servicio-al-cliente/v1&lt;/font&gt;/consultar-especialidades-por-id/{id}" style="edgeLabel;html=1;align=center;verticalAlign=middle;resizable=0;points=[];fontColor=#000000;labelBackgroundColor=none;" connectable="0" vertex="1" parent="1">
          <mxGeometry x="78.4979124315073" y="829.6888310545601" as="geometry" />
        </mxCell>
        <mxCell id="OrDrinTZvI2OHBBJCQQ1-5" value="- GET: /sm_health/&lt;font color=&quot;#ff0000&quot;&gt;ux&lt;/font&gt;-gestion-medicos/&lt;font color=&quot;#ff0000&quot;&gt;servicio-al-cliente/v1&lt;/font&gt;/consultar-medicos" style="edgeLabel;html=1;align=center;verticalAlign=middle;resizable=0;points=[];fontColor=#000000;labelBackgroundColor=none;" connectable="0" vertex="1" parent="1">
          <mxGeometry x="28.997912431507302" y="599.65883105456" as="geometry" />
        </mxCell>
        <mxCell id="OrDrinTZvI2OHBBJCQQ1-6" value="- GET: /sm_health/&lt;font color=&quot;#ff0000&quot;&gt;ux&lt;/font&gt;-gestion-medicos/&lt;font color=&quot;#ff0000&quot;&gt;servicio-al-cliente/v1&lt;/font&gt;/consultar-medicos-por-id/{id}" style="edgeLabel;html=1;align=center;verticalAlign=middle;resizable=0;points=[];fontColor=#000000;labelBackgroundColor=none;" connectable="0" vertex="1" parent="1">
          <mxGeometry x="48.9979124315073" y="619.65883105456" as="geometry" />
        </mxCell>
        <mxCell id="OrDrinTZvI2OHBBJCQQ1-11" value="" style="edgeStyle=orthogonalEdgeStyle;rounded=0;orthogonalLoop=1;jettySize=auto;html=1;exitX=0.5;exitY=0;exitDx=0;exitDy=0;strokeColor=#000000;" edge="1" parent="1" target="vesP3zaRMJrgmn3Ny6aU-3">
          <mxGeometry relative="1" as="geometry">
            <mxPoint x="-509" y="1081.31" as="sourcePoint" />
            <mxPoint x="465" y="664" as="targetPoint" />
            <Array as="points">
              <mxPoint x="-509" y="664" />
              <mxPoint x="465" y="664" />
              <mxPoint x="465" y="674" />
            </Array>
          </mxGeometry>
        </mxCell>
        <mxCell id="OrDrinTZvI2OHBBJCQQ1-18" style="edgeStyle=orthogonalEdgeStyle;rounded=0;orthogonalLoop=1;jettySize=auto;html=1;exitX=1.046;exitY=0.482;exitDx=0;exitDy=0;entryX=0;entryY=0.5;entryDx=0;entryDy=0;exitPerimeter=0;" edge="1" parent="1" source="vesP3zaRMJrgmn3Ny6aU-3" target="O6xlAhihPvjD9R0icvd0-14">
          <mxGeometry relative="1" as="geometry">
            <mxPoint x="517.4499999999998" y="658.655" as="sourcePoint" />
          </mxGeometry>
        </mxCell>
        <mxCell id="OrDrinTZvI2OHBBJCQQ1-19" style="edgeStyle=orthogonalEdgeStyle;rounded=0;orthogonalLoop=1;jettySize=auto;html=1;entryX=0;entryY=0.5;entryDx=0;entryDy=0;" edge="1" parent="1" source="vesP3zaRMJrgmn3Ny6aU-8">
          <mxGeometry relative="1" as="geometry">
            <mxPoint x="526" y="1017" as="sourcePoint" />
            <mxPoint x="1314.0000000000005" y="1021.9950000000001" as="targetPoint" />
          </mxGeometry>
        </mxCell>
        <mxCell id="OrDrinTZvI2OHBBJCQQ1-24" style="edgeStyle=orthogonalEdgeStyle;rounded=0;orthogonalLoop=1;jettySize=auto;html=1;exitX=1;exitY=0.5;exitDx=0;exitDy=0;entryX=0;entryY=0.5;entryDx=0;entryDy=0;" edge="1" parent="1" target="bhD-8CI2sUDDv10Agr4R-15">
          <mxGeometry relative="1" as="geometry">
            <mxPoint x="513.4499999999998" y="1213.9950000000001" as="sourcePoint" />
          </mxGeometry>
        </mxCell>
        <mxCell id="OrDrinTZvI2OHBBJCQQ1-25" value="- POST: /sm_health/&lt;font color=&quot;#ff0000&quot;&gt;ux&lt;/font&gt;-gestion-reservas/&lt;font color=&quot;#ff0000&quot;&gt;servicio-al-cliente/v1&lt;/font&gt;/registrar-citas" style="edgeLabel;html=1;align=center;verticalAlign=middle;resizable=0;points=[];fontColor=#000000;labelBackgroundColor=none;" connectable="0" vertex="1" parent="1">
          <mxGeometry x="107.9979124315073" y="1159.99883105456" as="geometry" />
        </mxCell>
        <mxCell id="OrDrinTZvI2OHBBJCQQ1-26" value="- GET: /sm_health/&lt;font color=&quot;#ff0000&quot;&gt;ux&lt;/font&gt;-gestion-reservas/&lt;font color=&quot;#ff0000&quot;&gt;servicio-al-cliente/v1&lt;/font&gt;/consultar-citas/{id}" style="edgeLabel;html=1;align=center;verticalAlign=middle;resizable=0;points=[];fontColor=#000000;labelBackgroundColor=none;" connectable="0" vertex="1" parent="1">
          <mxGeometry x="101.9979124315073" y="1179.99883105456" as="geometry" />
        </mxCell>
        <mxCell id="OrDrinTZvI2OHBBJCQQ1-28" value="- DELETE: /sm_health/&lt;font color=&quot;#ff0000&quot;&gt;ux&lt;/font&gt;-gestion-reservas/&lt;font color=&quot;#ff0000&quot;&gt;servicio-al-cliente/v1&lt;/font&gt;/cancelar-citas/{id}" style="edgeLabel;html=1;align=center;verticalAlign=middle;resizable=0;points=[];fontColor=#000000;labelBackgroundColor=none;" connectable="0" vertex="1" parent="1">
          <mxGeometry x="114.9979124315073" y="1199.33883105456" as="geometry" />
        </mxCell>
        <mxCell id="OrDrinTZvI2OHBBJCQQ1-30" value="- Ocp-Apim-Subscription-Key&lt;br style=&quot;border-color: var(--border-color);&quot;&gt;- Authorization bearer (token que se envia en la cabecera)" style="verticalLabelPosition=bottom;aspect=fixed;html=1;verticalAlign=top;strokeColor=none;align=center;outlineConnect=0;shape=mxgraph.citrix.role_security;fillColor=#CCCCCC;gradientColor=#000000;gradientDirection=south;whiteSpace=wrap;fontColor=#000000;" vertex="1" parent="1">
          <mxGeometry x="-327" y="1170" width="38" height="38" as="geometry" />
        </mxCell>
        <mxCell id="gfD2nibtzyW-AY_Npl1U-4" style="edgeStyle=orthogonalEdgeStyle;rounded=0;orthogonalLoop=1;jettySize=auto;html=1;exitX=1;exitY=0.5;exitDx=0;exitDy=0;" edge="1" parent="1" source="_EZUBs4MF0SiAZkNvIDq-1">
          <mxGeometry relative="1" as="geometry">
            <mxPoint x="1889.0344827586205" y="1241" as="targetPoint" />
          </mxGeometry>
        </mxCell>
        <mxCell id="_EZUBs4MF0SiAZkNvIDq-1" value="API NE PayPal&#xa;" style="shape=image;verticalLabelPosition=bottom;labelBackgroundColor=none;verticalAlign=top;aspect=fixed;imageAspect=0;image=data:image/png,iVBORw0KGgoAAAANSUhEUgAAAEcAAABTCAYAAADN9xqSAAAWgUlEQVR4Ae2cC1hUVdfHEczXt7yVClaKpGmUKZSZVBaaSVmiZKWYlrz1ipj3VDAtvN/iYmqppEmmiKaFIlcBUUAQERCQO4LIHYHhMswwXOb/PWuP58hhZpjh+lTvx/OsZ885M3POPj/+a+111t5ndPD/f2oJ6Kh95y/0hpeXFxw3ber2Hv2l4RAUExMTTJ9hiVGjn0N8fHy3AvpLwlFAMcUHljMREn4dBRVibNqxGytXrvrfhcNBsZw5E1cjo1FWLUVJpYTBiU3JguHw4ZBKpd0G6C+hHAbF1BSWM2fhWnQMqiQyVIjrBHDuldVg1uyP4enp+b8Bh6CYmppi5qxZiI6JRa2sATXSerVwPL188dZb5v9sOByUWbOsEBMbC1lDI6T1jRrh5JRWY5jhcOTk5HQLoG51Kw6KlZUVYmPj0NDYhPrGpjbBWbtxMxwc1v+z4Lz33nsgKHFx8WiSy9HYJG8XnMiEdBgadk9g7hblUBC1trZm/225HB2Ck1lUCYvpM0Aq7Oq/LodDQ6+RkRGKioo6Dc6BX06wke1vD2fVqlXYu3ev4Do64laknJSCCujrG/DABQfvxI0uVQ6l+2ZmZkqJW2fAWbLaocvvt7oUzssTJiM0NFTpfynvQEDmlBMQGc8Cs9LBO3FHl8FZt/UULK0UQVhVf9s7WnFwEu+V480p78Df31/V4TtlX5fAKS2XYpDBwyCsqqedAcfF7XiXBuYugTNlxko4u7iqYsLvoyG9PUlgc+VEpeVjqKFhlwVmreFIa2vheegQNi1fziwnNZW/0OYvzvvHY4TxRKUg3Pwz3OuOwonNuY9Pv1gMV9fW/xHc+draagUnPiICxsOGYc6kSdjw4YfMjAwMYGNpiZaQhowwh7XjaYRmlkAkkbH+pGek4SOHLMjqhOUGcq223j40Vw7BORMYwQphbb1wbT6vEc4xJydMNDbGLWcXVJw+g4o//mRt+YkTOGxrCwZpxgwGyWH7KRiafIwtfkm8FVVJYbPpFmy+i4Z3YLigTzRqdRROdFYJJrw2SeWoKDhZOzZahZMaFwfTkSNRfNIDlf4BqImMhPjGDdZWXw2D6OJFlP1yDAcX2mC4vgH+3W84VrpHYKv/bd6cf/WFy48/4ubFybDdFqPUxc6As2H3Pnz2+UKlY3d0h1o4FGNMn30WMT/8AAIhjouHNCMDddnZzCQpqQwSB2j7lnTM2XoD2wNu87brQhhm26dDFt0buKkDyzW5KCjKE/SZXKstJYuWbkXKuZyUi8H6BhCJRIJjd3RDLZxDO3Zg0fTpqAoOQW1SEupyc1FfWoqGigo0lJVBVlTEYJGakk4G4wP7Wmz3S8HOwGTebDZFM8UQGDI3t61w8wgR9JlGrY7Cicgoxlwb204PzGrhkGoiXFyZG5FaCEijWAy5TIYmqRSNlZWQ5eczcIscK7Dyt1zsCkzmbcex8/jO5SSDwsEpCDWC5Zp7Aji0Qa6lbbFLlXIIzhGvILw4dpzSsTuyQyWcotxcDHn8cRZTyJ1INQRDXl8PyOWQNzYyUKSkoHN38MmWKuy5lMyb08UozLbPQPW1AQI4BMl2SzhutphiIdfqKJzQ1EKMe/kVREVFdYSH4Lsq4UQFBbERiuKJAI5MBnlTE+QNDQyOuKAUFqvrsP1iBpyDUnhbsiMMIec+UgJDcLw9bLD5R+H9lhzoFDgrHHdhke1iwQV2ZKNVODRsU0yhQEwqaayuZi7VJJGw2LP/cCFs99+Ha3AKb07HL8BhzzmVYAgOBefJyyuVch5yLU0Fdqohq3MrUo5P7B30699fqwRUG2gq4dBINaBPHxS6/cyGcKae7GwWhCn2EKi7sXcxfa0UrpfSsC8kVWEBscydysKHqIVDgDa7nlTKeaiM0VE4l27nw9L6cxw6dEiba9f4GZVw6Fvrv/gCW62tWcJHIxblNzR8k4rIlm0rx7oT+TgQmsbbGudAXPD4olUwBEddziOpb31qRpNyCI7LifMYP+FVjReuzQfUwqEvL5wxA++OH4+EffuYgijfIQv8LRHW26px8Eo6b85nQrB0a5BGMASH7CP7dOTcyxf0kVyrtXkrbeD4JtzD6Bde7JR59VbhUM/9T59m91UbP/kERe7uKPX8AzPWSuDkn43DYekKC03Ch/YZoKGau3hNrfsvG3Dg+FUBHHKtzoDz33WbsGzFSsGx27OhEQ4dlGLQpqVLGaSv7dyx5EAFjoZn8Ga/9xLOHv9KazAEjuKSxaoSpT5LZA1qZzy1VY7H1SQM0jfocGDWCg53BQF+V9n905GrWTgWkcns0IUQLPzuRpvAcKpavi0Y12ISuMOzllxL3Vy5tnDOx+XCfPqsDs+rtwnOiHGzMGeNO45HZjFzu5KCWfNvIfMb43bBCTxjjW9+iBDAoduJzoCz+bAnXp/0luDYbd3QGo7LYX88OdoCHtfv8Gb+rTeWWmxGk14PyJ/SBfYrgi2nDE0t5TwWK4tRXVMn6De5lqpVFm1RztmYHAwfOQqpaopyghOq2dAKTlW1FAOGmMLxl1CcvpHNbP3pMIyxi4GZVW9U/UsX0NGBvK8e5KP1gFPaQ9q57yjO+UYKutfQ1NQpcOYttcc6ewfBsduyoRWcOV/uxHiLr3HuZg5v45ak4FFbU+jY6qDwsR4MDgFikProQv6KHuCtGVKirxkrhrXsdGWtTGl9jirlpCVk4F70LeRExSP8VjZoKKeYQ8o56BeNp4cZtjswa4STklGEf/c3wqlrGfgz7i4ziy0XMdzOmYEhOI4TdFHfU08AiIF6tAeaZvcEAluHxHKeu3cEfOhGtPnKLlq81BxO2p1C1PkHQPrHnxD/ehy1pzxR7+ePwtAIhEanMzinorNh9va77Z5X1wjH+JW5mLf6CLxv5TJz9onDGLtE6Nr25uEMWaADSU+Fajj1cK1cTxfo3wPyhXpApGpIipwnWACHch51cHIy70Hm44syJyeUurii7OgvqDh9GiIvL0j8/FAXeAklIWG4dC0Za/cew9vvWAiOre1Gq3DcToRC/xlz+Cbm8Way7Ab62k7mwZByyKKHqFDOAzdjrtZLD+jXA/KVukojG+U8VCWU1Qu7XVUr49cEcsq5m1uCeh8flGzZitJ9+1H263EGpTLwEqrDw1ETHQ3xzZuQXruGuuAQlAeFYtCgwe2avlELh4LwoGFm2HokBIG385l9/L0fRiw5qgSG4FhP1YH4X60DYpB69wQG9ACchSpas8sHodfiBHTq6huV4EiCQlC+53teMaQWuvcjKLWJiZCkPrj/y8pi94B18fHYv3I1zF54AV7u7oLja9pQC2fBEle8PHUpgpPzmbmH3cbYxRnQsx2gEk7vL3VQ84hq1+JcrHkr76MHuZEu4KaAFHrOCmuchKMW1XlKH6wmJeWUZORAevoMSnbuwn03N1ScPQdSDIGR3E5mtW1ZXh6rHtSXlLCWtqVZWQh0c8OsSZNYXdzzp580cWHvq4RDQbjPQGOcDU8H1UnIXlp+Df1s31MJhnOtE8aaldMcEHvdVw+Y0BOyk71hueYuyiqqBB2vltSzpbYERxwWAZGzq0I15E7eF5krkWKolEt1bVbOraxCY2UVGkQiRb27oIABos9F/vwz5pibsykldw2TgSrhmLyxEPOWHUR4ehGzL38KwKgl51oFQ4DMrHT4nEcJQrP4o/K9PrpwmbMXx09cEcCh2wlapJ1fLEKjnx9KNm9hsYYCMKmGxZeMDMgKClgBrrGmBlSMozo3tVSgYxMCeXnM5UhllX5+SNi3H59NmcIqD4ITNttQgnPyXBQGDpuIyMxiZp6RKRhrl4RHbIdohEOAWuY8KkGoAZU6+GXM+Ex5pWhJlQSFBWVovOiD4q3bcP+ng8ylqq9cYXGGVNO8UkllXKpzU82bAaqsYqoi9yKYFKMILgX0PdbWWLVgQTMkD18qwaFM2OX4Fdy4U8JswtchGLx4vlZgCA7LeR5ph3vp6CBP1xBj5zQhMOxhB+kVlTEYHJ8HcNzc2AjFw8nNVbhTTQ2bHUFTEz8R0FRXx9RDMYggiuPjFXDOnmOQM77ZgAGP9QH7jvC0EMCxWeqK8e8sB81Bkzl4XMXzdkFagyE4reU8ramoWncAzHSiMMQEmPmVsJdNTXJQzGn0D0Dprt18MG4OhymHXKqujqmGzZI0NCimkaqrQXCYcjg4p08zOMWOm1j8aTnnTz3g4VAQJtV4haXhVm4ZrqUXwmRxrtbuRGA4u6Eh52kJqVG3J870nM92P/IoYDIfSjlPaZUEldGxLBPm3IqVb+Pj2UXTxVMQbqqtZephLkWqEYtZYOYmIcmtKFZxblW0YSObhipSsfCbh/Pq23aYa7cPSXnlzN78JhBPL97CXzB34dq0lPPUUj6jJra03F/R4wn01pHyu40/AHYfFqqntq6B3T7cj0tCg58/xM2H8dRU0JDN1EMjVU0Ng0ItjVjMpXJz2XBPsykUkCl5pOz6nr0Devfqpd6taE0NqSa1oII3+9+uYJxdBp6xO6A2t1EHSpHzCG9G+StvAaxKrz/e0/EXvD3ACJj4qRAO1Xly79ewqZnMnCJURkShITAQ0uBgFkeo6M8AlZSw+NN82pomJSk55IMxxRs3N5Yv7bSciVXz5glP9mCLKYfAHPKMQHqhSGCx2SWwdglk7jXMbpvgfkodGG7/SS1yHnKnCz2tBGA4diafASmZwj6X1UgF81aJmYUoiYxBw6Ug1IVHQJqsSAQJBoGiluIMB4ZiFOVGnGrIpUxGjACtP1L1p0O3CSZv2LBbBddjl5FZXKlk4al5sNwewCAZLP5KK1cz/UhzzlOiOwRDdIpUwjF6A/hig7DLsoYmARwaNGiVxY2UPORGxaGeg5SQyFyIsmYanSi34cCUn/RQBOKt27B79mysmj9feJJmW3zMofxmsKEZnhs/F8HRmcgprVKy4KQ7ePvbyxi3+C4G2FpphHS3n6IIpurqq3sOwEK946reYvt6DwBMVfSbRi1apE2rSTk4tJCAsvjLibnIirgJWeAlSEIuoyYsjA3bFIDpHowDQ7cfAYtsYW5iwiYPmvEQvOThcHu/2e7Jbh1mLNiO5NxS5JZVK5l3bDomrKZKoOo7dM617F/TRV0v1YE5Ws9MLRjOtcZ8BPwRwPVM0YrEdWrh0KQeFbu84+4iIewm6gICUevjC9EpT1bWoKSPwFTu/QH7V6zCgvmfCQ/eYksJDr1fUirCtA/Xo+9AY9jv/B355TUq7UhQIl5aHsNyIa4qyIGhlnKe6l7Kgbm8x0C17sSBodZgDPCurbDHtCIjtVCkUjkcHK4SeCb6Dq5djYPELwBirwsQ//En6rwvIs03BM4+sXhisH6rC55UwuG6cz0uByNNrDBkpDlO+cSjUCRWtgox9njFYNxXyRi15CR62RoJ3O3qUGG2XNuzL1bq7teoGoKj1wsw/RyoquZ6pGjzymu0gkOVwN+isvBLRCYuhibg/OUEuIckwSU4Bd8HpWDyxwuVnstofqZW4XAfpKJXv0HGmGixAvHpRSiprOWtSFTLbgzJ/ZYfCVca/q0sdFDT+yGgBD1TrcBwChr9HrDpB64nirZaWt9mOG5hGfjpSjr2XU7l4aw4+Aeef1H9giet4HBds1m2F4/2N8KcRc64XyUBZa3FlQ/hZJdUITmvEnObDf+PftkbFb0VrlWh+wSMdVLbBKffMGBCizSEVqGmFIiUAnJLt2quHFVwaCWa0XNj1M6rtwkOQcorFOHN91eh7yBj7DkUpAQno0iE5PwKXEkpxvtb/dnwv3rKEjTo6mF7T8c2geHUoyrnKRTVdgqcD1c44stFLQLbAzW0GQ6nouDwVDz97GQ8M3YWzl9OZSMaKYeDk/BgqD0TlYr3l/nhnfl5oMyXu+C2tMNfBz5bx51Z0dLsRMuhvD3K+fZcFAvMqp5Xbzccrqu79nkxFZnPXIfIxDwlONezShCRUYTDF8rwyrxGvPAR0PeptkHq1RcwVVFySSsUsSSQy3PaA4eWBptNnw13FfXlDsMhSET9Y5udbOj/fKUbcytOORwcStKo845HymE6rwnGlnI8OlB7SC98CPzW4rHO+9XSToGzaK8HXnpFecFTp8DhVERlj5ffssETQ82w43AIk31LOL4JebgQn4uvnCow1lqOkdPkIGVocrOBo4GpX3JnUrSU88TcKUVHlUMr7p82Gqk0r96pcLiunzkfBf3hZhj50hx4X4qD1M8fSbGpTDkcnLM378IzOhvWG6sw1howehOgWo46SLp6wEv/Uc55soqrOgXO+4sdlBY8dQkcDtJ3uz3R/3FDuNkthfjkKVQHBOF6TBpTDgfnt8g7oPU+0+zEGDsPGPoqQCBUQRo1DbDfwx1d0dKcemcoZ61HKJ4cOkwwr96lcKj7wV7eePP5MShyWA+Ruzuk/oEovxyGoOtpTDkEhxZCUR6y0+sOJi2UYNx8wMBErgSIAvnLLXIeOseNO6XsxrO9AZncarNfEkzenCaYV+9yOKHe3jAfMwYlTs6oOHsWNVHXIYuPhyz0CgpCr+HPiDQeDmWw+y+nYaNHNiZ8Wodxn0Jp+KcSavQtoXru3q/pFDifbj2EyVOn8QfvHjgvvoj7hw+j0t8fkpQUVrakEqacilIhoUgLvY4TV1NYek9w9oakwikoBSuO5sBkbgPGfPJw+B86AZjb4jeGaLETNxo2X4KiTYZMQzmnHEffJOg/NYz/IZFug1N2zJ3VVqicSSVM/jkKKoLT+uagEMQGR8EtJJmHs/tSMnYEJsNuXwFzpxdmKpSkKueJzy17EPAfrs9pD5zJ85fgO0fF74N1GxxSDs0WMDhlZfwUCk2lEKy6zExWoBL7BiAsMIoph4OzLeA2ysUN2PcrYDIPGG8LHD3Dq5+9KKqUdAqcVScvY+BgfXbMLodD9Vmq01KhidyqNiERsoJCfuq2saqKbZO7EbzyI0cgOfM7LgVGozmcPJGEp0F36d5B/CZ7Qet5gpMLBCu72qOcRQd+x+OD9FnO0+VwqOf0eFLyt9+i3MMD1WFhLO7U3bvHoFBLYGg/BWwK3B5r1+Pg7xE8nANX04Uk1Gzdzq9oNxwayl+3nAfjF8fyz4t2Cxw/Dw/MnDgRWd87MQCkEBq1xDdjWUvbBCbP2QVrZszAVLMpeOwJY0yat4fFnJD0YjU4hLsl9Y1MPVwlUBvlbPaOxfT/fs1Wnv508KDggN0Ch85IgOhJ4kXTLOC78VvccHVlQMJ27cKxpcsYFOOhQ7Fz9WrWwczsIkx8ZzH66pvA9VdfQadb2xDVykBZOC2Y1ATnPzvcMOyZZ/H1OnuV5dJug0MXJCotBT07am5qyh4V0NHRYU8fz506lUFRNV/tGxyPoaPMYWk1V+ula7QiLDyjWC0cB3cfjHvNHFOmTuOHbVXAuxWOqg5ou2+LkycG6hvBYcMmQYrf2vfTiqr4GjJl4M4+MXhnjg1GPDtaqx8I+dvAIQg0AWm1wBGDDYxw6pR2vxfol5TPCuxzV2zEk0MN4aJhNVdz2H8rOFzHqTRCvwFGP1zU2gOvVNL4Zr87DEc8i2XLV6iMK9wxVbV/SzjchRAYAkSguN8E496jZx7emDwVb0+zUKrTcJ/R1P6t4XAXR78mZ2xsjJ27dqGgsBArVq9lz5h39IeH/hFwCBL9VMP69euhb2CA7Tt2ah20OcCq2n8MHFUX19F9/wcLk2Tm1rw+BAAAAABJRU5ErkJggg==;imageBorder=#00CC00;strokeWidth=2;fontColor=#000000;opacity=0;" vertex="1" parent="1">
          <mxGeometry x="1306" y="1410.66" width="52.45" height="61.31" as="geometry" />
        </mxCell>
        <mxCell id="gfD2nibtzyW-AY_Npl1U-3" style="edgeStyle=orthogonalEdgeStyle;rounded=0;orthogonalLoop=1;jettySize=auto;html=1;exitX=0.994;exitY=0.464;exitDx=0;exitDy=0;entryX=0;entryY=0.5;entryDx=0;entryDy=0;exitPerimeter=0;" edge="1" parent="1" source="vesP3zaRMJrgmn3Ny6aU-10" target="_EZUBs4MF0SiAZkNvIDq-1">
          <mxGeometry relative="1" as="geometry">
            <mxPoint x="505.4499999999998" y="1440.655" as="sourcePoint" />
          </mxGeometry>
        </mxCell>
        <mxCell id="gfD2nibtzyW-AY_Npl1U-7" style="edgeStyle=orthogonalEdgeStyle;rounded=0;orthogonalLoop=1;jettySize=auto;html=1;exitX=1;exitY=0.5;exitDx=0;exitDy=0;" edge="1" parent="1" source="f5522j0gBAcMsfJUMGG6-1">
          <mxGeometry relative="1" as="geometry">
            <mxPoint x="1889.0344827586205" y="1241" as="targetPoint" />
          </mxGeometry>
        </mxCell>
        <mxCell id="f5522j0gBAcMsfJUMGG6-1" value="API NE PagoEfectivo&#xa;" style="shape=image;verticalLabelPosition=bottom;labelBackgroundColor=none;verticalAlign=top;aspect=fixed;imageAspect=0;image=data:image/png,iVBORw0KGgoAAAANSUhEUgAAAEcAAABTCAYAAADN9xqSAAAWgUlEQVR4Ae2cC1hUVdfHEczXt7yVClaKpGmUKZSZVBaaSVmiZKWYlrz1ipj3VDAtvN/iYmqppEmmiKaFIlcBUUAQERCQO4LIHYHhMswwXOb/PWuP58hhZpjh+lTvx/OsZ885M3POPj/+a+111t5ndPD/f2oJ6Kh95y/0hpeXFxw3ber2Hv2l4RAUExMTTJ9hiVGjn0N8fHy3AvpLwlFAMcUHljMREn4dBRVibNqxGytXrvrfhcNBsZw5E1cjo1FWLUVJpYTBiU3JguHw4ZBKpd0G6C+hHAbF1BSWM2fhWnQMqiQyVIjrBHDuldVg1uyP4enp+b8Bh6CYmppi5qxZiI6JRa2sATXSerVwPL188dZb5v9sOByUWbOsEBMbC1lDI6T1jRrh5JRWY5jhcOTk5HQLoG51Kw6KlZUVYmPj0NDYhPrGpjbBWbtxMxwc1v+z4Lz33nsgKHFx8WiSy9HYJG8XnMiEdBgadk9g7hblUBC1trZm/225HB2Ck1lUCYvpM0Aq7Oq/LodDQ6+RkRGKioo6Dc6BX06wke1vD2fVqlXYu3ev4Do64laknJSCCujrG/DABQfvxI0uVQ6l+2ZmZkqJW2fAWbLaocvvt7oUzssTJiM0NFTpfynvQEDmlBMQGc8Cs9LBO3FHl8FZt/UULK0UQVhVf9s7WnFwEu+V480p78Df31/V4TtlX5fAKS2XYpDBwyCsqqedAcfF7XiXBuYugTNlxko4u7iqYsLvoyG9PUlgc+VEpeVjqKFhlwVmreFIa2vheegQNi1fziwnNZW/0OYvzvvHY4TxRKUg3Pwz3OuOwonNuY9Pv1gMV9fW/xHc+draagUnPiICxsOGYc6kSdjw4YfMjAwMYGNpiZaQhowwh7XjaYRmlkAkkbH+pGek4SOHLMjqhOUGcq223j40Vw7BORMYwQphbb1wbT6vEc4xJydMNDbGLWcXVJw+g4o//mRt+YkTOGxrCwZpxgwGyWH7KRiafIwtfkm8FVVJYbPpFmy+i4Z3YLigTzRqdRROdFYJJrw2SeWoKDhZOzZahZMaFwfTkSNRfNIDlf4BqImMhPjGDdZWXw2D6OJFlP1yDAcX2mC4vgH+3W84VrpHYKv/bd6cf/WFy48/4ubFybDdFqPUxc6As2H3Pnz2+UKlY3d0h1o4FGNMn30WMT/8AAIhjouHNCMDddnZzCQpqQwSB2j7lnTM2XoD2wNu87brQhhm26dDFt0buKkDyzW5KCjKE/SZXKstJYuWbkXKuZyUi8H6BhCJRIJjd3RDLZxDO3Zg0fTpqAoOQW1SEupyc1FfWoqGigo0lJVBVlTEYJGakk4G4wP7Wmz3S8HOwGTebDZFM8UQGDI3t61w8wgR9JlGrY7Cicgoxlwb204PzGrhkGoiXFyZG5FaCEijWAy5TIYmqRSNlZWQ5eczcIscK7Dyt1zsCkzmbcex8/jO5SSDwsEpCDWC5Zp7Aji0Qa6lbbFLlXIIzhGvILw4dpzSsTuyQyWcotxcDHn8cRZTyJ1INQRDXl8PyOWQNzYyUKSkoHN38MmWKuy5lMyb08UozLbPQPW1AQI4BMl2SzhutphiIdfqKJzQ1EKMe/kVREVFdYSH4Lsq4UQFBbERiuKJAI5MBnlTE+QNDQyOuKAUFqvrsP1iBpyDUnhbsiMMIec+UgJDcLw9bLD5R+H9lhzoFDgrHHdhke1iwQV2ZKNVODRsU0yhQEwqaayuZi7VJJGw2LP/cCFs99+Ha3AKb07HL8BhzzmVYAgOBefJyyuVch5yLU0Fdqohq3MrUo5P7B30699fqwRUG2gq4dBINaBPHxS6/cyGcKae7GwWhCn2EKi7sXcxfa0UrpfSsC8kVWEBscydysKHqIVDgDa7nlTKeaiM0VE4l27nw9L6cxw6dEiba9f4GZVw6Fvrv/gCW62tWcJHIxblNzR8k4rIlm0rx7oT+TgQmsbbGudAXPD4olUwBEddziOpb31qRpNyCI7LifMYP+FVjReuzQfUwqEvL5wxA++OH4+EffuYgijfIQv8LRHW26px8Eo6b85nQrB0a5BGMASH7CP7dOTcyxf0kVyrtXkrbeD4JtzD6Bde7JR59VbhUM/9T59m91UbP/kERe7uKPX8AzPWSuDkn43DYekKC03Ch/YZoKGau3hNrfsvG3Dg+FUBHHKtzoDz33WbsGzFSsGx27OhEQ4dlGLQpqVLGaSv7dyx5EAFjoZn8Ga/9xLOHv9KazAEjuKSxaoSpT5LZA1qZzy1VY7H1SQM0jfocGDWCg53BQF+V9n905GrWTgWkcns0IUQLPzuRpvAcKpavi0Y12ISuMOzllxL3Vy5tnDOx+XCfPqsDs+rtwnOiHGzMGeNO45HZjFzu5KCWfNvIfMb43bBCTxjjW9+iBDAoduJzoCz+bAnXp/0luDYbd3QGo7LYX88OdoCHtfv8Gb+rTeWWmxGk14PyJ/SBfYrgi2nDE0t5TwWK4tRXVMn6De5lqpVFm1RztmYHAwfOQqpaopyghOq2dAKTlW1FAOGmMLxl1CcvpHNbP3pMIyxi4GZVW9U/UsX0NGBvK8e5KP1gFPaQ9q57yjO+UYKutfQ1NQpcOYttcc6ewfBsduyoRWcOV/uxHiLr3HuZg5v45ak4FFbU+jY6qDwsR4MDgFikProQv6KHuCtGVKirxkrhrXsdGWtTGl9jirlpCVk4F70LeRExSP8VjZoKKeYQ8o56BeNp4cZtjswa4STklGEf/c3wqlrGfgz7i4ziy0XMdzOmYEhOI4TdFHfU08AiIF6tAeaZvcEAluHxHKeu3cEfOhGtPnKLlq81BxO2p1C1PkHQPrHnxD/ehy1pzxR7+ePwtAIhEanMzinorNh9va77Z5X1wjH+JW5mLf6CLxv5TJz9onDGLtE6Nr25uEMWaADSU+Fajj1cK1cTxfo3wPyhXpApGpIipwnWACHch51cHIy70Hm44syJyeUurii7OgvqDh9GiIvL0j8/FAXeAklIWG4dC0Za/cew9vvWAiOre1Gq3DcToRC/xlz+Cbm8Way7Ab62k7mwZByyKKHqFDOAzdjrtZLD+jXA/KVukojG+U8VCWU1Qu7XVUr49cEcsq5m1uCeh8flGzZitJ9+1H263EGpTLwEqrDw1ETHQ3xzZuQXruGuuAQlAeFYtCgwe2avlELh4LwoGFm2HokBIG385l9/L0fRiw5qgSG4FhP1YH4X60DYpB69wQG9ACchSpas8sHodfiBHTq6huV4EiCQlC+53teMaQWuvcjKLWJiZCkPrj/y8pi94B18fHYv3I1zF54AV7u7oLja9pQC2fBEle8PHUpgpPzmbmH3cbYxRnQsx2gEk7vL3VQ84hq1+JcrHkr76MHuZEu4KaAFHrOCmuchKMW1XlKH6wmJeWUZORAevoMSnbuwn03N1ScPQdSDIGR3E5mtW1ZXh6rHtSXlLCWtqVZWQh0c8OsSZNYXdzzp580cWHvq4RDQbjPQGOcDU8H1UnIXlp+Df1s31MJhnOtE8aaldMcEHvdVw+Y0BOyk71hueYuyiqqBB2vltSzpbYERxwWAZGzq0I15E7eF5krkWKolEt1bVbOraxCY2UVGkQiRb27oIABos9F/vwz5pibsykldw2TgSrhmLyxEPOWHUR4ehGzL38KwKgl51oFQ4DMrHT4nEcJQrP4o/K9PrpwmbMXx09cEcCh2wlapJ1fLEKjnx9KNm9hsYYCMKmGxZeMDMgKClgBrrGmBlSMozo3tVSgYxMCeXnM5UhllX5+SNi3H59NmcIqD4ITNttQgnPyXBQGDpuIyMxiZp6RKRhrl4RHbIdohEOAWuY8KkGoAZU6+GXM+Ex5pWhJlQSFBWVovOiD4q3bcP+ng8ylqq9cYXGGVNO8UkllXKpzU82bAaqsYqoi9yKYFKMILgX0PdbWWLVgQTMkD18qwaFM2OX4Fdy4U8JswtchGLx4vlZgCA7LeR5ph3vp6CBP1xBj5zQhMOxhB+kVlTEYHJ8HcNzc2AjFw8nNVbhTTQ2bHUFTEz8R0FRXx9RDMYggiuPjFXDOnmOQM77ZgAGP9QH7jvC0EMCxWeqK8e8sB81Bkzl4XMXzdkFagyE4reU8ramoWncAzHSiMMQEmPmVsJdNTXJQzGn0D0Dprt18MG4OhymHXKqujqmGzZI0NCimkaqrQXCYcjg4p08zOMWOm1j8aTnnTz3g4VAQJtV4haXhVm4ZrqUXwmRxrtbuRGA4u6Eh52kJqVG3J870nM92P/IoYDIfSjlPaZUEldGxLBPm3IqVb+Pj2UXTxVMQbqqtZephLkWqEYtZYOYmIcmtKFZxblW0YSObhipSsfCbh/Pq23aYa7cPSXnlzN78JhBPL97CXzB34dq0lPPUUj6jJra03F/R4wn01pHyu40/AHYfFqqntq6B3T7cj0tCg58/xM2H8dRU0JDN1EMjVU0Ng0ItjVjMpXJz2XBPsykUkCl5pOz6nr0Devfqpd6taE0NqSa1oII3+9+uYJxdBp6xO6A2t1EHSpHzCG9G+StvAaxKrz/e0/EXvD3ACJj4qRAO1Xly79ewqZnMnCJURkShITAQ0uBgFkeo6M8AlZSw+NN82pomJSk55IMxxRs3N5Yv7bSciVXz5glP9mCLKYfAHPKMQHqhSGCx2SWwdglk7jXMbpvgfkodGG7/SS1yHnKnCz2tBGA4diafASmZwj6X1UgF81aJmYUoiYxBw6Ug1IVHQJqsSAQJBoGiluIMB4ZiFOVGnGrIpUxGjACtP1L1p0O3CSZv2LBbBddjl5FZXKlk4al5sNwewCAZLP5KK1cz/UhzzlOiOwRDdIpUwjF6A/hig7DLsoYmARwaNGiVxY2UPORGxaGeg5SQyFyIsmYanSi34cCUn/RQBOKt27B79mysmj9feJJmW3zMofxmsKEZnhs/F8HRmcgprVKy4KQ7ePvbyxi3+C4G2FpphHS3n6IIpurqq3sOwEK946reYvt6DwBMVfSbRi1apE2rSTk4tJCAsvjLibnIirgJWeAlSEIuoyYsjA3bFIDpHowDQ7cfAYtsYW5iwiYPmvEQvOThcHu/2e7Jbh1mLNiO5NxS5JZVK5l3bDomrKZKoOo7dM617F/TRV0v1YE5Ws9MLRjOtcZ8BPwRwPVM0YrEdWrh0KQeFbu84+4iIewm6gICUevjC9EpT1bWoKSPwFTu/QH7V6zCgvmfCQ/eYksJDr1fUirCtA/Xo+9AY9jv/B355TUq7UhQIl5aHsNyIa4qyIGhlnKe6l7Kgbm8x0C17sSBodZgDPCurbDHtCIjtVCkUjkcHK4SeCb6Dq5djYPELwBirwsQ//En6rwvIs03BM4+sXhisH6rC55UwuG6cz0uByNNrDBkpDlO+cSjUCRWtgox9njFYNxXyRi15CR62RoJ3O3qUGG2XNuzL1bq7teoGoKj1wsw/RyoquZ6pGjzymu0gkOVwN+isvBLRCYuhibg/OUEuIckwSU4Bd8HpWDyxwuVnstofqZW4XAfpKJXv0HGmGixAvHpRSiprOWtSFTLbgzJ/ZYfCVca/q0sdFDT+yGgBD1TrcBwChr9HrDpB64nirZaWt9mOG5hGfjpSjr2XU7l4aw4+Aeef1H9giet4HBds1m2F4/2N8KcRc64XyUBZa3FlQ/hZJdUITmvEnObDf+PftkbFb0VrlWh+wSMdVLbBKffMGBCizSEVqGmFIiUAnJLt2quHFVwaCWa0XNj1M6rtwkOQcorFOHN91eh7yBj7DkUpAQno0iE5PwKXEkpxvtb/dnwv3rKEjTo6mF7T8c2geHUoyrnKRTVdgqcD1c44stFLQLbAzW0GQ6nouDwVDz97GQ8M3YWzl9OZSMaKYeDk/BgqD0TlYr3l/nhnfl5oMyXu+C2tMNfBz5bx51Z0dLsRMuhvD3K+fZcFAvMqp5Xbzccrqu79nkxFZnPXIfIxDwlONezShCRUYTDF8rwyrxGvPAR0PeptkHq1RcwVVFySSsUsSSQy3PaA4eWBptNnw13FfXlDsMhSET9Y5udbOj/fKUbcytOORwcStKo845HymE6rwnGlnI8OlB7SC98CPzW4rHO+9XSToGzaK8HXnpFecFTp8DhVERlj5ffssETQ82w43AIk31LOL4JebgQn4uvnCow1lqOkdPkIGVocrOBo4GpX3JnUrSU88TcKUVHlUMr7p82Gqk0r96pcLiunzkfBf3hZhj50hx4X4qD1M8fSbGpTDkcnLM378IzOhvWG6sw1howehOgWo46SLp6wEv/Uc55soqrOgXO+4sdlBY8dQkcDtJ3uz3R/3FDuNkthfjkKVQHBOF6TBpTDgfnt8g7oPU+0+zEGDsPGPoqQCBUQRo1DbDfwx1d0dKcemcoZ61HKJ4cOkwwr96lcKj7wV7eePP5MShyWA+Ruzuk/oEovxyGoOtpTDkEhxZCUR6y0+sOJi2UYNx8wMBErgSIAvnLLXIeOseNO6XsxrO9AZncarNfEkzenCaYV+9yOKHe3jAfMwYlTs6oOHsWNVHXIYuPhyz0CgpCr+HPiDQeDmWw+y+nYaNHNiZ8Wodxn0Jp+KcSavQtoXru3q/pFDifbj2EyVOn8QfvHjgvvoj7hw+j0t8fkpQUVrakEqacilIhoUgLvY4TV1NYek9w9oakwikoBSuO5sBkbgPGfPJw+B86AZjb4jeGaLETNxo2X4KiTYZMQzmnHEffJOg/NYz/IZFug1N2zJ3VVqicSSVM/jkKKoLT+uagEMQGR8EtJJmHs/tSMnYEJsNuXwFzpxdmKpSkKueJzy17EPAfrs9pD5zJ85fgO0fF74N1GxxSDs0WMDhlZfwUCk2lEKy6zExWoBL7BiAsMIoph4OzLeA2ysUN2PcrYDIPGG8LHD3Dq5+9KKqUdAqcVScvY+BgfXbMLodD9Vmq01KhidyqNiERsoJCfuq2saqKbZO7EbzyI0cgOfM7LgVGozmcPJGEp0F36d5B/CZ7Qet5gpMLBCu72qOcRQd+x+OD9FnO0+VwqOf0eFLyt9+i3MMD1WFhLO7U3bvHoFBLYGg/BWwK3B5r1+Pg7xE8nANX04Uk1Gzdzq9oNxwayl+3nAfjF8fyz4t2Cxw/Dw/MnDgRWd87MQCkEBq1xDdjWUvbBCbP2QVrZszAVLMpeOwJY0yat4fFnJD0YjU4hLsl9Y1MPVwlUBvlbPaOxfT/fs1Wnv508KDggN0Ch85IgOhJ4kXTLOC78VvccHVlQMJ27cKxpcsYFOOhQ7Fz9WrWwczsIkx8ZzH66pvA9VdfQadb2xDVykBZOC2Y1ATnPzvcMOyZZ/H1OnuV5dJug0MXJCotBT07am5qyh4V0NHRYU8fz506lUFRNV/tGxyPoaPMYWk1V+ula7QiLDyjWC0cB3cfjHvNHFOmTuOHbVXAuxWOqg5ou2+LkycG6hvBYcMmQYrf2vfTiqr4GjJl4M4+MXhnjg1GPDtaqx8I+dvAIQg0AWm1wBGDDYxw6pR2vxfol5TPCuxzV2zEk0MN4aJhNVdz2H8rOFzHqTRCvwFGP1zU2gOvVNL4Zr87DEc8i2XLV6iMK9wxVbV/SzjchRAYAkSguN8E496jZx7emDwVb0+zUKrTcJ/R1P6t4XAXR78mZ2xsjJ27dqGgsBArVq9lz5h39IeH/hFwCBL9VMP69euhb2CA7Tt2ah20OcCq2n8MHFUX19F9/wcLk2Tm1rw+BAAAAABJRU5ErkJggg==;imageBorder=#00CC00;strokeWidth=2;fontColor=#000000;opacity=0;" vertex="1" parent="1">
          <mxGeometry x="1313.25" y="1621.01" width="52.45" height="61.31" as="geometry" />
        </mxCell>
        <mxCell id="gfD2nibtzyW-AY_Npl1U-6" style="edgeStyle=orthogonalEdgeStyle;rounded=0;orthogonalLoop=1;jettySize=auto;html=1;entryX=0;entryY=0.5;entryDx=0;entryDy=0;" edge="1" parent="1" source="vesP3zaRMJrgmn3Ny6aU-16" target="f5522j0gBAcMsfJUMGG6-1">
          <mxGeometry relative="1" as="geometry">
            <mxPoint x="505.4499999999998" y="1651.6550000000002" as="sourcePoint" />
          </mxGeometry>
        </mxCell>
        <mxCell id="gfD2nibtzyW-AY_Npl1U-1" value="- Ocp-Apim-Subscription-Key&lt;br style=&quot;border-color: var(--border-color);&quot;&gt;- Authorization bearer (token que se envia en la cabecera)" style="verticalLabelPosition=bottom;aspect=fixed;html=1;verticalAlign=top;strokeColor=none;align=center;outlineConnect=0;shape=mxgraph.citrix.role_security;fillColor=#CCCCCC;gradientColor=#000000;gradientDirection=south;whiteSpace=wrap;fontColor=#000000;" vertex="1" parent="1">
          <mxGeometry x="-331" y="1609" width="38" height="38" as="geometry" />
        </mxCell>
        <mxCell id="gfD2nibtzyW-AY_Npl1U-8" value="- POST: /&lt;font color=&quot;#ff0000&quot;&gt;ux&lt;/font&gt;-paypal/sm_health/&lt;font color=&quot;#ff0000&quot;&gt;servicio-al-cliente/v1&lt;/font&gt;/ordenar-api" style="edgeLabel;html=1;align=center;verticalAlign=middle;resizable=0;points=[];fontColor=#000000;labelBackgroundColor=none;" connectable="0" vertex="1" parent="1">
          <mxGeometry x="66.9979124315073" y="1350.99883105456" as="geometry" />
        </mxCell>
        <mxCell id="gfD2nibtzyW-AY_Npl1U-9" value="- GET: /&lt;font color=&quot;#ff0000&quot;&gt;ux&lt;/font&gt;-paypal/sm_health/&lt;font color=&quot;#ff0000&quot;&gt;servicio-al-cliente/v1&lt;/font&gt;/consultar-orden" style="edgeLabel;html=1;align=center;verticalAlign=middle;resizable=0;points=[];fontColor=#000000;labelBackgroundColor=none;" connectable="0" vertex="1" parent="1">
          <mxGeometry x="73.9979124315073" y="1413.99883105456" as="geometry" />
        </mxCell>
        <mxCell id="gfD2nibtzyW-AY_Npl1U-10" value="- PUT: /&lt;font color=&quot;#ff0000&quot;&gt;ux&lt;/font&gt;-paypal/sm_health/&lt;font color=&quot;#ff0000&quot;&gt;servicio-al-cliente/v1&lt;/font&gt;/actualizar-orden" style="edgeLabel;html=1;align=center;verticalAlign=middle;resizable=0;points=[];fontColor=#000000;labelBackgroundColor=none;" connectable="0" vertex="1" parent="1">
          <mxGeometry x="73.9979124315073" y="1428.99883105456" as="geometry" />
        </mxCell>
        <mxCell id="gfD2nibtzyW-AY_Npl1U-11" value="- POST: /&lt;font color=&quot;#ff0000&quot;&gt;ux&lt;/font&gt;-paypal/sm_health/&lt;font color=&quot;#ff0000&quot;&gt;servicio-al-cliente/v1&lt;/font&gt;/confirmar-orden" style="edgeLabel;html=1;align=center;verticalAlign=middle;resizable=0;points=[];fontColor=#000000;labelBackgroundColor=none;" connectable="0" vertex="1" parent="1">
          <mxGeometry x="78.4979124315073" y="1398.99883105456" as="geometry" />
        </mxCell>
        <mxCell id="gfD2nibtzyW-AY_Npl1U-12" value="- POST: /&lt;font color=&quot;#ff0000&quot;&gt;ux&lt;/font&gt;-pagoefectivo/sm_health/&lt;font color=&quot;#ff0000&quot;&gt;servicio-al-cliente/v1&lt;/font&gt;/autorizar-cip" style="edgeLabel;html=1;align=center;verticalAlign=middle;resizable=0;points=[];fontColor=#000000;labelBackgroundColor=none;" connectable="0" vertex="1" parent="1">
          <mxGeometry x="89.9979124315073" y="1626.99883105456" as="geometry" />
        </mxCell>
        <mxCell id="gfD2nibtzyW-AY_Npl1U-13" value="- POST: /&lt;font style=&quot;border-color: var(--border-color);&quot; color=&quot;#ff0000&quot;&gt;ux&lt;/font&gt;-pagoefectivo/sm_health/&lt;font style=&quot;border-color: var(--border-color);&quot; color=&quot;#ff0000&quot;&gt;servicio-al-cliente/v1&lt;/font&gt;/generar-cip" style="edgeLabel;html=1;align=center;verticalAlign=middle;resizable=0;points=[];fontColor=#000000;labelBackgroundColor=none;" connectable="0" vertex="1" parent="1">
          <mxGeometry x="87.9979124315073" y="1641.99883105456" as="geometry" />
        </mxCell>
        <mxCell id="YrFSSyqHLQcBBoo4irEM-1" value="- POST: /&lt;font color=&quot;#ff0000&quot;&gt;ne&lt;/font&gt;-pagoefectivo/sm_health/&lt;font color=&quot;#ff0000&quot;&gt;servicio-al-cliente/v1&lt;/font&gt;/autorizar-cip" style="edgeLabel;html=1;align=center;verticalAlign=middle;resizable=0;points=[];fontColor=#000000;labelBackgroundColor=none;" connectable="0" vertex="1" parent="1">
          <mxGeometry x="812.9979124315073" y="1626.99883105456" as="geometry" />
        </mxCell>
        <mxCell id="YrFSSyqHLQcBBoo4irEM-2" value="- POST: /&lt;font color=&quot;#ff0000&quot;&gt;ne&lt;/font&gt;-pagoefectivo/sm_health/&lt;font style=&quot;border-color: var(--border-color);&quot; color=&quot;#ff0000&quot;&gt;servicio-al-cliente/v1&lt;/font&gt;/generar-cip" style="edgeLabel;html=1;align=center;verticalAlign=middle;resizable=0;points=[];fontColor=#000000;labelBackgroundColor=none;" connectable="0" vertex="1" parent="1">
          <mxGeometry x="810.9979124315073" y="1641.99883105456" as="geometry" />
        </mxCell>
        <mxCell id="jfZdZpAaiOsUlOsIdpSe-1" value="- POST: /&lt;font color=&quot;#ff0000&quot;&gt;ux&lt;/font&gt;-paypal/sm_health/&lt;font color=&quot;#ff0000&quot;&gt;servicio-al-cliente/v1&lt;/font&gt;/autorizar-pagos-ordenes" style="edgeLabel;html=1;align=center;verticalAlign=middle;resizable=0;points=[];fontColor=#000000;labelBackgroundColor=none;" connectable="0" vertex="1" parent="1">
          <mxGeometry x="89.9979124315073" y="1366.99883105456" as="geometry" />
        </mxCell>
        <mxCell id="jfZdZpAaiOsUlOsIdpSe-2" value="- POST: /&lt;font color=&quot;#ff0000&quot;&gt;ux&lt;/font&gt;-paypal/sm_health/&lt;font color=&quot;#ff0000&quot;&gt;servicio-al-cliente/v1&lt;/font&gt;/capturar-pago-orden" style="edgeLabel;html=1;align=center;verticalAlign=middle;resizable=0;points=[];fontColor=#000000;labelBackgroundColor=none;" connectable="0" vertex="1" parent="1">
          <mxGeometry x="89.9979124315073" y="1381.99883105456" as="geometry" />
        </mxCell>
        <mxCell id="CrO_3HtuC5xtgaqPoHJ8-1" value="- POST: /&lt;font color=&quot;#ff0000&quot;&gt;ne&lt;/font&gt;-paypal/sm_health/&lt;font color=&quot;#ff0000&quot;&gt;servicio-al-cliente/v1&lt;/font&gt;/ordenar-api" style="edgeLabel;html=1;align=center;verticalAlign=middle;resizable=0;points=[];fontColor=#000000;labelBackgroundColor=none;" connectable="0" vertex="1" parent="1">
          <mxGeometry x="804.9979124315073" y="1350.99883105456" as="geometry" />
        </mxCell>
        <mxCell id="CrO_3HtuC5xtgaqPoHJ8-2" value="- GET: /&lt;font color=&quot;#ff0000&quot;&gt;ne&lt;/font&gt;-paypal/sm_health/&lt;font color=&quot;#ff0000&quot;&gt;servicio-al-cliente/v1&lt;/font&gt;/consultar-orden" style="edgeLabel;html=1;align=center;verticalAlign=middle;resizable=0;points=[];fontColor=#000000;labelBackgroundColor=none;" connectable="0" vertex="1" parent="1">
          <mxGeometry x="807.4979124315073" y="1413.99883105456" as="geometry" />
        </mxCell>
        <mxCell id="CrO_3HtuC5xtgaqPoHJ8-3" value="- PUT: /&lt;font color=&quot;#ff0000&quot;&gt;ne&lt;/font&gt;-paypal/sm_health/&lt;font color=&quot;#ff0000&quot;&gt;servicio-al-cliente/v1&lt;/font&gt;/actualizar-orden" style="edgeLabel;html=1;align=center;verticalAlign=middle;resizable=0;points=[];fontColor=#000000;labelBackgroundColor=none;" connectable="0" vertex="1" parent="1">
          <mxGeometry x="807.4979124315073" y="1428.99883105456" as="geometry" />
        </mxCell>
        <mxCell id="CrO_3HtuC5xtgaqPoHJ8-4" value="- POST: /&lt;font color=&quot;#ff0000&quot;&gt;ne&lt;/font&gt;-paypal/sm_health/&lt;font color=&quot;#ff0000&quot;&gt;servicio-al-cliente/v1&lt;/font&gt;/confirmar-orden" style="edgeLabel;html=1;align=center;verticalAlign=middle;resizable=0;points=[];fontColor=#000000;labelBackgroundColor=none;" connectable="0" vertex="1" parent="1">
          <mxGeometry x="811.9979124315073" y="1398.99883105456" as="geometry" />
        </mxCell>
        <mxCell id="CrO_3HtuC5xtgaqPoHJ8-5" value="- POST: /&lt;font color=&quot;#ff0000&quot;&gt;ne&lt;/font&gt;-paypal/sm_health/&lt;font color=&quot;#ff0000&quot;&gt;servicio-al-cliente/v1&lt;/font&gt;/autorizar-pago-orden" style="edgeLabel;html=1;align=center;verticalAlign=middle;resizable=0;points=[];fontColor=#000000;labelBackgroundColor=none;" connectable="0" vertex="1" parent="1">
          <mxGeometry x="828.4979124315073" y="1366.99883105456" as="geometry" />
        </mxCell>
        <mxCell id="CrO_3HtuC5xtgaqPoHJ8-6" value="- POST: /&lt;font color=&quot;#ff0000&quot;&gt;ne&lt;/font&gt;-paypal/sm_health/&lt;font color=&quot;#ff0000&quot;&gt;servicio-al-cliente/v1&lt;/font&gt;/capturar-pago-orden" style="edgeLabel;html=1;align=center;verticalAlign=middle;resizable=0;points=[];fontColor=#000000;labelBackgroundColor=none;" connectable="0" vertex="1" parent="1">
          <mxGeometry x="824.4979124315073" y="1381.99883105456" as="geometry" />
        </mxCell>
        <mxCell id="CrO_3HtuC5xtgaqPoHJ8-7" value="Pasarela de Pago PayPal" style="edgeLabel;html=1;align=center;verticalAlign=middle;resizable=0;points=[];labelBackgroundColor=none;fontColor=#000000;" connectable="0" vertex="1" parent="1">
          <mxGeometry x="1499.9999999999998" y="1432.9966666666664" as="geometry" />
        </mxCell>
        <mxCell id="CrO_3HtuC5xtgaqPoHJ8-8" value="Pasarela de Pago PagoEfectivo" style="edgeLabel;html=1;align=center;verticalAlign=middle;resizable=0;points=[];labelBackgroundColor=none;fontColor=#000000;" connectable="0" vertex="1" parent="1">
          <mxGeometry x="1499.9999999999998" y="1639.9966666666664" as="geometry" />
        </mxCell>
        <mxCell id="D7BGzQYYYrW9yawwOw6M-1" value="- GET: /sm_health/&lt;font color=&quot;#ff0000&quot;&gt;ux&lt;/font&gt;-gestion-horarios/&lt;font color=&quot;#ff0000&quot;&gt;servicio-al-cliente/v1&lt;/font&gt;/consultar-horarios" style="edgeLabel;html=1;align=center;verticalAlign=middle;resizable=0;points=[];fontColor=#000000;labelBackgroundColor=none;" connectable="0" vertex="1" parent="1">
          <mxGeometry x="57.4979124315073" y="959.99883105456" as="geometry" />
        </mxCell>
        <mxCell id="D7BGzQYYYrW9yawwOw6M-2" value="- PUT: /sm_health/&lt;font color=&quot;#ff0000&quot;&gt;ux&lt;/font&gt;-gestion-horarios/&lt;font color=&quot;#ff0000&quot;&gt;servicio-al-cliente/v1&lt;/font&gt;/actualizar-horarios/{id}" style="edgeLabel;html=1;align=center;verticalAlign=middle;resizable=0;points=[];fontColor=#000000;labelBackgroundColor=none;" connectable="0" vertex="1" parent="1">
          <mxGeometry x="57.4979124315073" y="1006.99883105456" as="geometry">
            <mxPoint x="-12" as="offset" />
          </mxGeometry>
        </mxCell>
        <mxCell id="pP4NLAwcjv5pMVZDPQNl-1" value="MYSQL_SM_HEALTH" style="aspect=fixed;html=1;points=[];align=center;image;fontSize=12;image=img/lib/azure2/databases/Azure_Database_MySQL_Server.svg;imageBorder=#00FF1A;" vertex="1" parent="1">
          <mxGeometry x="1865" y="1176" width="48" height="64" as="geometry" />
        </mxCell>
        <mxCell id="EO-IpEDnprNle1bfE3wV-1" value="- GET: /sm_health/&lt;font color=&quot;#ff0000&quot;&gt;ux&lt;/font&gt;-gestion-medicos/&lt;font color=&quot;#ff0000&quot;&gt;servicio-al-cliente/v1&lt;/font&gt;/consultar-medicos-por-especialidad/{id&lt;span style=&quot;background-color: initial;&quot;&gt;}&lt;/span&gt;" style="edgeLabel;html=1;align=center;verticalAlign=middle;resizable=0;points=[];fontColor=#000000;labelBackgroundColor=none;" connectable="0" vertex="1" parent="1">
          <mxGeometry x="60.9979124315073" y="642.99883105456" as="geometry" />
        </mxCell>
        <mxCell id="EO-IpEDnprNle1bfE3wV-2" value="- GET: /sm_health/&lt;font color=&quot;#ff0000&quot;&gt;ux&lt;/font&gt;-gestion-horarios/&lt;font color=&quot;#ff0000&quot;&gt;servicio-al-cliente/v1&lt;/font&gt;/consultar-horarios-por-medico/{id}" style="edgeLabel;html=1;align=center;verticalAlign=middle;resizable=0;points=[];fontColor=#000000;labelBackgroundColor=none;" connectable="0" vertex="1" parent="1">
          <mxGeometry x="55.9979124315073" y="980.99883105456" as="geometry" />
        </mxCell>
        <mxCell id="vesP3zaRMJrgmn3Ny6aU-3" value="API UX Gestión Médicos" style="aspect=fixed;html=1;points=[];align=center;image;fontSize=12;image=img/lib/azure2/app_services/API_Management_Services.svg;whiteSpace=wrap;imageBorder=#00FF1A;" vertex="1" parent="1">
          <mxGeometry x="454.71999999999997" y="629.31" width="65" height="60" as="geometry" />
        </mxCell>
        <mxCell id="vesP3zaRMJrgmn3Ny6aU-7" value="API UX Gestión Especialidades" style="aspect=fixed;html=1;points=[];align=center;image;fontSize=12;image=img/lib/azure2/app_services/API_Management_Services.svg;whiteSpace=wrap;imageBorder=#00FF1A;" vertex="1" parent="1">
          <mxGeometry x="454.72" y="816" width="65" height="60" as="geometry" />
        </mxCell>
        <mxCell id="vesP3zaRMJrgmn3Ny6aU-8" value="API UX Gestión Horarios" style="aspect=fixed;html=1;points=[];align=center;image;fontSize=12;image=img/lib/azure2/app_services/API_Management_Services.svg;whiteSpace=wrap;imageBorder=#00FF1A;" vertex="1" parent="1">
          <mxGeometry x="467" y="984" width="65" height="60" as="geometry" />
        </mxCell>
        <mxCell id="vesP3zaRMJrgmn3Ny6aU-9" value="API UX Gestión Citas" style="aspect=fixed;html=1;points=[];align=center;image;fontSize=12;image=img/lib/azure2/app_services/API_Management_Services.svg;whiteSpace=wrap;imageBorder=#00FF1A;" vertex="1" parent="1">
          <mxGeometry x="457" y="1180" width="65" height="60" as="geometry" />
        </mxCell>
        <mxCell id="vesP3zaRMJrgmn3Ny6aU-10" value="API UX PayPal" style="aspect=fixed;html=1;points=[];align=center;image;fontSize=12;image=img/lib/azure2/app_services/API_Management_Services.svg;whiteSpace=wrap;imageBorder=#00FF1A;" vertex="1" parent="1">
          <mxGeometry x="454.72" y="1410.66" width="65" height="60" as="geometry" />
        </mxCell>
        <mxCell id="vesP3zaRMJrgmn3Ny6aU-16" value="API UX PagoEfectivo" style="aspect=fixed;html=1;points=[];align=center;image;fontSize=12;image=img/lib/azure2/app_services/API_Management_Services.svg;whiteSpace=wrap;imageBorder=#00FF1A;" vertex="1" parent="1">
          <mxGeometry x="454.72" y="1622.32" width="65" height="60" as="geometry" />
        </mxCell>
        <mxCell id="gxkru25wx21zQ_TJERI--1" value="" style="image;aspect=fixed;html=1;points=[];align=center;fontSize=12;image=img/lib/azure2/compute/Kubernetes_Services.svg;imageBorder=#00FF1A;" vertex="1" parent="1">
          <mxGeometry x="1314" y="628.99" width="67.25" height="59.34" as="geometry" />
        </mxCell>
        <mxCell id="zZeY5EtumE13evTVvM9--3" value="API NE Gestión Horarios" style="image;aspect=fixed;html=1;points=[];align=center;fontSize=12;image=img/lib/azure2/compute/Kubernetes_Services.svg;imageBorder=#00FF1A;" vertex="1" parent="1">
          <mxGeometry x="1314" y="993" width="67.25" height="59.34" as="geometry" />
        </mxCell>
        <mxCell id="gxkru25wx21zQ_TJERI--2" value="" style="image;aspect=fixed;html=1;points=[];align=center;fontSize=12;image=img/lib/azure2/compute/Kubernetes_Services.svg;imageBorder=#00FF1A;" vertex="1" parent="1">
          <mxGeometry x="1313.25" y="809.69" width="68" height="60" as="geometry" />
        </mxCell>
        <mxCell id="gxkru25wx21zQ_TJERI--3" value="" style="image;aspect=fixed;html=1;points=[];align=center;fontSize=12;image=img/lib/azure2/compute/Kubernetes_Services.svg;imageBorder=#00FF1A;" vertex="1" parent="1">
          <mxGeometry x="1314" y="1184.6599999999999" width="68" height="60" as="geometry" />
        </mxCell>
        <mxCell id="gxkru25wx21zQ_TJERI--4" value="" style="image;aspect=fixed;html=1;points=[];align=center;fontSize=12;image=img/lib/azure2/compute/Kubernetes_Services.svg;imageBorder=#00FF1A;" vertex="1" parent="1">
          <mxGeometry x="1306.22" y="1411.9699999999998" width="68" height="60" as="geometry" />
        </mxCell>
        <mxCell id="gxkru25wx21zQ_TJERI--5" value="" style="image;aspect=fixed;html=1;points=[];align=center;fontSize=12;image=img/lib/azure2/compute/Kubernetes_Services.svg;imageBorder=#00FF1A;" vertex="1" parent="1">
          <mxGeometry x="1313.25" y="1621.0099999999998" width="68" height="60" as="geometry" />
        </mxCell>
        <mxCell id="553MBBwJdZdWeaxbN1oF-2" value="- GET: /sm_health/&lt;font color=&quot;#ff0000&quot;&gt;ne&lt;/font&gt;-gestion-medicos/&lt;font color=&quot;#ff0000&quot;&gt;servicio-al-cliente/v1&lt;/font&gt;/consultar-medicos" style="edgeLabel;html=1;align=center;verticalAlign=middle;resizable=0;points=[];fontColor=#000000;labelBackgroundColor=none;" connectable="0" vertex="1" parent="1">
          <mxGeometry x="868.9979124315073" y="594.99883105456" as="geometry" />
        </mxCell>
        <mxCell id="553MBBwJdZdWeaxbN1oF-3" value="- GET: /sm_health/&lt;font color=&quot;#ff0000&quot;&gt;ne&lt;/font&gt;-gestion-medicos/&lt;font color=&quot;#ff0000&quot;&gt;servicio-al-cliente/v1&lt;/font&gt;/consultar-medicos-por-id/{id}" style="edgeLabel;html=1;align=center;verticalAlign=middle;resizable=0;points=[];fontColor=#000000;labelBackgroundColor=none;" connectable="0" vertex="1" parent="1">
          <mxGeometry x="888.9979124315073" y="614.99883105456" as="geometry" />
        </mxCell>
        <mxCell id="553MBBwJdZdWeaxbN1oF-4" value="- GET: /sm_health/&lt;font color=&quot;#ff0000&quot;&gt;ux&lt;/font&gt;-gestion-medicos/&lt;font color=&quot;#ff0000&quot;&gt;servicio-al-cliente/v1&lt;/font&gt;/consultar-medicos-por-especialidad/{id&lt;span style=&quot;background-color: initial;&quot;&gt;}&lt;/span&gt;" style="edgeLabel;html=1;align=center;verticalAlign=middle;resizable=0;points=[];fontColor=#000000;labelBackgroundColor=none;" connectable="0" vertex="1" parent="1">
          <mxGeometry x="900.9979124315073" y="638.33883105456" as="geometry" />
        </mxCell>
        <mxCell id="553MBBwJdZdWeaxbN1oF-5" value="- GET: /sm_health/&lt;font color=&quot;#ff0000&quot;&gt;ne&lt;/font&gt;-gestion-especialidades/&lt;font color=&quot;#ff0000&quot;&gt;servicio-al-cliente/v1&lt;/font&gt;/consultar-especialidades" style="edgeLabel;html=1;align=center;verticalAlign=middle;resizable=0;points=[];fontColor=#000000;labelBackgroundColor=none;" connectable="0" vertex="1" parent="1">
          <mxGeometry x="812.9979124315073" y="797.99883105456" as="geometry" />
        </mxCell>
        <mxCell id="553MBBwJdZdWeaxbN1oF-6" value="- GET: /sm_health/&lt;font color=&quot;#ff0000&quot;&gt;ne&lt;/font&gt;-gestion-especialidades/&lt;font color=&quot;#ff0000&quot;&gt;servicio-al-cliente/v1&lt;/font&gt;/consultar-especialidades-por-id/{id}" style="edgeLabel;html=1;align=center;verticalAlign=middle;resizable=0;points=[];fontColor=#000000;labelBackgroundColor=none;" connectable="0" vertex="1" parent="1">
          <mxGeometry x="831.9979124315073" y="825.99883105456" as="geometry" />
        </mxCell>
        <mxCell id="553MBBwJdZdWeaxbN1oF-7" value="- GET: /sm_health/&lt;font color=&quot;#ff0000&quot;&gt;ne&lt;/font&gt;-gestion-horarios/&lt;font color=&quot;#ff0000&quot;&gt;servicio-al-cliente/v1&lt;/font&gt;/consultar-horarios" style="edgeLabel;html=1;align=center;verticalAlign=middle;resizable=0;points=[];fontColor=#000000;labelBackgroundColor=none;" connectable="0" vertex="1" parent="1">
          <mxGeometry x="793.4979124315073" y="951.99883105456" as="geometry" />
        </mxCell>
        <mxCell id="553MBBwJdZdWeaxbN1oF-8" value="- PUT: /sm_health/&lt;font color=&quot;#ff0000&quot;&gt;ux&lt;/font&gt;-gestion-horarios/&lt;font color=&quot;#ff0000&quot;&gt;servicio-al-cliente/v1&lt;/font&gt;/actualizar-horarios/{id}" style="edgeLabel;html=1;align=center;verticalAlign=middle;resizable=0;points=[];fontColor=#000000;labelBackgroundColor=none;" connectable="0" vertex="1" parent="1">
          <mxGeometry x="793.4979124315073" y="998.99883105456" as="geometry">
            <mxPoint x="-12" as="offset" />
          </mxGeometry>
        </mxCell>
        <mxCell id="553MBBwJdZdWeaxbN1oF-9" value="- GET: /sm_health/&lt;font color=&quot;#ff0000&quot;&gt;ne&lt;/font&gt;-gestion-horarios/&lt;font color=&quot;#ff0000&quot;&gt;servicio-al-cliente/v1&lt;/font&gt;/consultar-horarios-por-medico/{id}" style="edgeLabel;html=1;align=center;verticalAlign=middle;resizable=0;points=[];fontColor=#000000;labelBackgroundColor=none;" connectable="0" vertex="1" parent="1">
          <mxGeometry x="791.9979124315073" y="972.99883105456" as="geometry" />
        </mxCell>
        <mxCell id="553MBBwJdZdWeaxbN1oF-13" value="- POST: /sm_health/&lt;font color=&quot;#ff0000&quot;&gt;ne&lt;/font&gt;-gestion-reservas/&lt;font color=&quot;#ff0000&quot;&gt;servicio-al-cliente/v1&lt;/font&gt;/registrar-citas" style="edgeLabel;html=1;align=center;verticalAlign=middle;resizable=0;points=[];fontColor=#000000;labelBackgroundColor=none;" connectable="0" vertex="1" parent="1">
          <mxGeometry x="821.4979124315073" y="1156.99883105456" as="geometry" />
        </mxCell>
        <mxCell id="553MBBwJdZdWeaxbN1oF-14" value="- GET: /sm_health/&lt;font color=&quot;#ff0000&quot;&gt;ne&lt;/font&gt;-gestion-reservas/&lt;font color=&quot;#ff0000&quot;&gt;servicio-al-cliente/v1&lt;/font&gt;/consultar-citas/{id}" style="edgeLabel;html=1;align=center;verticalAlign=middle;resizable=0;points=[];fontColor=#000000;labelBackgroundColor=none;" connectable="0" vertex="1" parent="1">
          <mxGeometry x="815.4979124315073" y="1176.99883105456" as="geometry" />
        </mxCell>
        <mxCell id="553MBBwJdZdWeaxbN1oF-15" value="- DELETE: /sm_health/&lt;font color=&quot;#ff0000&quot;&gt;ne&lt;/font&gt;-gestion-reservas/&lt;font color=&quot;#ff0000&quot;&gt;servicio-al-cliente/v1&lt;/font&gt;/cancelar-citas/{id}" style="edgeLabel;html=1;align=center;verticalAlign=middle;resizable=0;points=[];fontColor=#000000;labelBackgroundColor=none;" connectable="0" vertex="1" parent="1">
          <mxGeometry x="828.4979124315073" y="1196.33883105456" as="geometry" />
        </mxCell>
        <mxCell id="DGZrKVEgYP0Q1SUXg99M-1" value="Tenant: unnmsm.edu.pe&lt;br style=&quot;font-size: 21px;&quot;&gt;Suscripcion: sus-SM_Health-prod-001" style="text;html=1;strokeColor=none;fillColor=none;align=center;verticalAlign=middle;whiteSpace=wrap;rounded=0;fontStyle=1;fontSize=21;" vertex="1" parent="1">
          <mxGeometry x="686" y="239" width="406" height="30" as="geometry" />
        </mxCell>
      </root>
    </mxGraphModel>
  </diagram>
  <diagram name="servicios candidatos" id="PVQWBD5Fd-2cz-jpAIFI">
    <mxGraphModel grid="1" page="1" gridSize="10" guides="1" tooltips="1" connect="1" arrows="1" fold="1" pageScale="1" pageWidth="827" pageHeight="1169" math="0" shadow="0">
      <root>
        <mxCell id="0" />
        <mxCell id="1" parent="0" />
        <mxCell id="OERjbCMUxSvEkk3cnoNx-1" value="Core 1: Reserva de Cita&#xa;&#xa;&#xa;Médicos&#xa;GET: Consultar lista de médicos&#xa;GET: Consultar información de médico por número de licencia&#xa;&#xa;Especialidades&#xa;GET: Consultar lista de especialidades&#xa;GET: Consultar especialidad por número de categoría&#xa;&#xa;Horarios&#xa;GET: Consultar horarios de atención de un médico&#xa;PUT: Actualizar horario de atención por identificador de horario&#xa;&#xa;Reserva&#xa;POST: Registrar la solicitud de reserva de cita médica&#xa;GET: Consultar reserva por código de reserva&#xa;PUT: Actualizar reserva por código de reserva&#xa;DELETE: Cancelar reserva por código de reserva" style="text;whiteSpace=wrap;" vertex="1" parent="1">
          <mxGeometry x="120" y="230" width="340" height="300" as="geometry" />
        </mxCell>
        <mxCell id="cUhSOJvv8DWUHNWr4MiQ-1" value="Core 2: Pago de la reserva&lt;br&gt;&lt;br&gt;&lt;b&gt;Pago mediante PagoEfectivo&lt;/b&gt;&lt;br&gt;1 POST: Iniciar la orden a la API&lt;br&gt;&amp;nbsp;5 GET: Consultar los detalles de la orden&lt;br&gt;&amp;nbsp;6*PUT: Actualizar la orden&lt;br&gt;&amp;nbsp;4 POST: Confirmar orden&lt;br&gt;&amp;nbsp;2 POST: Autorizar el pago de orden&lt;br&gt;&amp;nbsp;3 POST: Capturar pago de la orden&lt;br&gt;&lt;br&gt;&lt;b&gt;&amp;nbsp;&lt;/b&gt;" style="text;whiteSpace=wrap;html=1;" vertex="1" parent="1">
          <mxGeometry x="520" y="300" width="260" height="220" as="geometry" />
        </mxCell>
      </root>
    </mxGraphModel>
  </diagram>
  <diagram id="-EdVZAhH30vA8p725Dk7" name="ELEMENTOS EXTRAS">
    <mxGraphModel dx="18180" dy="8341" grid="1" gridSize="10" guides="1" tooltips="1" connect="1" arrows="1" fold="1" page="1" pageScale="1" pageWidth="827" pageHeight="1169" math="0" shadow="0">
      <root>
        <mxCell id="0" />
        <mxCell id="1" parent="0" />
        <mxCell id="_lroPe5WvMGbtOyixpdy-1" value="- GET: /&lt;font color=&quot;#ff0000&quot;&gt;ux&lt;/font&gt;-médicos/health/&lt;font color=&quot;#ff0000&quot;&gt;servicio-al-cliente/v1&lt;/font&gt;/listar-médicos" style="edgeLabel;html=1;align=center;verticalAlign=middle;resizable=0;points=[];fontColor=#000000;labelBackgroundColor=none;" parent="1" connectable="0" vertex="1">
          <mxGeometry x="884.9979124315073" y="1645.99883105456" as="geometry" />
        </mxCell>
        <mxCell id="_lroPe5WvMGbtOyixpdy-2" value="- PUT: /&lt;font color=&quot;#ff0000&quot;&gt;ux&lt;/font&gt;-actualizar-reserva/appcodigo/&lt;font color=&quot;#ff0000&quot;&gt;servicio-al-cliente/v1&lt;/font&gt;/solicitud-reembolsos/{id-solicitud}&lt;br&gt;/archivos&lt;br style=&quot;border-color: var(--border-color);&quot;&gt;(multipart file)" style="edgeLabel;html=1;align=center;verticalAlign=middle;resizable=0;points=[];fontColor=#000000;labelBackgroundColor=none;" parent="1" connectable="0" vertex="1">
          <mxGeometry x="537.9979124315073" y="1561.99883105456" as="geometry">
            <mxPoint x="416" y="29" as="offset" />
          </mxGeometry>
        </mxCell>
        <mxCell id="_lroPe5WvMGbtOyixpdy-3" value="- DELETE /&lt;font color=&quot;#ff0000&quot;&gt;ux&lt;/font&gt;-cancelar-reserva/appcodigo/&lt;font color=&quot;#ff0000&quot;&gt;servicio-al-cliente/v1&lt;/font&gt;/cancelar-reserva/{id-reserva}&lt;br&gt;/archivos&lt;br style=&quot;border-color: var(--border-color);&quot;&gt;(multipart file)" style="edgeLabel;html=1;align=center;verticalAlign=middle;resizable=0;points=[];fontColor=#000000;labelBackgroundColor=none;" parent="1" connectable="0" vertex="1">
          <mxGeometry x="535.9979124315073" y="1502.99883105456" as="geometry">
            <mxPoint x="416" y="29" as="offset" />
          </mxGeometry>
        </mxCell>
        <mxCell id="_lroPe5WvMGbtOyixpdy-4" value="" style="edgeStyle=orthogonalEdgeStyle;rounded=0;orthogonalLoop=1;jettySize=auto;html=1;labelBackgroundColor=none;" parent="1" source="_lroPe5WvMGbtOyixpdy-6" target="_lroPe5WvMGbtOyixpdy-15" edge="1">
          <mxGeometry relative="1" as="geometry" />
        </mxCell>
        <mxCell id="_lroPe5WvMGbtOyixpdy-5" value="" style="edgeStyle=orthogonalEdgeStyle;rounded=0;orthogonalLoop=1;jettySize=auto;html=1;labelBackgroundColor=none;" parent="1" source="_lroPe5WvMGbtOyixpdy-6" target="_lroPe5WvMGbtOyixpdy-15" edge="1">
          <mxGeometry relative="1" as="geometry" />
        </mxCell>
        <mxCell id="_lroPe5WvMGbtOyixpdy-6" value="API NE PayPal" style="shape=image;verticalLabelPosition=bottom;labelBackgroundColor=none;verticalAlign=top;aspect=fixed;imageAspect=0;image=data:image/png,iVBORw0KGgoAAAANSUhEUgAAAEcAAABTCAYAAADN9xqSAAAWgUlEQVR4Ae2cC1hUVdfHEczXt7yVClaKpGmUKZSZVBaaSVmiZKWYlrz1ipj3VDAtvN/iYmqppEmmiKaFIlcBUUAQERCQO4LIHYHhMswwXOb/PWuP58hhZpjh+lTvx/OsZ885M3POPj/+a+111t5ndPD/f2oJ6Kh95y/0hpeXFxw3ber2Hv2l4RAUExMTTJ9hiVGjn0N8fHy3AvpLwlFAMcUHljMREn4dBRVibNqxGytXrvrfhcNBsZw5E1cjo1FWLUVJpYTBiU3JguHw4ZBKpd0G6C+hHAbF1BSWM2fhWnQMqiQyVIjrBHDuldVg1uyP4enp+b8Bh6CYmppi5qxZiI6JRa2sATXSerVwPL188dZb5v9sOByUWbOsEBMbC1lDI6T1jRrh5JRWY5jhcOTk5HQLoG51Kw6KlZUVYmPj0NDYhPrGpjbBWbtxMxwc1v+z4Lz33nsgKHFx8WiSy9HYJG8XnMiEdBgadk9g7hblUBC1trZm/225HB2Ck1lUCYvpM0Aq7Oq/LodDQ6+RkRGKioo6Dc6BX06wke1vD2fVqlXYu3ev4Do64laknJSCCujrG/DABQfvxI0uVQ6l+2ZmZkqJW2fAWbLaocvvt7oUzssTJiM0NFTpfynvQEDmlBMQGc8Cs9LBO3FHl8FZt/UULK0UQVhVf9s7WnFwEu+V480p78Df31/V4TtlX5fAKS2XYpDBwyCsqqedAcfF7XiXBuYugTNlxko4u7iqYsLvoyG9PUlgc+VEpeVjqKFhlwVmreFIa2vheegQNi1fziwnNZW/0OYvzvvHY4TxRKUg3Pwz3OuOwonNuY9Pv1gMV9fW/xHc+draagUnPiICxsOGYc6kSdjw4YfMjAwMYGNpiZaQhowwh7XjaYRmlkAkkbH+pGek4SOHLMjqhOUGcq223j40Vw7BORMYwQphbb1wbT6vEc4xJydMNDbGLWcXVJw+g4o//mRt+YkTOGxrCwZpxgwGyWH7KRiafIwtfkm8FVVJYbPpFmy+i4Z3YLigTzRqdRROdFYJJrw2SeWoKDhZOzZahZMaFwfTkSNRfNIDlf4BqImMhPjGDdZWXw2D6OJFlP1yDAcX2mC4vgH+3W84VrpHYKv/bd6cf/WFy48/4ubFybDdFqPUxc6As2H3Pnz2+UKlY3d0h1o4FGNMn30WMT/8AAIhjouHNCMDddnZzCQpqQwSB2j7lnTM2XoD2wNu87brQhhm26dDFt0buKkDyzW5KCjKE/SZXKstJYuWbkXKuZyUi8H6BhCJRIJjd3RDLZxDO3Zg0fTpqAoOQW1SEupyc1FfWoqGigo0lJVBVlTEYJGakk4G4wP7Wmz3S8HOwGTebDZFM8UQGDI3t61w8wgR9JlGrY7Cicgoxlwb204PzGrhkGoiXFyZG5FaCEijWAy5TIYmqRSNlZWQ5eczcIscK7Dyt1zsCkzmbcex8/jO5SSDwsEpCDWC5Zp7Aji0Qa6lbbFLlXIIzhGvILw4dpzSsTuyQyWcotxcDHn8cRZTyJ1INQRDXl8PyOWQNzYyUKSkoHN38MmWKuy5lMyb08UozLbPQPW1AQI4BMl2SzhutphiIdfqKJzQ1EKMe/kVREVFdYSH4Lsq4UQFBbERiuKJAI5MBnlTE+QNDQyOuKAUFqvrsP1iBpyDUnhbsiMMIec+UgJDcLw9bLD5R+H9lhzoFDgrHHdhke1iwQV2ZKNVODRsU0yhQEwqaayuZi7VJJGw2LP/cCFs99+Ha3AKb07HL8BhzzmVYAgOBefJyyuVch5yLU0Fdqohq3MrUo5P7B30699fqwRUG2gq4dBINaBPHxS6/cyGcKae7GwWhCn2EKi7sXcxfa0UrpfSsC8kVWEBscydysKHqIVDgDa7nlTKeaiM0VE4l27nw9L6cxw6dEiba9f4GZVw6Fvrv/gCW62tWcJHIxblNzR8k4rIlm0rx7oT+TgQmsbbGudAXPD4olUwBEddziOpb31qRpNyCI7LifMYP+FVjReuzQfUwqEvL5wxA++OH4+EffuYgijfIQv8LRHW26px8Eo6b85nQrB0a5BGMASH7CP7dOTcyxf0kVyrtXkrbeD4JtzD6Bde7JR59VbhUM/9T59m91UbP/kERe7uKPX8AzPWSuDkn43DYekKC03Ch/YZoKGau3hNrfsvG3Dg+FUBHHKtzoDz33WbsGzFSsGx27OhEQ4dlGLQpqVLGaSv7dyx5EAFjoZn8Ga/9xLOHv9KazAEjuKSxaoSpT5LZA1qZzy1VY7H1SQM0jfocGDWCg53BQF+V9n905GrWTgWkcns0IUQLPzuRpvAcKpavi0Y12ISuMOzllxL3Vy5tnDOx+XCfPqsDs+rtwnOiHGzMGeNO45HZjFzu5KCWfNvIfMb43bBCTxjjW9+iBDAoduJzoCz+bAnXp/0luDYbd3QGo7LYX88OdoCHtfv8Gb+rTeWWmxGk14PyJ/SBfYrgi2nDE0t5TwWK4tRXVMn6De5lqpVFm1RztmYHAwfOQqpaopyghOq2dAKTlW1FAOGmMLxl1CcvpHNbP3pMIyxi4GZVW9U/UsX0NGBvK8e5KP1gFPaQ9q57yjO+UYKutfQ1NQpcOYttcc6ewfBsduyoRWcOV/uxHiLr3HuZg5v45ak4FFbU+jY6qDwsR4MDgFikProQv6KHuCtGVKirxkrhrXsdGWtTGl9jirlpCVk4F70LeRExSP8VjZoKKeYQ8o56BeNp4cZtjswa4STklGEf/c3wqlrGfgz7i4ziy0XMdzOmYEhOI4TdFHfU08AiIF6tAeaZvcEAluHxHKeu3cEfOhGtPnKLlq81BxO2p1C1PkHQPrHnxD/ehy1pzxR7+ePwtAIhEanMzinorNh9va77Z5X1wjH+JW5mLf6CLxv5TJz9onDGLtE6Nr25uEMWaADSU+Fajj1cK1cTxfo3wPyhXpApGpIipwnWACHch51cHIy70Hm44syJyeUurii7OgvqDh9GiIvL0j8/FAXeAklIWG4dC0Za/cew9vvWAiOre1Gq3DcToRC/xlz+Cbm8Way7Ab62k7mwZByyKKHqFDOAzdjrtZLD+jXA/KVukojG+U8VCWU1Qu7XVUr49cEcsq5m1uCeh8flGzZitJ9+1H263EGpTLwEqrDw1ETHQ3xzZuQXruGuuAQlAeFYtCgwe2avlELh4LwoGFm2HokBIG385l9/L0fRiw5qgSG4FhP1YH4X60DYpB69wQG9ACchSpas8sHodfiBHTq6huV4EiCQlC+53teMaQWuvcjKLWJiZCkPrj/y8pi94B18fHYv3I1zF54AV7u7oLja9pQC2fBEle8PHUpgpPzmbmH3cbYxRnQsx2gEk7vL3VQ84hq1+JcrHkr76MHuZEu4KaAFHrOCmuchKMW1XlKH6wmJeWUZORAevoMSnbuwn03N1ScPQdSDIGR3E5mtW1ZXh6rHtSXlLCWtqVZWQh0c8OsSZNYXdzzp580cWHvq4RDQbjPQGOcDU8H1UnIXlp+Df1s31MJhnOtE8aaldMcEHvdVw+Y0BOyk71hueYuyiqqBB2vltSzpbYERxwWAZGzq0I15E7eF5krkWKolEt1bVbOraxCY2UVGkQiRb27oIABos9F/vwz5pibsykldw2TgSrhmLyxEPOWHUR4ehGzL38KwKgl51oFQ4DMrHT4nEcJQrP4o/K9PrpwmbMXx09cEcCh2wlapJ1fLEKjnx9KNm9hsYYCMKmGxZeMDMgKClgBrrGmBlSMozo3tVSgYxMCeXnM5UhllX5+SNi3H59NmcIqD4ITNttQgnPyXBQGDpuIyMxiZp6RKRhrl4RHbIdohEOAWuY8KkGoAZU6+GXM+Ex5pWhJlQSFBWVovOiD4q3bcP+ng8ylqq9cYXGGVNO8UkllXKpzU82bAaqsYqoi9yKYFKMILgX0PdbWWLVgQTMkD18qwaFM2OX4Fdy4U8JswtchGLx4vlZgCA7LeR5ph3vp6CBP1xBj5zQhMOxhB+kVlTEYHJ8HcNzc2AjFw8nNVbhTTQ2bHUFTEz8R0FRXx9RDMYggiuPjFXDOnmOQM77ZgAGP9QH7jvC0EMCxWeqK8e8sB81Bkzl4XMXzdkFagyE4reU8ramoWncAzHSiMMQEmPmVsJdNTXJQzGn0D0Dprt18MG4OhymHXKqujqmGzZI0NCimkaqrQXCYcjg4p08zOMWOm1j8aTnnTz3g4VAQJtV4haXhVm4ZrqUXwmRxrtbuRGA4u6Eh52kJqVG3J870nM92P/IoYDIfSjlPaZUEldGxLBPm3IqVb+Pj2UXTxVMQbqqtZephLkWqEYtZYOYmIcmtKFZxblW0YSObhipSsfCbh/Pq23aYa7cPSXnlzN78JhBPL97CXzB34dq0lPPUUj6jJra03F/R4wn01pHyu40/AHYfFqqntq6B3T7cj0tCg58/xM2H8dRU0JDN1EMjVU0Ng0ItjVjMpXJz2XBPsykUkCl5pOz6nr0Devfqpd6taE0NqSa1oII3+9+uYJxdBp6xO6A2t1EHSpHzCG9G+StvAaxKrz/e0/EXvD3ACJj4qRAO1Xly79ewqZnMnCJURkShITAQ0uBgFkeo6M8AlZSw+NN82pomJSk55IMxxRs3N5Yv7bSciVXz5glP9mCLKYfAHPKMQHqhSGCx2SWwdglk7jXMbpvgfkodGG7/SS1yHnKnCz2tBGA4diafASmZwj6X1UgF81aJmYUoiYxBw6Ug1IVHQJqsSAQJBoGiluIMB4ZiFOVGnGrIpUxGjACtP1L1p0O3CSZv2LBbBddjl5FZXKlk4al5sNwewCAZLP5KK1cz/UhzzlOiOwRDdIpUwjF6A/hig7DLsoYmARwaNGiVxY2UPORGxaGeg5SQyFyIsmYanSi34cCUn/RQBOKt27B79mysmj9feJJmW3zMofxmsKEZnhs/F8HRmcgprVKy4KQ7ePvbyxi3+C4G2FpphHS3n6IIpurqq3sOwEK946reYvt6DwBMVfSbRi1apE2rSTk4tJCAsvjLibnIirgJWeAlSEIuoyYsjA3bFIDpHowDQ7cfAYtsYW5iwiYPmvEQvOThcHu/2e7Jbh1mLNiO5NxS5JZVK5l3bDomrKZKoOo7dM617F/TRV0v1YE5Ws9MLRjOtcZ8BPwRwPVM0YrEdWrh0KQeFbu84+4iIewm6gICUevjC9EpT1bWoKSPwFTu/QH7V6zCgvmfCQ/eYksJDr1fUirCtA/Xo+9AY9jv/B355TUq7UhQIl5aHsNyIa4qyIGhlnKe6l7Kgbm8x0C17sSBodZgDPCurbDHtCIjtVCkUjkcHK4SeCb6Dq5djYPELwBirwsQ//En6rwvIs03BM4+sXhisH6rC55UwuG6cz0uByNNrDBkpDlO+cSjUCRWtgox9njFYNxXyRi15CR62RoJ3O3qUGG2XNuzL1bq7teoGoKj1wsw/RyoquZ6pGjzymu0gkOVwN+isvBLRCYuhibg/OUEuIckwSU4Bd8HpWDyxwuVnstofqZW4XAfpKJXv0HGmGixAvHpRSiprOWtSFTLbgzJ/ZYfCVca/q0sdFDT+yGgBD1TrcBwChr9HrDpB64nirZaWt9mOG5hGfjpSjr2XU7l4aw4+Aeef1H9giet4HBds1m2F4/2N8KcRc64XyUBZa3FlQ/hZJdUITmvEnObDf+PftkbFb0VrlWh+wSMdVLbBKffMGBCizSEVqGmFIiUAnJLt2quHFVwaCWa0XNj1M6rtwkOQcorFOHN91eh7yBj7DkUpAQno0iE5PwKXEkpxvtb/dnwv3rKEjTo6mF7T8c2geHUoyrnKRTVdgqcD1c44stFLQLbAzW0GQ6nouDwVDz97GQ8M3YWzl9OZSMaKYeDk/BgqD0TlYr3l/nhnfl5oMyXu+C2tMNfBz5bx51Z0dLsRMuhvD3K+fZcFAvMqp5Xbzccrqu79nkxFZnPXIfIxDwlONezShCRUYTDF8rwyrxGvPAR0PeptkHq1RcwVVFySSsUsSSQy3PaA4eWBptNnw13FfXlDsMhSET9Y5udbOj/fKUbcytOORwcStKo845HymE6rwnGlnI8OlB7SC98CPzW4rHO+9XSToGzaK8HXnpFecFTp8DhVERlj5ffssETQ82w43AIk31LOL4JebgQn4uvnCow1lqOkdPkIGVocrOBo4GpX3JnUrSU88TcKUVHlUMr7p82Gqk0r96pcLiunzkfBf3hZhj50hx4X4qD1M8fSbGpTDkcnLM378IzOhvWG6sw1howehOgWo46SLp6wEv/Uc55soqrOgXO+4sdlBY8dQkcDtJ3uz3R/3FDuNkthfjkKVQHBOF6TBpTDgfnt8g7oPU+0+zEGDsPGPoqQCBUQRo1DbDfwx1d0dKcemcoZ61HKJ4cOkwwr96lcKj7wV7eePP5MShyWA+Ruzuk/oEovxyGoOtpTDkEhxZCUR6y0+sOJi2UYNx8wMBErgSIAvnLLXIeOseNO6XsxrO9AZncarNfEkzenCaYV+9yOKHe3jAfMwYlTs6oOHsWNVHXIYuPhyz0CgpCr+HPiDQeDmWw+y+nYaNHNiZ8Wodxn0Jp+KcSavQtoXru3q/pFDifbj2EyVOn8QfvHjgvvoj7hw+j0t8fkpQUVrakEqacilIhoUgLvY4TV1NYek9w9oakwikoBSuO5sBkbgPGfPJw+B86AZjb4jeGaLETNxo2X4KiTYZMQzmnHEffJOg/NYz/IZFug1N2zJ3VVqicSSVM/jkKKoLT+uagEMQGR8EtJJmHs/tSMnYEJsNuXwFzpxdmKpSkKueJzy17EPAfrs9pD5zJ85fgO0fF74N1GxxSDs0WMDhlZfwUCk2lEKy6zExWoBL7BiAsMIoph4OzLeA2ysUN2PcrYDIPGG8LHD3Dq5+9KKqUdAqcVScvY+BgfXbMLodD9Vmq01KhidyqNiERsoJCfuq2saqKbZO7EbzyI0cgOfM7LgVGozmcPJGEp0F36d5B/CZ7Qet5gpMLBCu72qOcRQd+x+OD9FnO0+VwqOf0eFLyt9+i3MMD1WFhLO7U3bvHoFBLYGg/BWwK3B5r1+Pg7xE8nANX04Uk1Gzdzq9oNxwayl+3nAfjF8fyz4t2Cxw/Dw/MnDgRWd87MQCkEBq1xDdjWUvbBCbP2QVrZszAVLMpeOwJY0yat4fFnJD0YjU4hLsl9Y1MPVwlUBvlbPaOxfT/fs1Wnv508KDggN0Ch85IgOhJ4kXTLOC78VvccHVlQMJ27cKxpcsYFOOhQ7Fz9WrWwczsIkx8ZzH66pvA9VdfQadb2xDVykBZOC2Y1ATnPzvcMOyZZ/H1OnuV5dJug0MXJCotBT07am5qyh4V0NHRYU8fz506lUFRNV/tGxyPoaPMYWk1V+ula7QiLDyjWC0cB3cfjHvNHFOmTuOHbVXAuxWOqg5ou2+LkycG6hvBYcMmQYrf2vfTiqr4GjJl4M4+MXhnjg1GPDtaqx8I+dvAIQg0AWm1wBGDDYxw6pR2vxfol5TPCuxzV2zEk0MN4aJhNVdz2H8rOFzHqTRCvwFGP1zU2gOvVNL4Zr87DEc8i2XLV6iMK9wxVbV/SzjchRAYAkSguN8E496jZx7emDwVb0+zUKrTcJ/R1P6t4XAXR78mZ2xsjJ27dqGgsBArVq9lz5h39IeH/hFwCBL9VMP69euhb2CA7Tt2ah20OcCq2n8MHFUX19F9/wcLk2Tm1rw+BAAAAABJRU5ErkJggg==;imageBorder=#00CC00;strokeWidth=2;fontColor=#000000;" parent="1" vertex="1">
          <mxGeometry x="1329.22" y="1813" width="52.45" height="61.31" as="geometry" />
        </mxCell>
        <mxCell id="_lroPe5WvMGbtOyixpdy-7" value="- POST: /&lt;font color=&quot;#ff0000&quot;&gt;ux&lt;/font&gt;-orden-api/health&lt;font color=&quot;#ff0000&quot;&gt;/servicio-al-cliente/v1&lt;/font&gt;/orden-api{id-orden}" style="edgeLabel;html=1;align=center;verticalAlign=middle;resizable=0;points=[];fontColor=#000000;labelBackgroundColor=none;" parent="1" connectable="0" vertex="1">
          <mxGeometry x="948.2179124315073" y="1861.9988310545596" as="geometry">
            <mxPoint x="-16" y="-69" as="offset" />
          </mxGeometry>
        </mxCell>
        <mxCell id="_lroPe5WvMGbtOyixpdy-8" value="- GET: /&lt;font color=&quot;#ff0000&quot;&gt;ux&lt;/font&gt;-detalles-orden/health/&lt;font color=&quot;#ff0000&quot;&gt;servicio-al-cliente/v1&lt;/font&gt;/detalles-orden" style="edgeLabel;html=1;align=center;verticalAlign=middle;resizable=0;points=[];fontColor=#000000;labelBackgroundColor=none;" parent="1" connectable="0" vertex="1">
          <mxGeometry x="915.2179124315073" y="1841.99883105456" as="geometry" />
        </mxCell>
        <mxCell id="_lroPe5WvMGbtOyixpdy-9" value="- PUT: /&lt;font color=&quot;#ff0000&quot;&gt;ux&lt;/font&gt;-actualizar-orden/health/&lt;font color=&quot;#ff0000&quot;&gt;servicio-al-cliente/v1&lt;/font&gt;/actualizar-orden" style="edgeLabel;html=1;align=center;verticalAlign=middle;resizable=0;points=[];fontColor=#000000;labelBackgroundColor=none;" parent="1" connectable="0" vertex="1">
          <mxGeometry x="915.2179124315073" y="1881.99883105456" as="geometry" />
        </mxCell>
        <mxCell id="_lroPe5WvMGbtOyixpdy-10" value="- POST: /&lt;font color=&quot;#ff0000&quot;&gt;ux&lt;/font&gt;-confirmar-orden/health&lt;font color=&quot;#ff0000&quot;&gt;/servicio-al-cliente/v1&lt;/font&gt;/confirmar-orden{id-orden}" style="edgeLabel;html=1;align=center;verticalAlign=middle;resizable=0;points=[];fontColor=#000000;labelBackgroundColor=none;" parent="1" connectable="0" vertex="1">
          <mxGeometry x="915.2179124315073" y="1991.9988310545596" as="geometry">
            <mxPoint x="-16" y="-69" as="offset" />
          </mxGeometry>
        </mxCell>
        <mxCell id="_lroPe5WvMGbtOyixpdy-11" value="- POST: /&lt;font color=&quot;#ff0000&quot;&gt;ux&lt;/font&gt;-autorizar-orden/health&lt;font color=&quot;#ff0000&quot;&gt;/servicio-al-cliente/v1&lt;/font&gt;/autorizar-orden{id-orden}" style="edgeLabel;html=1;align=center;verticalAlign=middle;resizable=0;points=[];fontColor=#000000;labelBackgroundColor=none;" parent="1" connectable="0" vertex="1">
          <mxGeometry x="915.2179124315073" y="2041.9988310545596" as="geometry">
            <mxPoint x="-16" y="-69" as="offset" />
          </mxGeometry>
        </mxCell>
        <mxCell id="_lroPe5WvMGbtOyixpdy-12" value="- POST: /&lt;font color=&quot;#ff0000&quot;&gt;ux&lt;/font&gt;-pagos/health&lt;font color=&quot;#ff0000&quot;&gt;/servicio-al-cliente/v1&lt;/font&gt;/capturar-pagos/id-orden" style="edgeLabel;html=1;align=center;verticalAlign=middle;resizable=0;points=[];fontColor=#000000;labelBackgroundColor=none;" parent="1" connectable="0" vertex="1">
          <mxGeometry x="920.2179124315073" y="2101.3188310545593" as="geometry">
            <mxPoint x="-16" y="-69" as="offset" />
          </mxGeometry>
        </mxCell>
        <mxCell id="_lroPe5WvMGbtOyixpdy-13" value="API PagoEfectivo" style="shape=image;verticalLabelPosition=bottom;labelBackgroundColor=none;verticalAlign=top;aspect=fixed;imageAspect=0;image=data:image/png,iVBORw0KGgoAAAANSUhEUgAAAEcAAABTCAYAAADN9xqSAAAWgUlEQVR4Ae2cC1hUVdfHEczXt7yVClaKpGmUKZSZVBaaSVmiZKWYlrz1ipj3VDAtvN/iYmqppEmmiKaFIlcBUUAQERCQO4LIHYHhMswwXOb/PWuP58hhZpjh+lTvx/OsZ885M3POPj/+a+111t5ndPD/f2oJ6Kh95y/0hpeXFxw3ber2Hv2l4RAUExMTTJ9hiVGjn0N8fHy3AvpLwlFAMcUHljMREn4dBRVibNqxGytXrvrfhcNBsZw5E1cjo1FWLUVJpYTBiU3JguHw4ZBKpd0G6C+hHAbF1BSWM2fhWnQMqiQyVIjrBHDuldVg1uyP4enp+b8Bh6CYmppi5qxZiI6JRa2sATXSerVwPL188dZb5v9sOByUWbOsEBMbC1lDI6T1jRrh5JRWY5jhcOTk5HQLoG51Kw6KlZUVYmPj0NDYhPrGpjbBWbtxMxwc1v+z4Lz33nsgKHFx8WiSy9HYJG8XnMiEdBgadk9g7hblUBC1trZm/225HB2Ck1lUCYvpM0Aq7Oq/LodDQ6+RkRGKioo6Dc6BX06wke1vD2fVqlXYu3ev4Do64laknJSCCujrG/DABQfvxI0uVQ6l+2ZmZkqJW2fAWbLaocvvt7oUzssTJiM0NFTpfynvQEDmlBMQGc8Cs9LBO3FHl8FZt/UULK0UQVhVf9s7WnFwEu+V480p78Df31/V4TtlX5fAKS2XYpDBwyCsqqedAcfF7XiXBuYugTNlxko4u7iqYsLvoyG9PUlgc+VEpeVjqKFhlwVmreFIa2vheegQNi1fziwnNZW/0OYvzvvHY4TxRKUg3Pwz3OuOwonNuY9Pv1gMV9fW/xHc+draagUnPiICxsOGYc6kSdjw4YfMjAwMYGNpiZaQhowwh7XjaYRmlkAkkbH+pGek4SOHLMjqhOUGcq223j40Vw7BORMYwQphbb1wbT6vEc4xJydMNDbGLWcXVJw+g4o//mRt+YkTOGxrCwZpxgwGyWH7KRiafIwtfkm8FVVJYbPpFmy+i4Z3YLigTzRqdRROdFYJJrw2SeWoKDhZOzZahZMaFwfTkSNRfNIDlf4BqImMhPjGDdZWXw2D6OJFlP1yDAcX2mC4vgH+3W84VrpHYKv/bd6cf/WFy48/4ubFybDdFqPUxc6As2H3Pnz2+UKlY3d0h1o4FGNMn30WMT/8AAIhjouHNCMDddnZzCQpqQwSB2j7lnTM2XoD2wNu87brQhhm26dDFt0buKkDyzW5KCjKE/SZXKstJYuWbkXKuZyUi8H6BhCJRIJjd3RDLZxDO3Zg0fTpqAoOQW1SEupyc1FfWoqGigo0lJVBVlTEYJGakk4G4wP7Wmz3S8HOwGTebDZFM8UQGDI3t61w8wgR9JlGrY7Cicgoxlwb204PzGrhkGoiXFyZG5FaCEijWAy5TIYmqRSNlZWQ5eczcIscK7Dyt1zsCkzmbcex8/jO5SSDwsEpCDWC5Zp7Aji0Qa6lbbFLlXIIzhGvILw4dpzSsTuyQyWcotxcDHn8cRZTyJ1INQRDXl8PyOWQNzYyUKSkoHN38MmWKuy5lMyb08UozLbPQPW1AQI4BMl2SzhutphiIdfqKJzQ1EKMe/kVREVFdYSH4Lsq4UQFBbERiuKJAI5MBnlTE+QNDQyOuKAUFqvrsP1iBpyDUnhbsiMMIec+UgJDcLw9bLD5R+H9lhzoFDgrHHdhke1iwQV2ZKNVODRsU0yhQEwqaayuZi7VJJGw2LP/cCFs99+Ha3AKb07HL8BhzzmVYAgOBefJyyuVch5yLU0Fdqohq3MrUo5P7B30699fqwRUG2gq4dBINaBPHxS6/cyGcKae7GwWhCn2EKi7sXcxfa0UrpfSsC8kVWEBscydysKHqIVDgDa7nlTKeaiM0VE4l27nw9L6cxw6dEiba9f4GZVw6Fvrv/gCW62tWcJHIxblNzR8k4rIlm0rx7oT+TgQmsbbGudAXPD4olUwBEddziOpb31qRpNyCI7LifMYP+FVjReuzQfUwqEvL5wxA++OH4+EffuYgijfIQv8LRHW26px8Eo6b85nQrB0a5BGMASH7CP7dOTcyxf0kVyrtXkrbeD4JtzD6Bde7JR59VbhUM/9T59m91UbP/kERe7uKPX8AzPWSuDkn43DYekKC03Ch/YZoKGau3hNrfsvG3Dg+FUBHHKtzoDz33WbsGzFSsGx27OhEQ4dlGLQpqVLGaSv7dyx5EAFjoZn8Ga/9xLOHv9KazAEjuKSxaoSpT5LZA1qZzy1VY7H1SQM0jfocGDWCg53BQF+V9n905GrWTgWkcns0IUQLPzuRpvAcKpavi0Y12ISuMOzllxL3Vy5tnDOx+XCfPqsDs+rtwnOiHGzMGeNO45HZjFzu5KCWfNvIfMb43bBCTxjjW9+iBDAoduJzoCz+bAnXp/0luDYbd3QGo7LYX88OdoCHtfv8Gb+rTeWWmxGk14PyJ/SBfYrgi2nDE0t5TwWK4tRXVMn6De5lqpVFm1RztmYHAwfOQqpaopyghOq2dAKTlW1FAOGmMLxl1CcvpHNbP3pMIyxi4GZVW9U/UsX0NGBvK8e5KP1gFPaQ9q57yjO+UYKutfQ1NQpcOYttcc6ewfBsduyoRWcOV/uxHiLr3HuZg5v45ak4FFbU+jY6qDwsR4MDgFikProQv6KHuCtGVKirxkrhrXsdGWtTGl9jirlpCVk4F70LeRExSP8VjZoKKeYQ8o56BeNp4cZtjswa4STklGEf/c3wqlrGfgz7i4ziy0XMdzOmYEhOI4TdFHfU08AiIF6tAeaZvcEAluHxHKeu3cEfOhGtPnKLlq81BxO2p1C1PkHQPrHnxD/ehy1pzxR7+ePwtAIhEanMzinorNh9va77Z5X1wjH+JW5mLf6CLxv5TJz9onDGLtE6Nr25uEMWaADSU+Fajj1cK1cTxfo3wPyhXpApGpIipwnWACHch51cHIy70Hm44syJyeUurii7OgvqDh9GiIvL0j8/FAXeAklIWG4dC0Za/cew9vvWAiOre1Gq3DcToRC/xlz+Cbm8Way7Ab62k7mwZByyKKHqFDOAzdjrtZLD+jXA/KVukojG+U8VCWU1Qu7XVUr49cEcsq5m1uCeh8flGzZitJ9+1H263EGpTLwEqrDw1ETHQ3xzZuQXruGuuAQlAeFYtCgwe2avlELh4LwoGFm2HokBIG385l9/L0fRiw5qgSG4FhP1YH4X60DYpB69wQG9ACchSpas8sHodfiBHTq6huV4EiCQlC+53teMaQWuvcjKLWJiZCkPrj/y8pi94B18fHYv3I1zF54AV7u7oLja9pQC2fBEle8PHUpgpPzmbmH3cbYxRnQsx2gEk7vL3VQ84hq1+JcrHkr76MHuZEu4KaAFHrOCmuchKMW1XlKH6wmJeWUZORAevoMSnbuwn03N1ScPQdSDIGR3E5mtW1ZXh6rHtSXlLCWtqVZWQh0c8OsSZNYXdzzp580cWHvq4RDQbjPQGOcDU8H1UnIXlp+Df1s31MJhnOtE8aaldMcEHvdVw+Y0BOyk71hueYuyiqqBB2vltSzpbYERxwWAZGzq0I15E7eF5krkWKolEt1bVbOraxCY2UVGkQiRb27oIABos9F/vwz5pibsykldw2TgSrhmLyxEPOWHUR4ehGzL38KwKgl51oFQ4DMrHT4nEcJQrP4o/K9PrpwmbMXx09cEcCh2wlapJ1fLEKjnx9KNm9hsYYCMKmGxZeMDMgKClgBrrGmBlSMozo3tVSgYxMCeXnM5UhllX5+SNi3H59NmcIqD4ITNttQgnPyXBQGDpuIyMxiZp6RKRhrl4RHbIdohEOAWuY8KkGoAZU6+GXM+Ex5pWhJlQSFBWVovOiD4q3bcP+ng8ylqq9cYXGGVNO8UkllXKpzU82bAaqsYqoi9yKYFKMILgX0PdbWWLVgQTMkD18qwaFM2OX4Fdy4U8JswtchGLx4vlZgCA7LeR5ph3vp6CBP1xBj5zQhMOxhB+kVlTEYHJ8HcNzc2AjFw8nNVbhTTQ2bHUFTEz8R0FRXx9RDMYggiuPjFXDOnmOQM77ZgAGP9QH7jvC0EMCxWeqK8e8sB81Bkzl4XMXzdkFagyE4reU8ramoWncAzHSiMMQEmPmVsJdNTXJQzGn0D0Dprt18MG4OhymHXKqujqmGzZI0NCimkaqrQXCYcjg4p08zOMWOm1j8aTnnTz3g4VAQJtV4haXhVm4ZrqUXwmRxrtbuRGA4u6Eh52kJqVG3J870nM92P/IoYDIfSjlPaZUEldGxLBPm3IqVb+Pj2UXTxVMQbqqtZephLkWqEYtZYOYmIcmtKFZxblW0YSObhipSsfCbh/Pq23aYa7cPSXnlzN78JhBPL97CXzB34dq0lPPUUj6jJra03F/R4wn01pHyu40/AHYfFqqntq6B3T7cj0tCg58/xM2H8dRU0JDN1EMjVU0Ng0ItjVjMpXJz2XBPsykUkCl5pOz6nr0Devfqpd6taE0NqSa1oII3+9+uYJxdBp6xO6A2t1EHSpHzCG9G+StvAaxKrz/e0/EXvD3ACJj4qRAO1Xly79ewqZnMnCJURkShITAQ0uBgFkeo6M8AlZSw+NN82pomJSk55IMxxRs3N5Yv7bSciVXz5glP9mCLKYfAHPKMQHqhSGCx2SWwdglk7jXMbpvgfkodGG7/SS1yHnKnCz2tBGA4diafASmZwj6X1UgF81aJmYUoiYxBw6Ug1IVHQJqsSAQJBoGiluIMB4ZiFOVGnGrIpUxGjACtP1L1p0O3CSZv2LBbBddjl5FZXKlk4al5sNwewCAZLP5KK1cz/UhzzlOiOwRDdIpUwjF6A/hig7DLsoYmARwaNGiVxY2UPORGxaGeg5SQyFyIsmYanSi34cCUn/RQBOKt27B79mysmj9feJJmW3zMofxmsKEZnhs/F8HRmcgprVKy4KQ7ePvbyxi3+C4G2FpphHS3n6IIpurqq3sOwEK946reYvt6DwBMVfSbRi1apE2rSTk4tJCAsvjLibnIirgJWeAlSEIuoyYsjA3bFIDpHowDQ7cfAYtsYW5iwiYPmvEQvOThcHu/2e7Jbh1mLNiO5NxS5JZVK5l3bDomrKZKoOo7dM617F/TRV0v1YE5Ws9MLRjOtcZ8BPwRwPVM0YrEdWrh0KQeFbu84+4iIewm6gICUevjC9EpT1bWoKSPwFTu/QH7V6zCgvmfCQ/eYksJDr1fUirCtA/Xo+9AY9jv/B355TUq7UhQIl5aHsNyIa4qyIGhlnKe6l7Kgbm8x0C17sSBodZgDPCurbDHtCIjtVCkUjkcHK4SeCb6Dq5djYPELwBirwsQ//En6rwvIs03BM4+sXhisH6rC55UwuG6cz0uByNNrDBkpDlO+cSjUCRWtgox9njFYNxXyRi15CR62RoJ3O3qUGG2XNuzL1bq7teoGoKj1wsw/RyoquZ6pGjzymu0gkOVwN+isvBLRCYuhibg/OUEuIckwSU4Bd8HpWDyxwuVnstofqZW4XAfpKJXv0HGmGixAvHpRSiprOWtSFTLbgzJ/ZYfCVca/q0sdFDT+yGgBD1TrcBwChr9HrDpB64nirZaWt9mOG5hGfjpSjr2XU7l4aw4+Aeef1H9giet4HBds1m2F4/2N8KcRc64XyUBZa3FlQ/hZJdUITmvEnObDf+PftkbFb0VrlWh+wSMdVLbBKffMGBCizSEVqGmFIiUAnJLt2quHFVwaCWa0XNj1M6rtwkOQcorFOHN91eh7yBj7DkUpAQno0iE5PwKXEkpxvtb/dnwv3rKEjTo6mF7T8c2geHUoyrnKRTVdgqcD1c44stFLQLbAzW0GQ6nouDwVDz97GQ8M3YWzl9OZSMaKYeDk/BgqD0TlYr3l/nhnfl5oMyXu+C2tMNfBz5bx51Z0dLsRMuhvD3K+fZcFAvMqp5Xbzccrqu79nkxFZnPXIfIxDwlONezShCRUYTDF8rwyrxGvPAR0PeptkHq1RcwVVFySSsUsSSQy3PaA4eWBptNnw13FfXlDsMhSET9Y5udbOj/fKUbcytOORwcStKo845HymE6rwnGlnI8OlB7SC98CPzW4rHO+9XSToGzaK8HXnpFecFTp8DhVERlj5ffssETQ82w43AIk31LOL4JebgQn4uvnCow1lqOkdPkIGVocrOBo4GpX3JnUrSU88TcKUVHlUMr7p82Gqk0r96pcLiunzkfBf3hZhj50hx4X4qD1M8fSbGpTDkcnLM378IzOhvWG6sw1howehOgWo46SLp6wEv/Uc55soqrOgXO+4sdlBY8dQkcDtJ3uz3R/3FDuNkthfjkKVQHBOF6TBpTDgfnt8g7oPU+0+zEGDsPGPoqQCBUQRo1DbDfwx1d0dKcemcoZ61HKJ4cOkwwr96lcKj7wV7eePP5MShyWA+Ruzuk/oEovxyGoOtpTDkEhxZCUR6y0+sOJi2UYNx8wMBErgSIAvnLLXIeOseNO6XsxrO9AZncarNfEkzenCaYV+9yOKHe3jAfMwYlTs6oOHsWNVHXIYuPhyz0CgpCr+HPiDQeDmWw+y+nYaNHNiZ8Wodxn0Jp+KcSavQtoXru3q/pFDifbj2EyVOn8QfvHjgvvoj7hw+j0t8fkpQUVrakEqacilIhoUgLvY4TV1NYek9w9oakwikoBSuO5sBkbgPGfPJw+B86AZjb4jeGaLETNxo2X4KiTYZMQzmnHEffJOg/NYz/IZFug1N2zJ3VVqicSSVM/jkKKoLT+uagEMQGR8EtJJmHs/tSMnYEJsNuXwFzpxdmKpSkKueJzy17EPAfrs9pD5zJ85fgO0fF74N1GxxSDs0WMDhlZfwUCk2lEKy6zExWoBL7BiAsMIoph4OzLeA2ysUN2PcrYDIPGG8LHD3Dq5+9KKqUdAqcVScvY+BgfXbMLodD9Vmq01KhidyqNiERsoJCfuq2saqKbZO7EbzyI0cgOfM7LgVGozmcPJGEp0F36d5B/CZ7Qet5gpMLBCu72qOcRQd+x+OD9FnO0+VwqOf0eFLyt9+i3MMD1WFhLO7U3bvHoFBLYGg/BWwK3B5r1+Pg7xE8nANX04Uk1Gzdzq9oNxwayl+3nAfjF8fyz4t2Cxw/Dw/MnDgRWd87MQCkEBq1xDdjWUvbBCbP2QVrZszAVLMpeOwJY0yat4fFnJD0YjU4hLsl9Y1MPVwlUBvlbPaOxfT/fs1Wnv508KDggN0Ch85IgOhJ4kXTLOC78VvccHVlQMJ27cKxpcsYFOOhQ7Fz9WrWwczsIkx8ZzH66pvA9VdfQadb2xDVykBZOC2Y1ATnPzvcMOyZZ/H1OnuV5dJug0MXJCotBT07am5qyh4V0NHRYU8fz506lUFRNV/tGxyPoaPMYWk1V+ula7QiLDyjWC0cB3cfjHvNHFOmTuOHbVXAuxWOqg5ou2+LkycG6hvBYcMmQYrf2vfTiqr4GjJl4M4+MXhnjg1GPDtaqx8I+dvAIQg0AWm1wBGDDYxw6pR2vxfol5TPCuxzV2zEk0MN4aJhNVdz2H8rOFzHqTRCvwFGP1zU2gOvVNL4Zr87DEc8i2XLV6iMK9wxVbV/SzjchRAYAkSguN8E496jZx7emDwVb0+zUKrTcJ/R1P6t4XAXR78mZ2xsjJ27dqGgsBArVq9lz5h39IeH/hFwCBL9VMP69euhb2CA7Tt2ah20OcCq2n8MHFUX19F9/wcLk2Tm1rw+BAAAAABJRU5ErkJggg==;imageBorder=#00CC00;strokeWidth=2;fontColor=#000000;" parent="1" vertex="1">
          <mxGeometry x="1338.22" y="2182" width="52.45" height="61.31" as="geometry" />
        </mxCell>
        <mxCell id="_lroPe5WvMGbtOyixpdy-14" value="&lt;span style=&quot;font-family: Helvetica; font-size: 11px; font-style: normal; font-variant-ligatures: normal; font-variant-caps: normal; font-weight: 400; letter-spacing: normal; orphans: 2; text-align: center; text-indent: 0px; text-transform: none; widows: 2; word-spacing: 0px; -webkit-text-stroke-width: 0px; text-decoration-thickness: initial; text-decoration-style: initial; text-decoration-color: initial; float: none; display: inline !important;&quot;&gt;- POST:&amp;nbsp;&lt;/span&gt;/v2/checkout/orders" style="text;whiteSpace=wrap;html=1;labelBackgroundColor=none;fontColor=#000000;" parent="1" vertex="1">
          <mxGeometry x="1238.22" y="1942" width="370" height="40" as="geometry" />
        </mxCell>
        <mxCell id="_lroPe5WvMGbtOyixpdy-15" value="&lt;span style=&quot;font-family: Helvetica; font-size: 11px; font-style: normal; font-variant-ligatures: normal; font-variant-caps: normal; font-weight: 400; letter-spacing: normal; orphans: 2; text-align: center; text-indent: 0px; text-transform: none; widows: 2; word-spacing: 0px; -webkit-text-stroke-width: 0px; text-decoration-thickness: initial; text-decoration-style: initial; text-decoration-color: initial; float: none; display: inline !important;&quot;&gt;- GET:&amp;nbsp;&lt;/span&gt;/v2/checkout/orders/{id}" style="text;whiteSpace=wrap;html=1;labelBackgroundColor=none;fontColor=#000000;" parent="1" vertex="1">
          <mxGeometry x="1238.22" y="1972.68" width="370" height="40" as="geometry" />
        </mxCell>
        <mxCell id="_lroPe5WvMGbtOyixpdy-16" value="&lt;span style=&quot;font-family: Helvetica; font-size: 11px; font-style: normal; font-variant-ligatures: normal; font-variant-caps: normal; font-weight: 400; letter-spacing: normal; orphans: 2; text-align: center; text-indent: 0px; text-transform: none; widows: 2; word-spacing: 0px; -webkit-text-stroke-width: 0px; text-decoration-thickness: initial; text-decoration-style: initial; text-decoration-color: initial; float: none; display: inline !important;&quot;&gt;- PUT:&amp;nbsp;&lt;/span&gt;/v2/checkout/orders/{id}" style="text;whiteSpace=wrap;html=1;labelBackgroundColor=none;fontColor=#000000;" parent="1" vertex="1">
          <mxGeometry x="1238.22" y="2042" width="370" height="40" as="geometry" />
        </mxCell>
        <mxCell id="_lroPe5WvMGbtOyixpdy-17" value="&lt;span style=&quot;font-family: Helvetica; font-size: 11px; font-style: normal; font-variant-ligatures: normal; font-variant-caps: normal; font-weight: 400; letter-spacing: normal; orphans: 2; text-align: center; text-indent: 0px; text-transform: none; widows: 2; word-spacing: 0px; -webkit-text-stroke-width: 0px; text-decoration-thickness: initial; text-decoration-style: initial; text-decoration-color: initial; float: none; display: inline !important;&quot;&gt;- POST:&amp;nbsp;&lt;/span&gt;/v2/checkout/orders/{id}/confirm-payment-source" style="text;whiteSpace=wrap;html=1;labelBackgroundColor=none;fontColor=#000000;" parent="1" vertex="1">
          <mxGeometry x="1238.22" y="2012" width="370" height="40" as="geometry" />
        </mxCell>
        <mxCell id="_lroPe5WvMGbtOyixpdy-18" value="&lt;span style=&quot;font-family: Helvetica; font-size: 11px; font-style: normal; font-variant-ligatures: normal; font-variant-caps: normal; font-weight: 400; letter-spacing: normal; orphans: 2; text-align: center; text-indent: 0px; text-transform: none; widows: 2; word-spacing: 0px; -webkit-text-stroke-width: 0px; text-decoration-thickness: initial; text-decoration-style: initial; text-decoration-color: initial; float: none; display: inline !important;&quot;&gt;- POST:&amp;nbsp;&lt;/span&gt;/v2/checkout/orders/{id}/authorize" style="text;whiteSpace=wrap;html=1;labelBackgroundColor=none;fontColor=#000000;" parent="1" vertex="1">
          <mxGeometry x="1238.22" y="2072" width="370" height="40" as="geometry" />
        </mxCell>
        <mxCell id="_lroPe5WvMGbtOyixpdy-19" value="&lt;span style=&quot;font-family: Helvetica; font-size: 11px; font-style: normal; font-variant-ligatures: normal; font-variant-caps: normal; font-weight: 400; letter-spacing: normal; orphans: 2; text-align: center; text-indent: 0px; text-transform: none; widows: 2; word-spacing: 0px; -webkit-text-stroke-width: 0px; text-decoration-thickness: initial; text-decoration-style: initial; text-decoration-color: initial; float: none; display: inline !important;&quot;&gt;- POST:&amp;nbsp;&lt;/span&gt;/v2/checkout/orders/{id}/capture" style="text;whiteSpace=wrap;html=1;labelBackgroundColor=none;fontColor=#000000;" parent="1" vertex="1">
          <mxGeometry x="1238.22" y="2112" width="370" height="40" as="geometry" />
        </mxCell>
        <mxCell id="_lroPe5WvMGbtOyixpdy-20" value="&lt;span style=&quot;font-family: Helvetica; font-size: 11px; font-style: normal; font-variant-ligatures: normal; font-variant-caps: normal; letter-spacing: normal; orphans: 2; text-align: center; text-indent: 0px; text-transform: none; widows: 2; word-spacing: 0px; -webkit-text-stroke-width: 0px; text-decoration-thickness: initial; text-decoration-style: initial; text-decoration-color: initial; float: none; display: inline !important;&quot;&gt;- POST:&amp;nbsp;&lt;/span&gt;v1/Authorizations" style="text;whiteSpace=wrap;html=1;labelBackgroundColor=none;fontColor=#000000;" parent="1" vertex="1">
          <mxGeometry x="1238.22" y="2272" width="370" height="40" as="geometry" />
        </mxCell>
        <mxCell id="_lroPe5WvMGbtOyixpdy-21" value="&lt;span style=&quot;font-family: Helvetica; font-size: 11px; font-style: normal; font-variant-ligatures: normal; font-variant-caps: normal; letter-spacing: normal; orphans: 2; text-align: center; text-indent: 0px; text-transform: none; widows: 2; word-spacing: 0px; -webkit-text-stroke-width: 0px; text-decoration-thickness: initial; text-decoration-style: initial; text-decoration-color: initial; float: none; display: inline !important;&quot;&gt;- POST:&amp;nbsp;&lt;/span&gt;v1/cips" style="text;whiteSpace=wrap;html=1;labelBackgroundColor=none;fontColor=#000000;" parent="1" vertex="1">
          <mxGeometry x="1238.22" y="2302" width="370" height="40" as="geometry" />
        </mxCell>
        <mxCell id="_lroPe5WvMGbtOyixpdy-22" value="- POST: /&lt;font color=&quot;#ff0000&quot;&gt;ux&lt;/font&gt;-generear-cpi/health&lt;font color=&quot;#ff0000&quot;&gt;/servicio-al-cliente/v1&lt;/font&gt;/generar-cpi" style="edgeLabel;html=1;align=center;verticalAlign=middle;resizable=0;points=[];fontColor=#000000;labelBackgroundColor=none;" parent="1" connectable="0" vertex="1">
          <mxGeometry x="878.2179124315073" y="2311.9988310545596" as="geometry">
            <mxPoint x="-16" y="-69" as="offset" />
          </mxGeometry>
        </mxCell>
        <mxCell id="_lroPe5WvMGbtOyixpdy-23" value="- POST: /&lt;font color=&quot;#ff0000&quot;&gt;ux&lt;/font&gt;-autorizar-cpi/health&lt;font color=&quot;#ff0000&quot;&gt;/servicio-al-cliente/v1&lt;/font&gt;/autorizar-cpi" style="edgeLabel;html=1;align=center;verticalAlign=middle;resizable=0;points=[];fontColor=#000000;labelBackgroundColor=none;" parent="1" connectable="0" vertex="1">
          <mxGeometry x="878.2179124315073" y="2261.9988310545596" as="geometry">
            <mxPoint x="-16" y="-69" as="offset" />
          </mxGeometry>
        </mxCell>
        <mxCell id="_lroPe5WvMGbtOyixpdy-24" value="ux-gestion-medicos/health/servicio-al-cliente/v1//consultar-medicos" style="text;html=1;align=center;verticalAlign=middle;resizable=0;points=[];autosize=1;strokeColor=none;fillColor=none;labelBackgroundColor=none;fontColor=#000000;" parent="1" vertex="1">
          <mxGeometry x="745" y="1701" width="380" height="30" as="geometry" />
        </mxCell>
        <mxCell id="_lroPe5WvMGbtOyixpdy-25" value="ux-gestion-medicos/health/servicio-al-cliente/v1//consultar-especialidades" style="text;html=1;align=center;verticalAlign=middle;resizable=0;points=[];autosize=1;strokeColor=none;fillColor=none;labelBackgroundColor=none;fontColor=#000000;" parent="1" vertex="1">
          <mxGeometry x="757" y="1661" width="410" height="30" as="geometry" />
        </mxCell>
        <mxCell id="_lroPe5WvMGbtOyixpdy-26" value="- GET: /&lt;font color=&quot;#ff0000&quot;&gt;ux&lt;/font&gt;-pagos/health/&lt;font color=&quot;#ff0000&quot;&gt;servicio-al-cliente/v1&lt;/font&gt;/detalle-ordenes" style="edgeLabel;html=1;align=center;verticalAlign=middle;resizable=0;points=[];fontColor=#000000;labelBackgroundColor=none;" parent="1" connectable="0" vertex="1">
          <mxGeometry x="878.2179124315073" y="2081.99883105456" as="geometry" />
        </mxCell>
        <mxCell id="_lroPe5WvMGbtOyixpdy-27" value="&lt;h1 style=&quot;border-color: var(--border-color); color: rgb(0, 0, 0); font-family: Helvetica; font-style: normal; font-variant-ligatures: normal; font-variant-caps: normal; letter-spacing: normal; orphans: 2; text-align: left; text-indent: 0px; text-transform: none; widows: 2; word-spacing: 0px; -webkit-text-stroke-width: 0px; background-color: rgb(251, 251, 251); text-decoration-thickness: initial; text-decoration-style: initial; text-decoration-color: initial;&quot;&gt;&lt;span style=&quot;font-size: 12px; font-weight: 400;&quot;&gt;API Registro Pago&lt;/span&gt;&lt;br&gt;&lt;/h1&gt;&lt;div style=&quot;border-color: var(--border-color); color: rgb(0, 0, 0); font-family: Helvetica; font-size: 12px; font-style: normal; font-variant-ligatures: normal; font-variant-caps: normal; font-weight: 400; letter-spacing: normal; orphans: 2; text-align: left; text-indent: 0px; text-transform: none; widows: 2; word-spacing: 0px; -webkit-text-stroke-width: 0px; background-color: rgb(251, 251, 251); text-decoration-thickness: initial; text-decoration-style: initial; text-decoration-color: initial;&quot;&gt;API Registro Datos bancarios&lt;/div&gt;" style="text;whiteSpace=wrap;html=1;" parent="1" vertex="1">
          <mxGeometry x="3113.22" y="2515.35" width="190" height="60" as="geometry" />
        </mxCell>
        <mxCell id="_lroPe5WvMGbtOyixpdy-28" value="&lt;h1 style=&quot;border-color: var(--border-color); color: rgb(0, 0, 0); font-family: Helvetica; font-style: normal; font-variant-ligatures: normal; font-variant-caps: normal; letter-spacing: normal; orphans: 2; text-align: left; text-indent: 0px; text-transform: none; widows: 2; word-spacing: 0px; -webkit-text-stroke-width: 0px; background-color: rgb(251, 251, 251); text-decoration-thickness: initial; text-decoration-style: initial; text-decoration-color: initial;&quot;&gt;&lt;span style=&quot;font-size: 12px; font-weight: 400;&quot;&gt;Notifaciones de Pago&lt;/span&gt;&lt;/h1&gt;" style="text;whiteSpace=wrap;html=1;" parent="1" vertex="1">
          <mxGeometry x="3113.22" y="2690.35" width="190" height="60" as="geometry" />
        </mxCell>
        <mxCell id="_lroPe5WvMGbtOyixpdy-29" value="- POST:&amp;nbsp;v1/mercadopago" style="text;html=1;align=center;verticalAlign=middle;resizable=0;points=[];autosize=1;strokeColor=none;fillColor=none;fontColor=#000000;" parent="1" vertex="1">
          <mxGeometry x="2238.22" y="2458" width="160" height="30" as="geometry" />
        </mxCell>
        <mxCell id="_lroPe5WvMGbtOyixpdy-30" value="- GET:&amp;nbsp;/v1/mercadopago/payments/search?sort=date_created&amp;amp;criteria=desc&amp;amp;external_reference=ID_REF&amp;amp;range=date_created" style="text;html=1;align=center;verticalAlign=middle;resizable=0;points=[];autosize=1;strokeColor=none;fillColor=none;fontColor=#000000;" parent="1" vertex="1">
          <mxGeometry x="2238.22" y="2503" width="700" height="30" as="geometry" />
        </mxCell>
        <mxCell id="_lroPe5WvMGbtOyixpdy-31" value="- GET:&amp;nbsp;v1/mercadopago/payments/{id}&lt;span style=&quot;background-color: initial; font-family: &amp;quot;Roboto Mono&amp;quot;, monospace; font-size: 1em; text-align: left;&quot;&gt;\&lt;/span&gt;" style="text;html=1;align=center;verticalAlign=middle;resizable=0;points=[];autosize=1;strokeColor=none;fillColor=none;fontColor=#000000;" parent="1" vertex="1">
          <mxGeometry x="2238.22" y="2539.6499999999996" width="230" height="30" as="geometry" />
        </mxCell>
        <mxCell id="_lroPe5WvMGbtOyixpdy-32" value="- POST:&amp;nbsp;v2/yape" style="text;html=1;align=center;verticalAlign=middle;resizable=0;points=[];autosize=1;strokeColor=none;fillColor=none;fontColor=#000000;" parent="1" vertex="1">
          <mxGeometry x="2246.22" y="2645.3499999999995" width="110" height="30" as="geometry" />
        </mxCell>
        <mxCell id="_lroPe5WvMGbtOyixpdy-33" value="- GET:&amp;nbsp;/v2/yape/payments/payments/search?external_reference=ID_REF" style="text;html=1;align=left;verticalAlign=middle;resizable=0;points=[];autosize=1;strokeColor=none;fillColor=none;fontColor=#000000;" parent="1" vertex="1">
          <mxGeometry x="2256.22" y="2690.3499999999995" width="410" height="30" as="geometry" />
        </mxCell>
        <mxCell id="_lroPe5WvMGbtOyixpdy-34" value="- GET:&amp;nbsp;v2/yape/payments/{id}&lt;span style=&quot;background-color: initial; font-family: &amp;quot;Roboto Mono&amp;quot;, monospace; font-size: 1em; text-align: left;&quot;&gt;\&lt;/span&gt;" style="text;html=1;align=center;verticalAlign=middle;resizable=0;points=[];autosize=1;strokeColor=none;fillColor=none;fontColor=#000000;" parent="1" vertex="1">
          <mxGeometry x="2246.22" y="2720.3499999999995" width="190" height="30" as="geometry" />
        </mxCell>
        <mxCell id="_lroPe5WvMGbtOyixpdy-35" value="- GET: /&lt;font color=&quot;#ff0000&quot;&gt;ux&lt;/font&gt;-gestion-pagos/appcodigo/&lt;font color=&quot;#ff0000&quot;&gt;servicio-al-cliente/v1&lt;/font&gt;/realizar-pagos/{id_usuario}" style="edgeLabel;html=1;align=center;verticalAlign=middle;resizable=0;points=[];fontColor=#000000;labelBackgroundColor=none;" parent="1" connectable="0" vertex="1">
          <mxGeometry x="606.9979124315073" y="2465.99883105456" as="geometry" />
        </mxCell>
        <mxCell id="_lroPe5WvMGbtOyixpdy-36" style="edgeStyle=orthogonalEdgeStyle;rounded=0;orthogonalLoop=1;jettySize=auto;html=1;labelBackgroundColor=none;" parent="1" source="_lroPe5WvMGbtOyixpdy-37" target="_lroPe5WvMGbtOyixpdy-40" edge="1">
          <mxGeometry relative="1" as="geometry" />
        </mxCell>
        <mxCell id="_lroPe5WvMGbtOyixpdy-37" value="API UX&#xa;Gestion Pagos" style="shape=image;verticalLabelPosition=bottom;labelBackgroundColor=none;verticalAlign=top;aspect=fixed;imageAspect=0;image=data:image/png,iVBORw0KGgoAAAANSUhEUgAAAEcAAABTCAYAAADN9xqSAAAWgUlEQVR4Ae2cC1hUVdfHEczXt7yVClaKpGmUKZSZVBaaSVmiZKWYlrz1ipj3VDAtvN/iYmqppEmmiKaFIlcBUUAQERCQO4LIHYHhMswwXOb/PWuP58hhZpjh+lTvx/OsZ885M3POPj/+a+111t5ndPD/f2oJ6Kh95y/0hpeXFxw3ber2Hv2l4RAUExMTTJ9hiVGjn0N8fHy3AvpLwlFAMcUHljMREn4dBRVibNqxGytXrvrfhcNBsZw5E1cjo1FWLUVJpYTBiU3JguHw4ZBKpd0G6C+hHAbF1BSWM2fhWnQMqiQyVIjrBHDuldVg1uyP4enp+b8Bh6CYmppi5qxZiI6JRa2sATXSerVwPL188dZb5v9sOByUWbOsEBMbC1lDI6T1jRrh5JRWY5jhcOTk5HQLoG51Kw6KlZUVYmPj0NDYhPrGpjbBWbtxMxwc1v+z4Lz33nsgKHFx8WiSy9HYJG8XnMiEdBgadk9g7hblUBC1trZm/225HB2Ck1lUCYvpM0Aq7Oq/LodDQ6+RkRGKioo6Dc6BX06wke1vD2fVqlXYu3ev4Do64laknJSCCujrG/DABQfvxI0uVQ6l+2ZmZkqJW2fAWbLaocvvt7oUzssTJiM0NFTpfynvQEDmlBMQGc8Cs9LBO3FHl8FZt/UULK0UQVhVf9s7WnFwEu+V480p78Df31/V4TtlX5fAKS2XYpDBwyCsqqedAcfF7XiXBuYugTNlxko4u7iqYsLvoyG9PUlgc+VEpeVjqKFhlwVmreFIa2vheegQNi1fziwnNZW/0OYvzvvHY4TxRKUg3Pwz3OuOwonNuY9Pv1gMV9fW/xHc+draagUnPiICxsOGYc6kSdjw4YfMjAwMYGNpiZaQhowwh7XjaYRmlkAkkbH+pGek4SOHLMjqhOUGcq223j40Vw7BORMYwQphbb1wbT6vEc4xJydMNDbGLWcXVJw+g4o//mRt+YkTOGxrCwZpxgwGyWH7KRiafIwtfkm8FVVJYbPpFmy+i4Z3YLigTzRqdRROdFYJJrw2SeWoKDhZOzZahZMaFwfTkSNRfNIDlf4BqImMhPjGDdZWXw2D6OJFlP1yDAcX2mC4vgH+3W84VrpHYKv/bd6cf/WFy48/4ubFybDdFqPUxc6As2H3Pnz2+UKlY3d0h1o4FGNMn30WMT/8AAIhjouHNCMDddnZzCQpqQwSB2j7lnTM2XoD2wNu87brQhhm26dDFt0buKkDyzW5KCjKE/SZXKstJYuWbkXKuZyUi8H6BhCJRIJjd3RDLZxDO3Zg0fTpqAoOQW1SEupyc1FfWoqGigo0lJVBVlTEYJGakk4G4wP7Wmz3S8HOwGTebDZFM8UQGDI3t61w8wgR9JlGrY7Cicgoxlwb204PzGrhkGoiXFyZG5FaCEijWAy5TIYmqRSNlZWQ5eczcIscK7Dyt1zsCkzmbcex8/jO5SSDwsEpCDWC5Zp7Aji0Qa6lbbFLlXIIzhGvILw4dpzSsTuyQyWcotxcDHn8cRZTyJ1INQRDXl8PyOWQNzYyUKSkoHN38MmWKuy5lMyb08UozLbPQPW1AQI4BMl2SzhutphiIdfqKJzQ1EKMe/kVREVFdYSH4Lsq4UQFBbERiuKJAI5MBnlTE+QNDQyOuKAUFqvrsP1iBpyDUnhbsiMMIec+UgJDcLw9bLD5R+H9lhzoFDgrHHdhke1iwQV2ZKNVODRsU0yhQEwqaayuZi7VJJGw2LP/cCFs99+Ha3AKb07HL8BhzzmVYAgOBefJyyuVch5yLU0Fdqohq3MrUo5P7B30699fqwRUG2gq4dBINaBPHxS6/cyGcKae7GwWhCn2EKi7sXcxfa0UrpfSsC8kVWEBscydysKHqIVDgDa7nlTKeaiM0VE4l27nw9L6cxw6dEiba9f4GZVw6Fvrv/gCW62tWcJHIxblNzR8k4rIlm0rx7oT+TgQmsbbGudAXPD4olUwBEddziOpb31qRpNyCI7LifMYP+FVjReuzQfUwqEvL5wxA++OH4+EffuYgijfIQv8LRHW26px8Eo6b85nQrB0a5BGMASH7CP7dOTcyxf0kVyrtXkrbeD4JtzD6Bde7JR59VbhUM/9T59m91UbP/kERe7uKPX8AzPWSuDkn43DYekKC03Ch/YZoKGau3hNrfsvG3Dg+FUBHHKtzoDz33WbsGzFSsGx27OhEQ4dlGLQpqVLGaSv7dyx5EAFjoZn8Ga/9xLOHv9KazAEjuKSxaoSpT5LZA1qZzy1VY7H1SQM0jfocGDWCg53BQF+V9n905GrWTgWkcns0IUQLPzuRpvAcKpavi0Y12ISuMOzllxL3Vy5tnDOx+XCfPqsDs+rtwnOiHGzMGeNO45HZjFzu5KCWfNvIfMb43bBCTxjjW9+iBDAoduJzoCz+bAnXp/0luDYbd3QGo7LYX88OdoCHtfv8Gb+rTeWWmxGk14PyJ/SBfYrgi2nDE0t5TwWK4tRXVMn6De5lqpVFm1RztmYHAwfOQqpaopyghOq2dAKTlW1FAOGmMLxl1CcvpHNbP3pMIyxi4GZVW9U/UsX0NGBvK8e5KP1gFPaQ9q57yjO+UYKutfQ1NQpcOYttcc6ewfBsduyoRWcOV/uxHiLr3HuZg5v45ak4FFbU+jY6qDwsR4MDgFikProQv6KHuCtGVKirxkrhrXsdGWtTGl9jirlpCVk4F70LeRExSP8VjZoKKeYQ8o56BeNp4cZtjswa4STklGEf/c3wqlrGfgz7i4ziy0XMdzOmYEhOI4TdFHfU08AiIF6tAeaZvcEAluHxHKeu3cEfOhGtPnKLlq81BxO2p1C1PkHQPrHnxD/ehy1pzxR7+ePwtAIhEanMzinorNh9va77Z5X1wjH+JW5mLf6CLxv5TJz9onDGLtE6Nr25uEMWaADSU+Fajj1cK1cTxfo3wPyhXpApGpIipwnWACHch51cHIy70Hm44syJyeUurii7OgvqDh9GiIvL0j8/FAXeAklIWG4dC0Za/cew9vvWAiOre1Gq3DcToRC/xlz+Cbm8Way7Ab62k7mwZByyKKHqFDOAzdjrtZLD+jXA/KVukojG+U8VCWU1Qu7XVUr49cEcsq5m1uCeh8flGzZitJ9+1H263EGpTLwEqrDw1ETHQ3xzZuQXruGuuAQlAeFYtCgwe2avlELh4LwoGFm2HokBIG385l9/L0fRiw5qgSG4FhP1YH4X60DYpB69wQG9ACchSpas8sHodfiBHTq6huV4EiCQlC+53teMaQWuvcjKLWJiZCkPrj/y8pi94B18fHYv3I1zF54AV7u7oLja9pQC2fBEle8PHUpgpPzmbmH3cbYxRnQsx2gEk7vL3VQ84hq1+JcrHkr76MHuZEu4KaAFHrOCmuchKMW1XlKH6wmJeWUZORAevoMSnbuwn03N1ScPQdSDIGR3E5mtW1ZXh6rHtSXlLCWtqVZWQh0c8OsSZNYXdzzp580cWHvq4RDQbjPQGOcDU8H1UnIXlp+Df1s31MJhnOtE8aaldMcEHvdVw+Y0BOyk71hueYuyiqqBB2vltSzpbYERxwWAZGzq0I15E7eF5krkWKolEt1bVbOraxCY2UVGkQiRb27oIABos9F/vwz5pibsykldw2TgSrhmLyxEPOWHUR4ehGzL38KwKgl51oFQ4DMrHT4nEcJQrP4o/K9PrpwmbMXx09cEcCh2wlapJ1fLEKjnx9KNm9hsYYCMKmGxZeMDMgKClgBrrGmBlSMozo3tVSgYxMCeXnM5UhllX5+SNi3H59NmcIqD4ITNttQgnPyXBQGDpuIyMxiZp6RKRhrl4RHbIdohEOAWuY8KkGoAZU6+GXM+Ex5pWhJlQSFBWVovOiD4q3bcP+ng8ylqq9cYXGGVNO8UkllXKpzU82bAaqsYqoi9yKYFKMILgX0PdbWWLVgQTMkD18qwaFM2OX4Fdy4U8JswtchGLx4vlZgCA7LeR5ph3vp6CBP1xBj5zQhMOxhB+kVlTEYHJ8HcNzc2AjFw8nNVbhTTQ2bHUFTEz8R0FRXx9RDMYggiuPjFXDOnmOQM77ZgAGP9QH7jvC0EMCxWeqK8e8sB81Bkzl4XMXzdkFagyE4reU8ramoWncAzHSiMMQEmPmVsJdNTXJQzGn0D0Dprt18MG4OhymHXKqujqmGzZI0NCimkaqrQXCYcjg4p08zOMWOm1j8aTnnTz3g4VAQJtV4haXhVm4ZrqUXwmRxrtbuRGA4u6Eh52kJqVG3J870nM92P/IoYDIfSjlPaZUEldGxLBPm3IqVb+Pj2UXTxVMQbqqtZephLkWqEYtZYOYmIcmtKFZxblW0YSObhipSsfCbh/Pq23aYa7cPSXnlzN78JhBPL97CXzB34dq0lPPUUj6jJra03F/R4wn01pHyu40/AHYfFqqntq6B3T7cj0tCg58/xM2H8dRU0JDN1EMjVU0Ng0ItjVjMpXJz2XBPsykUkCl5pOz6nr0Devfqpd6taE0NqSa1oII3+9+uYJxdBp6xO6A2t1EHSpHzCG9G+StvAaxKrz/e0/EXvD3ACJj4qRAO1Xly79ewqZnMnCJURkShITAQ0uBgFkeo6M8AlZSw+NN82pomJSk55IMxxRs3N5Yv7bSciVXz5glP9mCLKYfAHPKMQHqhSGCx2SWwdglk7jXMbpvgfkodGG7/SS1yHnKnCz2tBGA4diafASmZwj6X1UgF81aJmYUoiYxBw6Ug1IVHQJqsSAQJBoGiluIMB4ZiFOVGnGrIpUxGjACtP1L1p0O3CSZv2LBbBddjl5FZXKlk4al5sNwewCAZLP5KK1cz/UhzzlOiOwRDdIpUwjF6A/hig7DLsoYmARwaNGiVxY2UPORGxaGeg5SQyFyIsmYanSi34cCUn/RQBOKt27B79mysmj9feJJmW3zMofxmsKEZnhs/F8HRmcgprVKy4KQ7ePvbyxi3+C4G2FpphHS3n6IIpurqq3sOwEK946reYvt6DwBMVfSbRi1apE2rSTk4tJCAsvjLibnIirgJWeAlSEIuoyYsjA3bFIDpHowDQ7cfAYtsYW5iwiYPmvEQvOThcHu/2e7Jbh1mLNiO5NxS5JZVK5l3bDomrKZKoOo7dM617F/TRV0v1YE5Ws9MLRjOtcZ8BPwRwPVM0YrEdWrh0KQeFbu84+4iIewm6gICUevjC9EpT1bWoKSPwFTu/QH7V6zCgvmfCQ/eYksJDr1fUirCtA/Xo+9AY9jv/B355TUq7UhQIl5aHsNyIa4qyIGhlnKe6l7Kgbm8x0C17sSBodZgDPCurbDHtCIjtVCkUjkcHK4SeCb6Dq5djYPELwBirwsQ//En6rwvIs03BM4+sXhisH6rC55UwuG6cz0uByNNrDBkpDlO+cSjUCRWtgox9njFYNxXyRi15CR62RoJ3O3qUGG2XNuzL1bq7teoGoKj1wsw/RyoquZ6pGjzymu0gkOVwN+isvBLRCYuhibg/OUEuIckwSU4Bd8HpWDyxwuVnstofqZW4XAfpKJXv0HGmGixAvHpRSiprOWtSFTLbgzJ/ZYfCVca/q0sdFDT+yGgBD1TrcBwChr9HrDpB64nirZaWt9mOG5hGfjpSjr2XU7l4aw4+Aeef1H9giet4HBds1m2F4/2N8KcRc64XyUBZa3FlQ/hZJdUITmvEnObDf+PftkbFb0VrlWh+wSMdVLbBKffMGBCizSEVqGmFIiUAnJLt2quHFVwaCWa0XNj1M6rtwkOQcorFOHN91eh7yBj7DkUpAQno0iE5PwKXEkpxvtb/dnwv3rKEjTo6mF7T8c2geHUoyrnKRTVdgqcD1c44stFLQLbAzW0GQ6nouDwVDz97GQ8M3YWzl9OZSMaKYeDk/BgqD0TlYr3l/nhnfl5oMyXu+C2tMNfBz5bx51Z0dLsRMuhvD3K+fZcFAvMqp5Xbzccrqu79nkxFZnPXIfIxDwlONezShCRUYTDF8rwyrxGvPAR0PeptkHq1RcwVVFySSsUsSSQy3PaA4eWBptNnw13FfXlDsMhSET9Y5udbOj/fKUbcytOORwcStKo845HymE6rwnGlnI8OlB7SC98CPzW4rHO+9XSToGzaK8HXnpFecFTp8DhVERlj5ffssETQ82w43AIk31LOL4JebgQn4uvnCow1lqOkdPkIGVocrOBo4GpX3JnUrSU88TcKUVHlUMr7p82Gqk0r96pcLiunzkfBf3hZhj50hx4X4qD1M8fSbGpTDkcnLM378IzOhvWG6sw1howehOgWo46SLp6wEv/Uc55soqrOgXO+4sdlBY8dQkcDtJ3uz3R/3FDuNkthfjkKVQHBOF6TBpTDgfnt8g7oPU+0+zEGDsPGPoqQCBUQRo1DbDfwx1d0dKcemcoZ61HKJ4cOkwwr96lcKj7wV7eePP5MShyWA+Ruzuk/oEovxyGoOtpTDkEhxZCUR6y0+sOJi2UYNx8wMBErgSIAvnLLXIeOseNO6XsxrO9AZncarNfEkzenCaYV+9yOKHe3jAfMwYlTs6oOHsWNVHXIYuPhyz0CgpCr+HPiDQeDmWw+y+nYaNHNiZ8Wodxn0Jp+KcSavQtoXru3q/pFDifbj2EyVOn8QfvHjgvvoj7hw+j0t8fkpQUVrakEqacilIhoUgLvY4TV1NYek9w9oakwikoBSuO5sBkbgPGfPJw+B86AZjb4jeGaLETNxo2X4KiTYZMQzmnHEffJOg/NYz/IZFug1N2zJ3VVqicSSVM/jkKKoLT+uagEMQGR8EtJJmHs/tSMnYEJsNuXwFzpxdmKpSkKueJzy17EPAfrs9pD5zJ85fgO0fF74N1GxxSDs0WMDhlZfwUCk2lEKy6zExWoBL7BiAsMIoph4OzLeA2ysUN2PcrYDIPGG8LHD3Dq5+9KKqUdAqcVScvY+BgfXbMLodD9Vmq01KhidyqNiERsoJCfuq2saqKbZO7EbzyI0cgOfM7LgVGozmcPJGEp0F36d5B/CZ7Qet5gpMLBCu72qOcRQd+x+OD9FnO0+VwqOf0eFLyt9+i3MMD1WFhLO7U3bvHoFBLYGg/BWwK3B5r1+Pg7xE8nANX04Uk1Gzdzq9oNxwayl+3nAfjF8fyz4t2Cxw/Dw/MnDgRWd87MQCkEBq1xDdjWUvbBCbP2QVrZszAVLMpeOwJY0yat4fFnJD0YjU4hLsl9Y1MPVwlUBvlbPaOxfT/fs1Wnv508KDggN0Ch85IgOhJ4kXTLOC78VvccHVlQMJ27cKxpcsYFOOhQ7Fz9WrWwczsIkx8ZzH66pvA9VdfQadb2xDVykBZOC2Y1ATnPzvcMOyZZ/H1OnuV5dJug0MXJCotBT07am5qyh4V0NHRYU8fz506lUFRNV/tGxyPoaPMYWk1V+ula7QiLDyjWC0cB3cfjHvNHFOmTuOHbVXAuxWOqg5ou2+LkycG6hvBYcMmQYrf2vfTiqr4GjJl4M4+MXhnjg1GPDtaqx8I+dvAIQg0AWm1wBGDDYxw6pR2vxfol5TPCuxzV2zEk0MN4aJhNVdz2H8rOFzHqTRCvwFGP1zU2gOvVNL4Zr87DEc8i2XLV6iMK9wxVbV/SzjchRAYAkSguN8E496jZx7emDwVb0+zUKrTcJ/R1P6t4XAXR78mZ2xsjJ27dqGgsBArVq9lz5h39IeH/hFwCBL9VMP69euhb2CA7Tt2ah20OcCq2n8MHFUX19F9/wcLk2Tm1rw+BAAAAABJRU5ErkJggg==;imageBorder=#00CC00;strokeWidth=2;fontColor=#000000;" parent="1" vertex="1">
          <mxGeometry x="917" y="2470.34" width="52.45" height="61.31" as="geometry" />
        </mxCell>
        <mxCell id="_lroPe5WvMGbtOyixpdy-38" style="edgeStyle=orthogonalEdgeStyle;rounded=0;orthogonalLoop=1;jettySize=auto;html=1;" parent="1" source="_lroPe5WvMGbtOyixpdy-40" edge="1">
          <mxGeometry relative="1" as="geometry">
            <mxPoint x="2978.22" y="2502.307692307692" as="targetPoint" />
          </mxGeometry>
        </mxCell>
        <mxCell id="_lroPe5WvMGbtOyixpdy-39" style="edgeStyle=orthogonalEdgeStyle;rounded=0;orthogonalLoop=1;jettySize=auto;html=1;exitX=1;exitY=0.5;exitDx=0;exitDy=0;entryX=0;entryY=0.5;entryDx=0;entryDy=0;" parent="1" source="_lroPe5WvMGbtOyixpdy-40" edge="1">
          <mxGeometry relative="1" as="geometry">
            <mxPoint x="2954.22" y="2720.35" as="targetPoint" />
            <Array as="points">
              <mxPoint x="2198.22" y="2502" />
              <mxPoint x="2198.22" y="2720" />
            </Array>
          </mxGeometry>
        </mxCell>
        <mxCell id="_lroPe5WvMGbtOyixpdy-40" value="API NE&#xa;Gestion Pagos" style="shape=image;verticalLabelPosition=bottom;labelBackgroundColor=none;verticalAlign=top;aspect=fixed;imageAspect=0;image=data:image/png,iVBORw0KGgoAAAANSUhEUgAAAEcAAABTCAYAAADN9xqSAAAWgUlEQVR4Ae2cC1hUVdfHEczXt7yVClaKpGmUKZSZVBaaSVmiZKWYlrz1ipj3VDAtvN/iYmqppEmmiKaFIlcBUUAQERCQO4LIHYHhMswwXOb/PWuP58hhZpjh+lTvx/OsZ885M3POPj/+a+111t5ndPD/f2oJ6Kh95y/0hpeXFxw3ber2Hv2l4RAUExMTTJ9hiVGjn0N8fHy3AvpLwlFAMcUHljMREn4dBRVibNqxGytXrvrfhcNBsZw5E1cjo1FWLUVJpYTBiU3JguHw4ZBKpd0G6C+hHAbF1BSWM2fhWnQMqiQyVIjrBHDuldVg1uyP4enp+b8Bh6CYmppi5qxZiI6JRa2sATXSerVwPL188dZb5v9sOByUWbOsEBMbC1lDI6T1jRrh5JRWY5jhcOTk5HQLoG51Kw6KlZUVYmPj0NDYhPrGpjbBWbtxMxwc1v+z4Lz33nsgKHFx8WiSy9HYJG8XnMiEdBgadk9g7hblUBC1trZm/225HB2Ck1lUCYvpM0Aq7Oq/LodDQ6+RkRGKioo6Dc6BX06wke1vD2fVqlXYu3ev4Do64laknJSCCujrG/DABQfvxI0uVQ6l+2ZmZkqJW2fAWbLaocvvt7oUzssTJiM0NFTpfynvQEDmlBMQGc8Cs9LBO3FHl8FZt/UULK0UQVhVf9s7WnFwEu+V480p78Df31/V4TtlX5fAKS2XYpDBwyCsqqedAcfF7XiXBuYugTNlxko4u7iqYsLvoyG9PUlgc+VEpeVjqKFhlwVmreFIa2vheegQNi1fziwnNZW/0OYvzvvHY4TxRKUg3Pwz3OuOwonNuY9Pv1gMV9fW/xHc+draagUnPiICxsOGYc6kSdjw4YfMjAwMYGNpiZaQhowwh7XjaYRmlkAkkbH+pGek4SOHLMjqhOUGcq223j40Vw7BORMYwQphbb1wbT6vEc4xJydMNDbGLWcXVJw+g4o//mRt+YkTOGxrCwZpxgwGyWH7KRiafIwtfkm8FVVJYbPpFmy+i4Z3YLigTzRqdRROdFYJJrw2SeWoKDhZOzZahZMaFwfTkSNRfNIDlf4BqImMhPjGDdZWXw2D6OJFlP1yDAcX2mC4vgH+3W84VrpHYKv/bd6cf/WFy48/4ubFybDdFqPUxc6As2H3Pnz2+UKlY3d0h1o4FGNMn30WMT/8AAIhjouHNCMDddnZzCQpqQwSB2j7lnTM2XoD2wNu87brQhhm26dDFt0buKkDyzW5KCjKE/SZXKstJYuWbkXKuZyUi8H6BhCJRIJjd3RDLZxDO3Zg0fTpqAoOQW1SEupyc1FfWoqGigo0lJVBVlTEYJGakk4G4wP7Wmz3S8HOwGTebDZFM8UQGDI3t61w8wgR9JlGrY7Cicgoxlwb204PzGrhkGoiXFyZG5FaCEijWAy5TIYmqRSNlZWQ5eczcIscK7Dyt1zsCkzmbcex8/jO5SSDwsEpCDWC5Zp7Aji0Qa6lbbFLlXIIzhGvILw4dpzSsTuyQyWcotxcDHn8cRZTyJ1INQRDXl8PyOWQNzYyUKSkoHN38MmWKuy5lMyb08UozLbPQPW1AQI4BMl2SzhutphiIdfqKJzQ1EKMe/kVREVFdYSH4Lsq4UQFBbERiuKJAI5MBnlTE+QNDQyOuKAUFqvrsP1iBpyDUnhbsiMMIec+UgJDcLw9bLD5R+H9lhzoFDgrHHdhke1iwQV2ZKNVODRsU0yhQEwqaayuZi7VJJGw2LP/cCFs99+Ha3AKb07HL8BhzzmVYAgOBefJyyuVch5yLU0Fdqohq3MrUo5P7B30699fqwRUG2gq4dBINaBPHxS6/cyGcKae7GwWhCn2EKi7sXcxfa0UrpfSsC8kVWEBscydysKHqIVDgDa7nlTKeaiM0VE4l27nw9L6cxw6dEiba9f4GZVw6Fvrv/gCW62tWcJHIxblNzR8k4rIlm0rx7oT+TgQmsbbGudAXPD4olUwBEddziOpb31qRpNyCI7LifMYP+FVjReuzQfUwqEvL5wxA++OH4+EffuYgijfIQv8LRHW26px8Eo6b85nQrB0a5BGMASH7CP7dOTcyxf0kVyrtXkrbeD4JtzD6Bde7JR59VbhUM/9T59m91UbP/kERe7uKPX8AzPWSuDkn43DYekKC03Ch/YZoKGau3hNrfsvG3Dg+FUBHHKtzoDz33WbsGzFSsGx27OhEQ4dlGLQpqVLGaSv7dyx5EAFjoZn8Ga/9xLOHv9KazAEjuKSxaoSpT5LZA1qZzy1VY7H1SQM0jfocGDWCg53BQF+V9n905GrWTgWkcns0IUQLPzuRpvAcKpavi0Y12ISuMOzllxL3Vy5tnDOx+XCfPqsDs+rtwnOiHGzMGeNO45HZjFzu5KCWfNvIfMb43bBCTxjjW9+iBDAoduJzoCz+bAnXp/0luDYbd3QGo7LYX88OdoCHtfv8Gb+rTeWWmxGk14PyJ/SBfYrgi2nDE0t5TwWK4tRXVMn6De5lqpVFm1RztmYHAwfOQqpaopyghOq2dAKTlW1FAOGmMLxl1CcvpHNbP3pMIyxi4GZVW9U/UsX0NGBvK8e5KP1gFPaQ9q57yjO+UYKutfQ1NQpcOYttcc6ewfBsduyoRWcOV/uxHiLr3HuZg5v45ak4FFbU+jY6qDwsR4MDgFikProQv6KHuCtGVKirxkrhrXsdGWtTGl9jirlpCVk4F70LeRExSP8VjZoKKeYQ8o56BeNp4cZtjswa4STklGEf/c3wqlrGfgz7i4ziy0XMdzOmYEhOI4TdFHfU08AiIF6tAeaZvcEAluHxHKeu3cEfOhGtPnKLlq81BxO2p1C1PkHQPrHnxD/ehy1pzxR7+ePwtAIhEanMzinorNh9va77Z5X1wjH+JW5mLf6CLxv5TJz9onDGLtE6Nr25uEMWaADSU+Fajj1cK1cTxfo3wPyhXpApGpIipwnWACHch51cHIy70Hm44syJyeUurii7OgvqDh9GiIvL0j8/FAXeAklIWG4dC0Za/cew9vvWAiOre1Gq3DcToRC/xlz+Cbm8Way7Ab62k7mwZByyKKHqFDOAzdjrtZLD+jXA/KVukojG+U8VCWU1Qu7XVUr49cEcsq5m1uCeh8flGzZitJ9+1H263EGpTLwEqrDw1ETHQ3xzZuQXruGuuAQlAeFYtCgwe2avlELh4LwoGFm2HokBIG385l9/L0fRiw5qgSG4FhP1YH4X60DYpB69wQG9ACchSpas8sHodfiBHTq6huV4EiCQlC+53teMaQWuvcjKLWJiZCkPrj/y8pi94B18fHYv3I1zF54AV7u7oLja9pQC2fBEle8PHUpgpPzmbmH3cbYxRnQsx2gEk7vL3VQ84hq1+JcrHkr76MHuZEu4KaAFHrOCmuchKMW1XlKH6wmJeWUZORAevoMSnbuwn03N1ScPQdSDIGR3E5mtW1ZXh6rHtSXlLCWtqVZWQh0c8OsSZNYXdzzp580cWHvq4RDQbjPQGOcDU8H1UnIXlp+Df1s31MJhnOtE8aaldMcEHvdVw+Y0BOyk71hueYuyiqqBB2vltSzpbYERxwWAZGzq0I15E7eF5krkWKolEt1bVbOraxCY2UVGkQiRb27oIABos9F/vwz5pibsykldw2TgSrhmLyxEPOWHUR4ehGzL38KwKgl51oFQ4DMrHT4nEcJQrP4o/K9PrpwmbMXx09cEcCh2wlapJ1fLEKjnx9KNm9hsYYCMKmGxZeMDMgKClgBrrGmBlSMozo3tVSgYxMCeXnM5UhllX5+SNi3H59NmcIqD4ITNttQgnPyXBQGDpuIyMxiZp6RKRhrl4RHbIdohEOAWuY8KkGoAZU6+GXM+Ex5pWhJlQSFBWVovOiD4q3bcP+ng8ylqq9cYXGGVNO8UkllXKpzU82bAaqsYqoi9yKYFKMILgX0PdbWWLVgQTMkD18qwaFM2OX4Fdy4U8JswtchGLx4vlZgCA7LeR5ph3vp6CBP1xBj5zQhMOxhB+kVlTEYHJ8HcNzc2AjFw8nNVbhTTQ2bHUFTEz8R0FRXx9RDMYggiuPjFXDOnmOQM77ZgAGP9QH7jvC0EMCxWeqK8e8sB81Bkzl4XMXzdkFagyE4reU8ramoWncAzHSiMMQEmPmVsJdNTXJQzGn0D0Dprt18MG4OhymHXKqujqmGzZI0NCimkaqrQXCYcjg4p08zOMWOm1j8aTnnTz3g4VAQJtV4haXhVm4ZrqUXwmRxrtbuRGA4u6Eh52kJqVG3J870nM92P/IoYDIfSjlPaZUEldGxLBPm3IqVb+Pj2UXTxVMQbqqtZephLkWqEYtZYOYmIcmtKFZxblW0YSObhipSsfCbh/Pq23aYa7cPSXnlzN78JhBPL97CXzB34dq0lPPUUj6jJra03F/R4wn01pHyu40/AHYfFqqntq6B3T7cj0tCg58/xM2H8dRU0JDN1EMjVU0Ng0ItjVjMpXJz2XBPsykUkCl5pOz6nr0Devfqpd6taE0NqSa1oII3+9+uYJxdBp6xO6A2t1EHSpHzCG9G+StvAaxKrz/e0/EXvD3ACJj4qRAO1Xly79ewqZnMnCJURkShITAQ0uBgFkeo6M8AlZSw+NN82pomJSk55IMxxRs3N5Yv7bSciVXz5glP9mCLKYfAHPKMQHqhSGCx2SWwdglk7jXMbpvgfkodGG7/SS1yHnKnCz2tBGA4diafASmZwj6X1UgF81aJmYUoiYxBw6Ug1IVHQJqsSAQJBoGiluIMB4ZiFOVGnGrIpUxGjACtP1L1p0O3CSZv2LBbBddjl5FZXKlk4al5sNwewCAZLP5KK1cz/UhzzlOiOwRDdIpUwjF6A/hig7DLsoYmARwaNGiVxY2UPORGxaGeg5SQyFyIsmYanSi34cCUn/RQBOKt27B79mysmj9feJJmW3zMofxmsKEZnhs/F8HRmcgprVKy4KQ7ePvbyxi3+C4G2FpphHS3n6IIpurqq3sOwEK946reYvt6DwBMVfSbRi1apE2rSTk4tJCAsvjLibnIirgJWeAlSEIuoyYsjA3bFIDpHowDQ7cfAYtsYW5iwiYPmvEQvOThcHu/2e7Jbh1mLNiO5NxS5JZVK5l3bDomrKZKoOo7dM617F/TRV0v1YE5Ws9MLRjOtcZ8BPwRwPVM0YrEdWrh0KQeFbu84+4iIewm6gICUevjC9EpT1bWoKSPwFTu/QH7V6zCgvmfCQ/eYksJDr1fUirCtA/Xo+9AY9jv/B355TUq7UhQIl5aHsNyIa4qyIGhlnKe6l7Kgbm8x0C17sSBodZgDPCurbDHtCIjtVCkUjkcHK4SeCb6Dq5djYPELwBirwsQ//En6rwvIs03BM4+sXhisH6rC55UwuG6cz0uByNNrDBkpDlO+cSjUCRWtgox9njFYNxXyRi15CR62RoJ3O3qUGG2XNuzL1bq7teoGoKj1wsw/RyoquZ6pGjzymu0gkOVwN+isvBLRCYuhibg/OUEuIckwSU4Bd8HpWDyxwuVnstofqZW4XAfpKJXv0HGmGixAvHpRSiprOWtSFTLbgzJ/ZYfCVca/q0sdFDT+yGgBD1TrcBwChr9HrDpB64nirZaWt9mOG5hGfjpSjr2XU7l4aw4+Aeef1H9giet4HBds1m2F4/2N8KcRc64XyUBZa3FlQ/hZJdUITmvEnObDf+PftkbFb0VrlWh+wSMdVLbBKffMGBCizSEVqGmFIiUAnJLt2quHFVwaCWa0XNj1M6rtwkOQcorFOHN91eh7yBj7DkUpAQno0iE5PwKXEkpxvtb/dnwv3rKEjTo6mF7T8c2geHUoyrnKRTVdgqcD1c44stFLQLbAzW0GQ6nouDwVDz97GQ8M3YWzl9OZSMaKYeDk/BgqD0TlYr3l/nhnfl5oMyXu+C2tMNfBz5bx51Z0dLsRMuhvD3K+fZcFAvMqp5Xbzccrqu79nkxFZnPXIfIxDwlONezShCRUYTDF8rwyrxGvPAR0PeptkHq1RcwVVFySSsUsSSQy3PaA4eWBptNnw13FfXlDsMhSET9Y5udbOj/fKUbcytOORwcStKo845HymE6rwnGlnI8OlB7SC98CPzW4rHO+9XSToGzaK8HXnpFecFTp8DhVERlj5ffssETQ82w43AIk31LOL4JebgQn4uvnCow1lqOkdPkIGVocrOBo4GpX3JnUrSU88TcKUVHlUMr7p82Gqk0r96pcLiunzkfBf3hZhj50hx4X4qD1M8fSbGpTDkcnLM378IzOhvWG6sw1howehOgWo46SLp6wEv/Uc55soqrOgXO+4sdlBY8dQkcDtJ3uz3R/3FDuNkthfjkKVQHBOF6TBpTDgfnt8g7oPU+0+zEGDsPGPoqQCBUQRo1DbDfwx1d0dKcemcoZ61HKJ4cOkwwr96lcKj7wV7eePP5MShyWA+Ruzuk/oEovxyGoOtpTDkEhxZCUR6y0+sOJi2UYNx8wMBErgSIAvnLLXIeOseNO6XsxrO9AZncarNfEkzenCaYV+9yOKHe3jAfMwYlTs6oOHsWNVHXIYuPhyz0CgpCr+HPiDQeDmWw+y+nYaNHNiZ8Wodxn0Jp+KcSavQtoXru3q/pFDifbj2EyVOn8QfvHjgvvoj7hw+j0t8fkpQUVrakEqacilIhoUgLvY4TV1NYek9w9oakwikoBSuO5sBkbgPGfPJw+B86AZjb4jeGaLETNxo2X4KiTYZMQzmnHEffJOg/NYz/IZFug1N2zJ3VVqicSSVM/jkKKoLT+uagEMQGR8EtJJmHs/tSMnYEJsNuXwFzpxdmKpSkKueJzy17EPAfrs9pD5zJ85fgO0fF74N1GxxSDs0WMDhlZfwUCk2lEKy6zExWoBL7BiAsMIoph4OzLeA2ysUN2PcrYDIPGG8LHD3Dq5+9KKqUdAqcVScvY+BgfXbMLodD9Vmq01KhidyqNiERsoJCfuq2saqKbZO7EbzyI0cgOfM7LgVGozmcPJGEp0F36d5B/CZ7Qet5gpMLBCu72qOcRQd+x+OD9FnO0+VwqOf0eFLyt9+i3MMD1WFhLO7U3bvHoFBLYGg/BWwK3B5r1+Pg7xE8nANX04Uk1Gzdzq9oNxwayl+3nAfjF8fyz4t2Cxw/Dw/MnDgRWd87MQCkEBq1xDdjWUvbBCbP2QVrZszAVLMpeOwJY0yat4fFnJD0YjU4hLsl9Y1MPVwlUBvlbPaOxfT/fs1Wnv508KDggN0Ch85IgOhJ4kXTLOC78VvccHVlQMJ27cKxpcsYFOOhQ7Fz9WrWwczsIkx8ZzH66pvA9VdfQadb2xDVykBZOC2Y1ATnPzvcMOyZZ/H1OnuV5dJug0MXJCotBT07am5qyh4V0NHRYU8fz506lUFRNV/tGxyPoaPMYWk1V+ula7QiLDyjWC0cB3cfjHvNHFOmTuOHbVXAuxWOqg5ou2+LkycG6hvBYcMmQYrf2vfTiqr4GjJl4M4+MXhnjg1GPDtaqx8I+dvAIQg0AWm1wBGDDYxw6pR2vxfol5TPCuxzV2zEk0MN4aJhNVdz2H8rOFzHqTRCvwFGP1zU2gOvVNL4Zr87DEc8i2XLV6iMK9wxVbV/SzjchRAYAkSguN8E496jZx7emDwVb0+zUKrTcJ/R1P6t4XAXR78mZ2xsjJ27dqGgsBArVq9lz5h39IeH/hFwCBL9VMP69euhb2CA7Tt2ah20OcCq2n8MHFUX19F9/wcLk2Tm1rw+BAAAAABJRU5ErkJggg==;imageBorder=#00CC00;strokeWidth=2;fontColor=#000000;" parent="1" vertex="1">
          <mxGeometry x="1537" y="2471.69" width="52.45" height="61.31" as="geometry" />
        </mxCell>
        <mxCell id="_lroPe5WvMGbtOyixpdy-41" value="- GET: /&lt;font color=&quot;#ff0000&quot;&gt;ux&lt;/font&gt;-gestion-pagos/appcodigo/&lt;font color=&quot;#ff0000&quot;&gt;servicio-al-cliente/v1&lt;/font&gt;/realizar-pagos/{id_usuario}/pago/{id_pago}" style="edgeLabel;html=1;align=center;verticalAlign=middle;resizable=0;points=[];fontColor=#000000;labelBackgroundColor=none;" parent="1" connectable="0" vertex="1">
          <mxGeometry x="646.9979124315073" y="2485.99883105456" as="geometry" />
        </mxCell>
        <mxCell id="_lroPe5WvMGbtOyixpdy-42" value="- GET: /&lt;font color=&quot;#ff0000&quot;&gt;ne&lt;/font&gt;-gestion-pagos/&lt;font color=&quot;#ff0000&quot;&gt;servicio-al-cliente/v1&lt;/font&gt;/realizar-pagos/{id-usuario}" style="edgeLabel;html=1;align=center;verticalAlign=middle;resizable=0;points=[];fontColor=#000000;labelBackgroundColor=none;" parent="1" connectable="0" vertex="1">
          <mxGeometry x="1196.9979124315073" y="2465.99883105456" as="geometry" />
        </mxCell>
        <mxCell id="_lroPe5WvMGbtOyixpdy-43" value="- GET: /&lt;font color=&quot;#ff0000&quot;&gt;ne&lt;/font&gt;-gestion-pagos/&lt;font color=&quot;#ff0000&quot;&gt;servicio-al-cliente/v1&lt;/font&gt;/realizar-pagos/{id-usuario}/pago/{id-pago}" style="edgeLabel;html=1;align=center;verticalAlign=middle;resizable=0;points=[];fontColor=#000000;labelBackgroundColor=none;" parent="1" connectable="0" vertex="1">
          <mxGeometry x="1236.9979124315073" y="2485.99883105456" as="geometry" />
        </mxCell>
      </root>
    </mxGraphModel>
  </diagram>
</mxfile>
